SplineFontDB: 3.0
FontName: FreeSansBold
FullName: Free Sans Bold
FamilyName: FreeSans
Weight: Bold
Copyright: Copyleft 2002, 2003, 2005, 2008, 2009 Free Software Foundation.
Version: $Revision: 1.172 $
ItalicAngle: 0
UnderlinePosition: -223
UnderlineWidth: 69
Ascent: 800
Descent: 200
LayerCount: 2
Layer: 0 1 "Back" 
Layer: 1 1 "Fore" 
XUID: [1021 666 1620398626 10535998]
FSType: 0
OS2Version: 1
OS2_WeightWidthSlopeOnly: 0
OS2_UseTypoMetrics: 1
CreationTime: 1203284335
ModificationTime: 1247402683
PfmFamily: 17
TTFWeight: 700
TTFWidth: 5
LineGap: 90
VLineGap: 0
Panose: 2 11 7 4 2 2 2 2 2 4
OS2TypoAscent: 0
OS2TypoAOffset: 1
OS2TypoDescent: 0
OS2TypoDOffset: 1
OS2TypoLinegap: 0
OS2WinAscent: -72
OS2WinAOffset: 1
OS2WinDescent: -160
OS2WinDOffset: 1
HheadAscent: -72
HheadAOffset: 1
HheadDescent: 160
HheadDOffset: 1
OS2SubXSize: 650
OS2SubYSize: 699
OS2SubXOff: 47
OS2SubYOff: 140
OS2SupXSize: 650
OS2SupYSize: 699
OS2SupXOff: -163
OS2SupYOff: 479
OS2StrikeYSize: 49
OS2StrikeYPos: 258
OS2Vendor: 'GNU '
OS2CodePages: 600001bf.1ff70000
OS2UnicodeRanges: e4020eff.4000e17f.00000020.00000000
Lookup: 4 0 1 "'liga' Standard Ligatures in Latin lookup 0"  {"'liga' Standard Ligatures in Latin lookup 0 subtable"  } ['liga' ('latn' <'dflt' > ) ]
Lookup: 4 0 1 "'liga' Standard Ligatures in Latin lookup 1"  {"'liga' Standard Ligatures in Latin lookup 1 subtable"  } ['liga' ('latn' <'nl  ' > ) ]
Lookup: 4 0 0 "'frac' Diagonal Fractions lookup 2"  {"'frac' Diagonal Fractions lookup 2 subtable"  } ['frac' ('DFLT' <'dflt' > ) ]
Lookup: 4 0 1 "'liga' Standard Ligatures in Cyrillic lookup 3"  {"'liga' Standard Ligatures in Cyrillic lookup 3 subtable"  } ['liga' ('cyrl' <'dflt' > ) ]
Lookup: 4 0 1 "'liga' Standard Ligatures in Armenian lookup 4"  {"'liga' Standard Ligatures in Armenian lookup 4 subtable"  } ['liga' ('armn' <'dflt' > ) ]
Lookup: 4 0 0 "'hlig' Historic Ligatures in Armenian lookup 5"  {"'hlig' Historic Ligatures in Armenian lookup 5 subtable"  } ['hlig' ('armn' <'dflt' > ) ]

StartChar: .notdef
Encoding: 65536 -1 0
Width: 364
Flags: W
LayerCount: 2
Fore
SplineSet
33 0 m 1,0,-1
 33 666 l 1,1,-1
 298 666 l 1,2,-1
 298 0 l 1,3,-1
 33 0 l 1,0,-1
66 33 m 1,4,-1
 265 33 l 1,5,-1
 265 633 l 1,6,-1
 66 633 l 1,7,-1
 66 33 l 1,4,-1
EndSplineSet
EndChar

StartChar: exclam
Encoding: 33 33 4
Width: 333
GlyphClass: 2
Flags: W
LayerCount: 2
Fore
SplineSet
262 726 m 1,0,-1
 262 516 l 1,1,-1
 220 207 l 1,2,-1
 153 207 l 1,3,-1
 112 516 l 1,4,-1
 112 726 l 1,5,-1
 262 726 l 1,0,-1
262 146 m 1,6,-1
 262 0 l 1,7,-1
 112 0 l 1,8,-1
 112 146 l 1,9,-1
 262 146 l 1,6,-1
EndSplineSet
EndChar

StartChar: quotedbl
Encoding: 34 34 5
Width: 474
GlyphClass: 2
Flags: W
LayerCount: 2
Fore
SplineSet
188 729 m 1,0,-1
 188 599 l 1,1,-1
 146 470 l 1,2,-1
 90 470 l 1,3,-1
 50 599 l 1,4,-1
 50 729 l 1,5,-1
 188 729 l 1,0,-1
424 729 m 1,6,-1
 424 599 l 1,7,-1
 382 470 l 1,8,-1
 326 470 l 1,9,-1
 286 599 l 1,10,-1
 286 729 l 1,11,-1
 424 729 l 1,6,-1
EndSplineSet
EndChar

StartChar: numbersign
Encoding: 35 35 6
Width: 556
GlyphClass: 2
Flags: W
LayerCount: 2
Fore
SplineSet
146 -32 m 1,0,-1
 40 -32 l 1,1,-1
 80 172 l 1,2,-1
 3 172 l 1,3,-1
 3 271 l 1,4,-1
 100 271 l 1,5,-1
 130 424 l 1,6,-1
 31 424 l 1,7,-1
 31 523 l 1,8,-1
 150 523 l 1,9,-1
 184 697 l 1,10,-1
 289 697 l 1,11,-1
 255 523 l 1,12,-1
 358 523 l 1,13,-1
 392 697 l 1,14,-1
 497 697 l 1,15,-1
 463 523 l 1,16,-1
 553 523 l 1,17,-1
 553 424 l 1,18,-1
 444 424 l 1,19,-1
 413 271 l 1,20,-1
 513 271 l 1,21,-1
 513 172 l 1,22,-1
 394 172 l 1,23,-1
 354 -32 l 1,24,-1
 249 -32 l 1,25,-1
 289 172 l 1,26,-1
 186 172 l 1,27,-1
 146 -32 l 1,0,-1
205 271 m 1,28,-1
 308 271 l 1,29,-1
 338 424 l 1,30,-1
 235 424 l 1,31,-1
 205 271 l 1,28,-1
EndSplineSet
EndChar

StartChar: dollar
Encoding: 36 36 7
Width: 556
GlyphClass: 2
Flags: W
LayerCount: 2
Fore
SplineSet
243 -21 m 1,0,1
 137 -11 137 -11 79.5 48 c 128,-1,2
 22 107 22 107 22 198 c 2,3,-1
 22 207 l 1,4,-1
 153 207 l 1,5,6
 158 101 158 101 243 86 c 1,7,-1
 243 299 l 1,8,9
 39 346 39 346 39 512 c 0,10,11
 39 596 39 596 92.5 648 c 128,-1,12
 146 700 146 700 243 709 c 1,13,-1
 243 763 l 1,14,-1
 311 763 l 1,15,-1
 311 709 l 1,16,17
 406 704 406 704 461 648 c 128,-1,18
 516 592 516 592 517 498 c 1,19,-1
 389 498 l 1,20,-1
 389 504 l 2,21,22
 389 548 389 548 368.5 575.5 c 128,-1,23
 348 603 348 603 311 608 c 1,24,-1
 311 407 l 1,25,26
 427 375 427 375 477 326 c 128,-1,27
 527 277 527 277 527 195 c 0,28,29
 527 99 527 99 470.5 44.5 c 128,-1,30
 414 -10 414 -10 311 -21 c 1,31,-1
 311 -126 l 1,32,-1
 243 -126 l 1,33,-1
 243 -21 l 1,0,1
243 427 m 1,34,-1
 243 608 l 1,35,36
 162 592 162 592 162 516 c 0,37,38
 162 453 162 453 243 427 c 1,34,-1
311 282 m 1,39,-1
 311 86 l 1,40,41
 395 107 395 107 395 183 c 0,42,43
 395 256 395 256 311 282 c 1,39,-1
EndSplineSet
EndChar

StartChar: percent
Encoding: 37 37 8
Width: 889
GlyphClass: 2
Flags: W
LayerCount: 2
Fore
SplineSet
206 701 m 0,0,1
 283 701 283 701 336.5 647.5 c 128,-1,2
 390 594 390 594 390 517 c 0,3,4
 390 444 390 444 335.5 390.5 c 128,-1,5
 281 337 281 337 206 337 c 0,6,7
 130 337 130 337 76 390.5 c 128,-1,8
 22 444 22 444 22 519 c 128,-1,9
 22 594 22 594 76 647.5 c 128,-1,10
 130 701 130 701 206 701 c 0,0,1
206 602 m 128,-1,12
 171 602 171 602 146 577.5 c 128,-1,13
 121 553 121 553 121 519 c 0,14,15
 121 484 121 484 146 459.5 c 128,-1,16
 171 435 171 435 206 435 c 128,-1,17
 241 435 241 435 266 459.5 c 128,-1,18
 291 484 291 484 291 518 c 0,19,20
 291 553 291 553 266 577.5 c 128,-1,11
 241 602 241 602 206 602 c 128,-1,12
606 709 m 1,21,-1
 682 709 l 1,22,-1
 287 -20 l 1,23,-1
 210 -20 l 1,24,-1
 606 709 l 1,21,-1
679 352 m 0,25,26
 756 352 756 352 809.5 298.5 c 128,-1,27
 863 245 863 245 863 167 c 0,28,29
 863 94 863 94 808.5 40.5 c 128,-1,30
 754 -13 754 -13 679 -13 c 0,31,32
 603 -13 603 -13 549 40.5 c 128,-1,33
 495 94 495 94 495 170 c 0,34,35
 495 245 495 245 549 298.5 c 128,-1,36
 603 352 603 352 679 352 c 0,25,26
679 253 m 128,-1,38
 644 253 644 253 619 228.5 c 128,-1,39
 594 204 594 204 594 169 c 128,-1,40
 594 134 594 134 619 109.5 c 128,-1,41
 644 85 644 85 679 85 c 128,-1,42
 714 85 714 85 739 109.5 c 128,-1,43
 764 134 764 134 764 168 c 0,44,45
 764 203 764 203 739 228 c 128,-1,37
 714 253 714 253 679 253 c 128,-1,38
EndSplineSet
EndChar

StartChar: ampersand
Encoding: 38 38 9
Width: 722
GlyphClass: 2
Flags: W
LayerCount: 2
Fore
SplineSet
526 373 m 1,0,-1
 639 373 l 1,1,-1
 639 357 l 2,2,3
 637 299 637 299 619 243.5 c 128,-1,4
 601 188 601 188 571 154 c 1,5,-1
 694 0 l 1,6,-1
 533 0 l 1,7,-1
 487 56 l 1,8,9
 427 11 427 11 385 -6 c 128,-1,10
 343 -23 343 -23 292 -23 c 0,11,12
 185 -23 185 -23 120 36.5 c 128,-1,13
 55 96 55 96 55 193 c 0,14,15
 55 264 55 264 89.5 309.5 c 128,-1,16
 124 355 124 355 212 401 c 1,17,18
 203 413 203 413 200 416 c 2,19,-1
 172 450 l 2,20,21
 130 500 130 500 130 556 c 0,22,23
 130 627 130 627 184.5 675 c 128,-1,24
 239 723 239 723 319 723 c 128,-1,25
 399 723 399 723 448 680.5 c 128,-1,26
 497 638 497 638 497 568 c 0,27,28
 497 514 497 514 472 476 c 128,-1,29
 447 438 447 438 380 392 c 1,30,-1
 496 248 l 1,31,32
 526 305 526 305 526 363 c 2,33,-1
 526 373 l 1,0,-1
278 319 m 1,34,-1
 231 290 l 2,35,36
 188 261 188 261 188 210 c 0,37,38
 188 165 188 165 220.5 129 c 128,-1,39
 253 93 253 93 294 93 c 0,40,41
 342 93 342 93 414 148 c 1,42,-1
 278 319 l 1,34,-1
317 470 m 1,43,44
 377 503 377 503 377 556 c 0,45,46
 377 584 377 584 362 599 c 128,-1,47
 347 614 347 614 320 614 c 0,48,49
 295 614 295 614 278.5 600.5 c 128,-1,50
 262 587 262 587 262 566 c 0,51,52
 262 547 262 547 270.5 532.5 c 128,-1,53
 279 518 279 518 317 470 c 1,43,44
EndSplineSet
EndChar

StartChar: quotesingle
Encoding: 39 39 10
Width: 238
GlyphClass: 2
Flags: W
LayerCount: 2
Fore
SplineSet
188 729 m 1,0,-1
 188 599 l 1,1,-1
 146 470 l 1,2,-1
 90 470 l 1,3,-1
 50 599 l 1,4,-1
 50 729 l 1,5,-1
 188 729 l 1,0,-1
EndSplineSet
EndChar

StartChar: parenleft
Encoding: 40 40 11
Width: 333
GlyphClass: 2
Flags: W
LayerCount: 2
Fore
SplineSet
203 729 m 1,0,-1
 303 729 l 1,1,2
 224 576 224 576 193.5 475.5 c 128,-1,3
 163 375 163 375 163 265 c 128,-1,4
 163 155 163 155 193 55 c 128,-1,5
 223 -45 223 -45 303 -200 c 1,6,-1
 203 -200 l 1,7,8
 117 -70 117 -70 78.5 39.5 c 128,-1,9
 40 149 40 149 40 265 c 0,10,11
 40 380 40 380 78.5 490 c 128,-1,12
 117 600 117 600 203 729 c 1,0,-1
EndSplineSet
EndChar

StartChar: parenright
Encoding: 41 41 12
Width: 333
GlyphClass: 2
Flags: W
LayerCount: 2
Fore
SplineSet
122 -200 m 1,0,-1
 22 -200 l 1,1,2
 101 -47 101 -47 131.5 53.5 c 128,-1,3
 162 154 162 154 162 264 c 128,-1,4
 162 374 162 374 132 474 c 128,-1,5
 102 574 102 574 22 729 c 1,6,-1
 122 729 l 1,7,8
 208 599 208 599 246.5 489.5 c 128,-1,9
 285 380 285 380 285 264 c 0,10,11
 285 149 285 149 246.5 39 c 128,-1,12
 208 -71 208 -71 122 -200 c 1,0,-1
EndSplineSet
EndChar

StartChar: asterisk
Encoding: 42 42 13
Width: 389
GlyphClass: 2
Flags: W
LayerCount: 2
Fore
SplineSet
132 544 m 1,0,-1
 23 580 l 1,1,-1
 45 649 l 1,2,-1
 154 613 l 1,3,-1
 154 729 l 1,4,-1
 226 729 l 1,5,-1
 226 613 l 1,6,-1
 335 649 l 1,7,-1
 357 579 l 1,8,-1
 248 544 l 1,9,-1
 315 450 l 1,10,-1
 257 407 l 1,11,-1
 190 501 l 1,12,-1
 123 407 l 1,13,-1
 65 450 l 1,14,-1
 132 544 l 1,0,-1
EndSplineSet
EndChar

StartChar: plus
Encoding: 43 43 14
Width: 584
GlyphClass: 2
Flags: W
LayerCount: 2
Fore
SplineSet
533 291 m 1,0,-1
 533 172 l 1,1,-1
 351 172 l 1,2,-1
 351 -10 l 1,3,-1
 232 -10 l 1,4,-1
 232 172 l 1,5,-1
 50 172 l 1,6,-1
 50 291 l 1,7,-1
 232 291 l 1,8,-1
 232 473 l 1,9,-1
 351 473 l 1,10,-1
 351 291 l 1,11,-1
 533 291 l 1,0,-1
EndSplineSet
EndChar

StartChar: comma
Encoding: 44 44 15
Width: 278
GlyphClass: 2
Flags: W
LayerCount: 2
Fore
SplineSet
64 146 m 1,0,-1
 214 146 l 1,1,-1
 214 9 l 2,2,3
 214 -26 214 -26 209.5 -51 c 128,-1,4
 205 -76 205 -76 190.5 -104 c 128,-1,5
 176 -132 176 -132 144.5 -150 c 128,-1,6
 113 -168 113 -168 64 -174 c 1,7,-1
 64 -118 l 1,8,9
 150 -101 150 -101 150 -3 c 2,10,-1
 150 0 l 1,11,-1
 64 0 l 1,12,-1
 64 146 l 1,0,-1
EndSplineSet
EndChar

StartChar: hyphen
Encoding: 45 45 16
Width: 333
GlyphClass: 2
Flags: W
LayerCount: 2
Fore
SplineSet
298 342 m 1,0,-1
 298 207 l 1,1,-1
 26 207 l 1,2,-1
 26 342 l 1,3,-1
 298 342 l 1,0,-1
EndSplineSet
EndChar

StartChar: period
Encoding: 46 46 17
Width: 278
GlyphClass: 2
Flags: W
LayerCount: 2
Fore
SplineSet
214 146 m 1,0,-1
 214 0 l 1,1,-1
 64 0 l 1,2,-1
 64 146 l 1,3,-1
 214 146 l 1,0,-1
EndSplineSet
EndChar

StartChar: slash
Encoding: 47 47 18
Width: 278
GlyphClass: 2
Flags: W
LayerCount: 2
Fore
SplineSet
208 714 m 1,0,-1
 275 714 l 1,1,-1
 69 -14 l 1,2,-1
 2 -14 l 1,3,-1
 208 714 l 1,0,-1
EndSplineSet
EndChar

StartChar: zero
Encoding: 48 48 19
Width: 556
GlyphClass: 2
Flags: W
AnchorPoint: "Anchor-5" 274 343 basechar 0
LayerCount: 2
Fore
SplineSet
273 -23 m 128,-1,1
 202 -23 202 -23 153 5.5 c 128,-1,2
 104 34 104 34 77.5 87 c 128,-1,3
 51 140 51 140 40 203.5 c 128,-1,4
 29 267 29 267 29 350 c 0,5,6
 29 553 29 553 89 633 c 0,7,8
 155 724 155 724 273 724 c 0,9,10
 402 724 402 724 467 619 c 0,11,12
 517 538 517 538 517 346 c 0,13,14
 517 266 517 266 506 203.5 c 128,-1,15
 495 141 495 141 469 87.5 c 128,-1,16
 443 34 443 34 393.5 5.5 c 128,-1,0
 344 -23 344 -23 273 -23 c 128,-1,1
377 349 m 0,17,18
 377 456 377 456 363.5 515 c 128,-1,19
 350 574 350 574 329 592.5 c 128,-1,20
 308 611 308 611 273 611 c 0,21,22
 217 611 217 611 193 554.5 c 128,-1,23
 169 498 169 498 169 351 c 0,24,25
 169 249 169 249 182 191.5 c 128,-1,26
 195 134 195 134 216.5 115.5 c 128,-1,27
 238 97 238 97 273 97 c 0,28,29
 334 97 334 97 359 162 c 0,30,31
 377 212 377 212 377 349 c 0,17,18
EndSplineSet
EndChar

StartChar: one
Encoding: 49 49 20
Width: 556
GlyphClass: 2
Flags: W
AnchorPoint: "Anchor-5" 291 343 basechar 0
LayerCount: 2
Fore
SplineSet
238 489 m 1,0,-1
 68 489 l 1,1,-1
 68 582 l 1,2,3
 252 582 252 582 285 709 c 1,4,-1
 378 709 l 1,5,-1
 378 0 l 1,6,-1
 238 0 l 1,7,-1
 238 489 l 1,0,-1
EndSplineSet
EndChar

StartChar: two
Encoding: 50 50 21
Width: 556
GlyphClass: 2
Flags: W
AnchorPoint: "Anchor-5" 274 343 basechar 0
LayerCount: 2
Fore
SplineSet
515 499 m 0,0,1
 515 440 515 440 489.5 392 c 128,-1,2
 464 344 464 344 425 311.5 c 128,-1,3
 386 279 386 279 345 251.5 c 128,-1,4
 304 224 304 224 266 191.5 c 128,-1,5
 228 159 228 159 212 125 c 1,6,-1
 512 125 l 1,7,-1
 512 0 l 1,8,-1
 30 0 l 1,9,10
 35 98 35 98 69.5 155.5 c 128,-1,11
 104 213 104 213 194 276 c 0,12,13
 311 358 311 358 343 397.5 c 128,-1,14
 375 437 375 437 375 496 c 0,15,16
 375 549 375 549 348.5 579.5 c 128,-1,17
 322 610 322 610 275 610 c 0,18,19
 227 610 227 610 200.5 577 c 128,-1,20
 174 544 174 544 174 485 c 2,21,-1
 174 462 l 1,22,-1
 40 462 l 1,23,24
 39 473 39 473 39 487 c 0,25,26
 39 599 39 599 100.5 661.5 c 128,-1,27
 162 724 162 724 272 724 c 0,28,29
 384 724 384 724 449.5 663 c 128,-1,30
 515 602 515 602 515 499 c 0,0,1
EndSplineSet
EndChar

StartChar: three
Encoding: 51 51 22
Width: 556
GlyphClass: 2
Flags: W
AnchorPoint: "Anchor-5" 274 343 basechar 0
LayerCount: 2
Fore
SplineSet
38 498 m 2,0,1
 38 553 38 553 53.5 595 c 128,-1,2
 69 637 69 637 92.5 661 c 128,-1,3
 116 685 116 685 148 699.5 c 128,-1,4
 180 714 180 714 208.5 719 c 128,-1,5
 237 724 237 724 268 724 c 0,6,7
 371 724 371 724 432 671.5 c 128,-1,8
 493 619 493 619 493 531 c 0,9,10
 493 482 493 482 471 446.5 c 128,-1,11
 449 411 449 411 400 380 c 1,12,13
 460 351 460 351 488 308.5 c 128,-1,14
 516 266 516 266 516 204 c 0,15,16
 516 100 516 100 448.5 38.5 c 128,-1,17
 381 -23 381 -23 268 -23 c 0,18,19
 159 -23 159 -23 94.5 39.5 c 128,-1,20
 30 102 30 102 29 208 c 1,21,-1
 165 208 l 1,22,23
 171 97 171 97 271 97 c 0,24,25
 317 97 317 97 346.5 127 c 128,-1,26
 376 157 376 157 376 204 c 0,27,28
 376 243 376 243 355 271.5 c 128,-1,29
 334 300 334 300 299 310 c 0,30,31
 271 317 271 317 217 317 c 1,32,-1
 217 411 l 1,33,-1
 229 411 l 2,34,35
 353 411 353 411 353 518 c 0,36,37
 353 562 353 562 330 586.5 c 128,-1,38
 307 611 307 611 265 611 c 0,39,40
 210 611 210 611 190 580 c 128,-1,41
 170 549 170 549 168 486 c 1,42,-1
 38 486 l 1,43,-1
 38 498 l 2,0,1
EndSplineSet
EndChar

StartChar: four
Encoding: 52 52 23
Width: 556
GlyphClass: 2
Flags: W
AnchorPoint: "Anchor-5" 285 343 basechar 0
LayerCount: 2
Fore
SplineSet
522 273 m 1,0,-1
 522 157 l 1,1,-1
 448 157 l 1,2,-1
 448 0 l 1,3,-1
 308 0 l 1,4,-1
 308 157 l 1,5,-1
 24 157 l 1,6,-1
 24 275 l 1,7,-1
 283 709 l 1,8,-1
 448 709 l 1,9,-1
 448 273 l 1,10,-1
 522 273 l 1,0,-1
308 273 m 1,11,-1
 308 576 l 1,12,-1
 123 273 l 1,13,-1
 308 273 l 1,11,-1
EndSplineSet
EndChar

StartChar: five
Encoding: 53 53 24
Width: 556
GlyphClass: 2
Flags: W
AnchorPoint: "Anchor-5" 274 343 basechar 0
LayerCount: 2
Fore
SplineSet
489 709 m 1,0,-1
 489 584 l 1,1,-1
 196 584 l 1,2,-1
 173 436 l 1,3,4
 230 479 230 479 296 479 c 0,5,6
 394 479 394 479 455.5 411 c 128,-1,7
 517 343 517 343 517 234 c 0,8,9
 517 119 517 119 446 48 c 128,-1,10
 375 -23 375 -23 261 -23 c 0,11,12
 158 -23 158 -23 93.5 34.5 c 128,-1,13
 29 92 29 92 27 185 c 1,14,-1
 165 185 l 1,15,16
 170 97 170 97 263 97 c 0,17,18
 316 97 316 97 346.5 133 c 128,-1,19
 377 169 377 169 377 231 c 0,20,21
 377 295 377 295 346.5 331.5 c 128,-1,22
 316 368 316 368 263 368 c 0,23,24
 196 368 196 368 173 314 c 1,25,-1
 47 314 l 1,26,-1
 110 709 l 1,27,-1
 489 709 l 1,0,-1
EndSplineSet
EndChar

StartChar: six
Encoding: 54 54 25
Width: 556
GlyphClass: 2
Flags: W
AnchorPoint: "Anchor-5" 286 343 basechar 0
LayerCount: 2
Fore
SplineSet
32 337 m 0,0,1
 32 724 32 724 294 724 c 0,2,3
 313 724 313 724 331 722 c 128,-1,4
 349 720 349 720 379.5 710 c 128,-1,5
 410 700 410 700 433.5 683 c 128,-1,6
 457 666 457 666 478.5 631 c 128,-1,7
 500 596 500 596 507 548 c 1,8,-1
 377 548 l 1,9,10
 363 582 363 582 343.5 596.5 c 128,-1,11
 324 611 324 611 290 611 c 0,12,13
 248 611 248 611 219.5 584 c 128,-1,14
 191 557 191 557 181 509 c 0,15,16
 175 479 175 479 172 404 c 1,17,18
 205 438 205 438 237 452.5 c 128,-1,19
 269 467 269 467 313 467 c 0,20,21
 404 467 404 467 461.5 403 c 128,-1,22
 519 339 519 339 519 237 c 0,23,24
 519 121 519 121 453.5 49 c 128,-1,25
 388 -23 388 -23 282 -23 c 0,26,27
 219 -23 219 -23 166.5 5 c 128,-1,28
 114 33 114 33 83 82 c 0,29,30
 32 163 32 163 32 337 c 0,0,1
279 357 m 128,-1,32
 230 357 230 357 200 320.5 c 128,-1,33
 170 284 170 284 170 225 c 0,34,35
 170 169 170 169 200 133 c 128,-1,36
 230 97 230 97 278 97 c 0,37,38
 325 97 325 97 355.5 134 c 128,-1,39
 386 171 386 171 386 228 c 0,40,41
 386 287 386 287 357 322 c 128,-1,31
 328 357 328 357 279 357 c 128,-1,32
EndSplineSet
EndChar

StartChar: seven
Encoding: 55 55 26
Width: 556
GlyphClass: 2
Flags: W
AnchorPoint: "Anchor-5" 274 343 basechar 0
LayerCount: 2
Fore
SplineSet
528 709 m 1,0,-1
 528 599 l 1,1,2
 402 447 402 447 343 307.5 c 128,-1,3
 284 168 284 168 274 0 c 1,4,-1
 133 0 l 1,5,6
 159 206 159 206 226 347 c 0,7,8
 247 393 247 393 298.5 471 c 128,-1,9
 350 549 350 549 382 584 c 1,10,-1
 29 584 l 1,11,-1
 29 709 l 1,12,-1
 528 709 l 1,0,-1
EndSplineSet
EndChar

StartChar: eight
Encoding: 56 56 27
Width: 556
GlyphClass: 2
Flags: W
AnchorPoint: "Anchor-5" 274 343 basechar 0
LayerCount: 2
Fore
SplineSet
501 532 m 0,0,1
 501 476 501 476 476.5 442.5 c 128,-1,2
 452 409 452 409 409 386 c 1,3,4
 470 353 470 353 497.5 310 c 128,-1,5
 525 267 525 267 525 204 c 0,6,7
 525 104 525 104 455 40.5 c 128,-1,8
 385 -23 385 -23 274 -23 c 0,9,10
 162 -23 162 -23 92 40 c 128,-1,11
 22 103 22 103 22 204 c 0,12,13
 22 267 22 267 49.5 310 c 128,-1,14
 77 353 77 353 138 386 c 1,15,16
 90 412 90 412 68 446 c 128,-1,17
 46 480 46 480 46 531 c 0,18,19
 46 615 46 615 110.5 669.5 c 128,-1,20
 175 724 175 724 274 724 c 0,21,22
 372 724 372 724 436.5 669.5 c 128,-1,23
 501 615 501 615 501 532 c 0,0,1
275 611 m 128,-1,25
 228 611 228 611 198.5 585.5 c 128,-1,26
 169 560 169 560 169 519 c 128,-1,27
 169 478 169 478 198.5 451.5 c 128,-1,28
 228 425 228 425 275 425 c 0,29,30
 321 425 321 425 350.5 451 c 128,-1,31
 380 477 380 477 380 518 c 128,-1,32
 380 559 380 559 351 585 c 128,-1,24
 322 611 322 611 275 611 c 128,-1,25
273 330 m 0,33,34
 223 330 223 330 192.5 298 c 128,-1,35
 162 266 162 266 162 212 c 0,36,37
 162 159 162 159 192 128 c 128,-1,38
 222 97 222 97 273 97 c 128,-1,39
 324 97 324 97 354.5 128 c 128,-1,40
 385 159 385 159 385 210 c 0,41,42
 385 265 385 265 355 297.5 c 128,-1,43
 325 330 325 330 273 330 c 0,33,34
EndSplineSet
EndChar

StartChar: nine
Encoding: 57 57 28
Width: 556
GlyphClass: 2
Flags: W
AnchorPoint: "Anchor-5" 274 343 basechar 0
LayerCount: 2
Fore
SplineSet
516 370 m 0,0,1
 516 274 516 274 499 201 c 128,-1,2
 482 128 482 128 456.5 86 c 128,-1,3
 431 44 431 44 395 18.5 c 128,-1,4
 359 -7 359 -7 326 -15.5 c 128,-1,5
 293 -24 293 -24 255 -24 c 0,6,7
 163 -24 163 -24 101.5 29.5 c 128,-1,8
 40 83 40 83 38 165 c 1,9,-1
 173 165 l 1,10,11
 175 134 175 134 198.5 115 c 128,-1,12
 222 96 222 96 259 96 c 0,13,14
 376 96 376 96 376 298 c 1,15,16
 372 291 372 291 360 279 c 128,-1,17
 348 267 348 267 334.5 256 c 128,-1,18
 321 245 321 245 295.5 236.5 c 128,-1,19
 270 228 270 228 240 228 c 0,20,21
 146 228 146 228 87 296 c 128,-1,22
 28 364 28 364 28 474 c 0,23,24
 28 585 28 585 94.5 654.5 c 128,-1,25
 161 724 161 724 267 724 c 0,26,27
 301 724 301 724 332 716.5 c 128,-1,28
 363 709 363 709 397.5 685.5 c 128,-1,29
 432 662 432 662 457.5 625 c 128,-1,30
 483 588 483 588 499.5 522 c 128,-1,31
 516 456 516 456 516 370 c 0,0,1
263 610 m 0,32,33
 216 610 216 610 188.5 573.5 c 128,-1,34
 161 537 161 537 161 476 c 128,-1,35
 161 415 161 415 189 379.5 c 128,-1,36
 217 344 217 344 265 344 c 128,-1,37
 313 344 313 344 343 380 c 128,-1,38
 373 416 373 416 373 474 c 0,39,40
 373 536 373 536 343.5 573 c 128,-1,41
 314 610 314 610 263 610 c 0,32,33
EndSplineSet
EndChar

StartChar: colon
Encoding: 58 58 29
Width: 333
GlyphClass: 2
Flags: W
LayerCount: 2
Fore
SplineSet
263 146 m 1,0,-1
 263 0 l 1,1,-1
 113 0 l 1,2,-1
 113 146 l 1,3,-1
 263 146 l 1,0,-1
263 520 m 1,4,-1
 263 374 l 1,5,-1
 113 374 l 1,6,-1
 113 520 l 1,7,-1
 263 520 l 1,4,-1
EndSplineSet
EndChar

StartChar: semicolon
Encoding: 59 59 30
Width: 333
GlyphClass: 2
Flags: W
LayerCount: 2
Fore
SplineSet
113 146 m 1,0,-1
 263 146 l 1,1,-1
 263 9 l 2,2,3
 263 -26 263 -26 258.5 -51 c 128,-1,4
 254 -76 254 -76 239.5 -104 c 128,-1,5
 225 -132 225 -132 193.5 -150 c 128,-1,6
 162 -168 162 -168 113 -174 c 1,7,-1
 113 -118 l 1,8,9
 199 -101 199 -101 199 -3 c 2,10,-1
 199 0 l 1,11,-1
 113 0 l 1,12,-1
 113 146 l 1,0,-1
263 520 m 1,13,-1
 263 374 l 1,14,-1
 113 374 l 1,15,-1
 113 520 l 1,16,-1
 263 520 l 1,13,-1
EndSplineSet
EndChar

StartChar: less
Encoding: 60 60 31
Width: 584
GlyphClass: 2
Flags: W
LayerCount: 2
Fore
SplineSet
529 474 m 1,0,-1
 529 365 l 1,1,-1
 147 232 l 1,2,-1
 529 101 l 1,3,-1
 529 -10 l 1,4,-1
 40 172 l 1,5,-1
 40 293 l 1,6,-1
 529 474 l 1,0,-1
EndSplineSet
EndChar

StartChar: equal
Encoding: 61 61 32
Width: 584
GlyphClass: 2
Flags: W
LayerCount: 2
Fore
SplineSet
534 411 m 1,0,-1
 534 292 l 1,1,-1
 50 292 l 1,2,-1
 50 411 l 1,3,-1
 534 411 l 1,0,-1
534 171 m 1,4,-1
 534 52 l 1,5,-1
 50 52 l 1,6,-1
 50 171 l 1,7,-1
 534 171 l 1,4,-1
EndSplineSet
EndChar

StartChar: greater
Encoding: 62 62 33
Width: 584
GlyphClass: 2
Flags: W
LayerCount: 2
Fore
SplineSet
40 -10 m 1,0,-1
 40 99 l 1,1,-1
 422 232 l 1,2,-1
 40 363 l 1,3,-1
 40 474 l 1,4,-1
 529 292 l 1,5,-1
 529 171 l 1,6,-1
 40 -10 l 1,0,-1
EndSplineSet
EndChar

StartChar: question
Encoding: 63 63 34
Width: 611
GlyphClass: 2
Flags: W
LayerCount: 2
Fore
SplineSet
64 481 m 1,0,1
 65 546 65 546 81.5 595 c 128,-1,2
 98 644 98 644 122.5 671.5 c 128,-1,3
 147 699 147 699 181 716 c 128,-1,4
 215 733 215 733 244.5 738.5 c 128,-1,5
 274 744 274 744 307 744 c 0,6,7
 417 744 417 744 486.5 680 c 128,-1,8
 556 616 556 616 556 514 c 0,9,10
 556 451 556 451 531 410 c 128,-1,11
 506 369 506 369 436 320 c 0,12,13
 391 288 391 288 380 269 c 128,-1,14
 369 250 369 250 369 201 c 1,15,-1
 245 201 l 1,16,-1
 245 215 l 2,17,18
 245 265 245 265 262.5 302.5 c 128,-1,19
 280 340 280 340 305 363 c 128,-1,20
 330 386 330 386 355 406 c 128,-1,21
 380 426 380 426 397.5 452 c 128,-1,22
 415 478 415 478 415 511 c 0,23,24
 415 560 415 560 385 593 c 128,-1,25
 355 626 355 626 310 626 c 0,26,27
 263 626 263 626 231.5 588 c 128,-1,28
 200 550 200 550 200 492 c 2,29,-1
 200 483 l 1,30,-1
 200 481 l 1,31,-1
 64 481 l 1,0,1
385 146 m 1,32,-1
 385 0 l 1,33,-1
 235 0 l 1,34,-1
 235 146 l 1,35,-1
 385 146 l 1,32,-1
EndSplineSet
EndChar

StartChar: at
Encoding: 64 64 35
Width: 975
GlyphClass: 2
Flags: W
LayerCount: 2
Fore
SplineSet
258 227 m 0,0,1
 258 256 258 256 270.5 299.5 c 128,-1,2
 283 343 283 343 309.5 394.5 c 128,-1,3
 336 446 336 446 390 482 c 128,-1,4
 444 518 444 518 514 518 c 0,5,6
 593 518 593 518 628 446 c 1,7,-1
 644 508 l 1,8,-1
 734 508 l 1,9,-1
 656 228 l 2,10,11
 648 198 648 198 648 186 c 0,12,13
 648 164 648 164 661 150.5 c 128,-1,14
 674 137 674 137 697 137 c 0,15,16
 750 137 750 137 804 207.5 c 128,-1,17
 858 278 858 278 858 370 c 0,18,19
 858 488 858 488 760 576 c 0,20,21
 656 668 656 668 511 668 c 0,22,23
 399 668 399 668 309 611.5 c 128,-1,24
 219 555 219 555 171.5 463.5 c 128,-1,25
 124 372 124 372 124 266 c 0,26,27
 124 120 124 120 230.5 30 c 128,-1,28
 337 -60 337 -60 486 -60 c 0,29,30
 602 -60 602 -60 693 -19 c 1,31,-1
 721 -92 l 1,32,33
 620 -138 620 -138 484 -138 c 0,34,35
 278 -138 278 -138 152.5 -22.5 c 128,-1,36
 27 93 27 93 27 264 c 0,37,38
 27 351 27 351 65.5 442 c 128,-1,39
 104 533 104 533 170 601 c 0,40,41
 309 745 309 745 516 745 c 0,42,43
 697 745 697 745 822 634.5 c 128,-1,44
 947 524 947 524 947 355 c 0,45,46
 947 288 947 288 923 230 c 128,-1,47
 899 172 899 172 861.5 135 c 128,-1,48
 824 98 824 98 780.5 77 c 128,-1,49
 737 56 737 56 697 56 c 0,50,51
 648 56 648 56 615.5 77.5 c 128,-1,52
 583 99 583 99 572 131 c 1,53,54
 510 56 510 56 422 56 c 0,55,56
 354 56 354 56 306 106 c 128,-1,57
 258 156 258 156 258 227 c 0,0,1
444 137 m 0,58,59
 504 137 504 137 549.5 207.5 c 128,-1,60
 595 278 595 278 595 345 c 0,61,62
 595 392 595 392 572.5 419.5 c 128,-1,63
 550 447 550 447 511 447 c 0,64,65
 452 447 452 447 403.5 383.5 c 128,-1,66
 355 320 355 320 355 244 c 0,67,68
 355 199 355 199 381 168 c 128,-1,69
 407 137 407 137 444 137 c 0,58,59
EndSplineSet
EndChar

StartChar: A
Encoding: 65 65 36
Width: 722
GlyphClass: 2
Flags: W
AnchorPoint: "Anchor-5" 366 258 basechar 0
AnchorPoint: "Anchor-4" 636 0 basechar 0 {150-150 4} {}
AnchorPoint: "Anchor-3" 361 730 basechar 0
AnchorPoint: "Anchor-2" 360 1 basechar 0
LayerCount: 2
Fore
SplineSet
501 147 m 1,0,-1
 228 147 l 1,1,-1
 179 0 l 1,2,-1
 26 0 l 1,3,-1
 285 729 l 1,4,-1
 451 729 l 1,5,-1
 703 0 l 1,6,-1
 549 0 l 1,7,-1
 501 147 l 1,0,-1
460 272 m 1,8,-1
 365 557 l 1,9,-1
 270 272 l 1,10,-1
 460 272 l 1,8,-1
EndSplineSet
EndChar

StartChar: B
Encoding: 66 66 37
Width: 722
GlyphClass: 2
Flags: W
AnchorPoint: "Anchor-5" 366 377 basechar 0
AnchorPoint: "Anchor-3" 371 730 basechar 0
AnchorPoint: "Anchor-2" 374 1 basechar 0
LayerCount: 2
Fore
SplineSet
666 210 m 0,0,1
 666 174 666 174 654 140 c 128,-1,2
 642 106 642 106 615.5 73 c 128,-1,3
 589 40 589 40 536 20 c 128,-1,4
 483 0 483 0 410 0 c 2,5,-1
 82 0 l 1,6,-1
 82 729 l 1,7,-1
 407 729 l 2,8,9
 475 729 475 729 524.5 709 c 128,-1,10
 574 689 574 689 598.5 657.5 c 128,-1,11
 623 626 623 626 634 596 c 128,-1,12
 645 566 645 566 645 537 c 0,13,14
 645 490 645 490 622 456 c 128,-1,15
 599 422 599 422 545 387 c 1,16,17
 666 316 666 316 666 210 c 0,0,1
232 604 m 1,18,-1
 232 439 l 1,19,-1
 395 439 l 2,20,21
 501 439 501 439 501 521 c 0,22,23
 501 604 501 604 395 604 c 2,24,-1
 232 604 l 1,18,-1
232 314 m 1,25,-1
 232 125 l 1,26,-1
 411 125 l 2,27,28
 522 125 522 125 522 219 c 0,29,30
 522 314 522 314 411 314 c 2,31,-1
 232 314 l 1,25,-1
EndSplineSet
EndChar

StartChar: C
Encoding: 67 67 38
Width: 722
GlyphClass: 2
Flags: W
AnchorPoint: "Anchor-5" 379 377 basechar 0
AnchorPoint: "Anchor-3" 375 740 basechar 0
AnchorPoint: "Anchor-2" 378 1 basechar 0
LayerCount: 2
Fore
SplineSet
539 482 m 1,0,1
 511 613 511 613 383 613 c 0,2,3
 294 613 294 613 244 545 c 128,-1,4
 194 477 194 477 194 356 c 0,5,6
 194 237 194 237 242.5 170 c 128,-1,7
 291 103 291 103 378 103 c 0,8,9
 448 103 448 103 490 141 c 128,-1,10
 532 179 532 179 539 249 c 1,11,-1
 685 249 l 1,12,13
 678 124 678 124 594 50.5 c 128,-1,14
 510 -23 510 -23 374 -23 c 0,15,16
 222 -23 222 -23 133 79.5 c 128,-1,17
 44 182 44 182 44 358 c 0,18,19
 44 535 44 535 134 638 c 128,-1,20
 224 741 224 741 378 741 c 0,21,22
 507 741 507 741 589.5 672 c 128,-1,23
 672 603 672 603 682 482 c 1,24,-1
 539 482 l 1,0,1
EndSplineSet
EndChar

StartChar: D
Encoding: 68 68 39
Width: 722
GlyphClass: 2
Flags: W
AnchorPoint: "Anchor-5" 366 377 basechar 0
AnchorPoint: "Anchor-3" 325 730 basechar 0
AnchorPoint: "Anchor-2" 343 1 basechar 0
LayerCount: 2
Fore
SplineSet
77 0 m 1,0,-1
 77 729 l 1,1,-1
 362 729 l 2,2,3
 446 729 446 729 500.5 709 c 128,-1,4
 555 689 555 689 592 645 c 0,5,6
 681 539 681 539 681 365 c 0,7,8
 681 189 681 189 592 85 c 0,9,10
 521 0 521 0 362 0 c 2,11,-1
 77 0 l 1,0,-1
227 125 m 1,12,-1
 362 125 l 2,13,14
 531 125 531 125 531 364 c 0,15,16
 531 604 531 604 362 604 c 2,17,-1
 227 604 l 1,18,-1
 227 125 l 1,12,-1
EndSplineSet
EndChar

StartChar: E
Encoding: 69 69 40
Width: 667
GlyphClass: 2
Flags: W
AnchorPoint: "Anchor-5" 366 377 basechar 0
AnchorPoint: "Anchor-4" 583 0 basechar 0
AnchorPoint: "Anchor-3" 358 730 basechar 0
AnchorPoint: "Anchor-2" 360 1 basechar 0
LayerCount: 2
Fore
SplineSet
229 314 m 1,0,-1
 229 125 l 1,1,-1
 624 125 l 1,2,-1
 624 0 l 1,3,-1
 79 0 l 1,4,-1
 79 729 l 1,5,-1
 606 729 l 1,6,-1
 606 604 l 1,7,-1
 229 604 l 1,8,-1
 229 439 l 1,9,-1
 578 439 l 1,10,-1
 578 314 l 1,11,-1
 229 314 l 1,0,-1
EndSplineSet
EndChar

StartChar: F
Encoding: 70 70 41
Width: 611
GlyphClass: 2
Flags: W
AnchorPoint: "Anchor-5" 339 377 basechar 0
AnchorPoint: "Anchor-3" 341 730 basechar 0
AnchorPoint: "Anchor-2" 327 1 basechar 0
LayerCount: 2
Fore
SplineSet
224 314 m 1,0,-1
 224 0 l 1,1,-1
 74 0 l 1,2,-1
 74 729 l 1,3,-1
 586 729 l 1,4,-1
 586 604 l 1,5,-1
 224 604 l 1,6,-1
 224 439 l 1,7,-1
 543 439 l 1,8,-1
 543 314 l 1,9,-1
 224 314 l 1,0,-1
EndSplineSet
EndChar

StartChar: G
Encoding: 71 71 42
Width: 778
GlyphClass: 2
Flags: W
AnchorPoint: "Anchor-5" 387 377 basechar 0
AnchorPoint: "Anchor-3" 397 730 basechar 0
AnchorPoint: "Anchor-2" 387 1 basechar 0
LayerCount: 2
Fore
SplineSet
570 498 m 1,0,1
 530 615 530 615 396 615 c 0,2,3
 301 615 301 615 246.5 548 c 128,-1,4
 192 481 192 481 192 363 c 0,5,6
 192 251 192 251 250.5 179 c 128,-1,7
 309 107 309 107 400 107 c 0,8,9
 414 107 414 107 432.5 110.5 c 128,-1,10
 451 114 451 114 477 124.5 c 128,-1,11
 503 135 503 135 525 152 c 128,-1,12
 547 169 547 169 564 199.5 c 128,-1,13
 581 230 581 230 585 269 c 1,14,-1
 419 269 l 1,15,-1
 419 394 l 1,16,-1
 711 394 l 1,17,-1
 711 0 l 1,18,-1
 621 0 l 1,19,-1
 603 96 l 1,20,21
 561 35 561 35 509 7 c 128,-1,22
 457 -21 457 -21 383 -21 c 0,23,24
 235 -21 235 -21 138.5 87 c 128,-1,25
 42 195 42 195 42 361 c 0,26,27
 42 531 42 531 140 637 c 128,-1,28
 238 743 238 743 395 743 c 0,29,30
 527 743 527 743 612 677 c 128,-1,31
 697 611 697 611 711 498 c 1,32,-1
 570 498 l 1,0,1
EndSplineSet
EndChar

StartChar: H
Encoding: 72 72 43
Width: 722
GlyphClass: 2
Flags: W
AnchorPoint: "Anchor-5" 357 377 basechar 0
AnchorPoint: "Anchor-3" 361 730 basechar 0
AnchorPoint: "Anchor-2" 360 1 basechar 0
LayerCount: 2
Fore
SplineSet
507 331 m 1,0,-1
 218 331 l 1,1,-1
 218 0 l 1,2,-1
 68 0 l 1,3,-1
 68 729 l 1,4,-1
 218 729 l 1,5,-1
 218 456 l 1,6,-1
 506 456 l 1,7,-1
 506 729 l 1,8,-1
 657 729 l 1,9,-1
 657 0 l 1,10,-1
 507 0 l 1,11,-1
 507 331 l 1,0,-1
EndSplineSet
EndChar

StartChar: I
Encoding: 73 73 44
Width: 278
GlyphClass: 2
Flags: W
AnchorPoint: "Anchor-5" 144 377 basechar 0
AnchorPoint: "Anchor-4" 180 0 basechar 0
AnchorPoint: "Anchor-3" 147 730 basechar 0
AnchorPoint: "Anchor-2" 142 0 basechar 0
LayerCount: 2
Fore
SplineSet
213 729 m 1,0,-1
 213 0 l 1,1,-1
 63 0 l 1,2,-1
 63 729 l 1,3,-1
 213 729 l 1,0,-1
EndSplineSet
EndChar

StartChar: J
Encoding: 74 74 45
Width: 556
GlyphClass: 2
Flags: W
AnchorPoint: "Anchor-5" 268 377 basechar 0
AnchorPoint: "Anchor-3" 411 730 basechar 0
AnchorPoint: "Anchor-2" 256 1 basechar 0
LayerCount: 2
Fore
SplineSet
252 -23 m 0,0,1
 211 -23 211 -23 173.5 -13 c 128,-1,2
 136 -3 136 -3 101 20.5 c 128,-1,3
 66 44 66 44 45 89.5 c 128,-1,4
 24 135 24 135 24 198 c 2,5,-1
 24 270 l 1,6,-1
 174 270 l 1,7,-1
 174 200 l 2,8,9
 174 150 174 150 193 127.5 c 128,-1,10
 212 105 212 105 255 105 c 0,11,12
 294 105 294 105 315 127 c 128,-1,13
 336 149 336 149 336 190 c 2,14,-1
 336 729 l 1,15,-1
 486 729 l 1,16,-1
 486 190 l 2,17,18
 486 88 486 88 425 32.5 c 128,-1,19
 364 -23 364 -23 252 -23 c 0,0,1
EndSplineSet
EndChar

StartChar: K
Encoding: 75 75 46
Width: 722
GlyphClass: 2
Flags: W
AnchorPoint: "Anchor-5" 308 377 basechar 0
AnchorPoint: "Anchor-3" 320 730 basechar 0
AnchorPoint: "Anchor-2" 326 1 basechar 0
LayerCount: 2
Fore
SplineSet
224 244 m 1,0,-1
 224 0 l 1,1,-1
 74 0 l 1,2,-1
 74 729 l 1,3,-1
 224 729 l 1,4,-1
 224 409 l 1,5,-1
 509 729 l 1,6,-1
 686 729 l 1,7,-1
 395 415 l 1,8,-1
 717 0 l 1,9,-1
 538 0 l 1,10,-1
 299 322 l 1,11,-1
 224 244 l 1,0,-1
EndSplineSet
EndChar

StartChar: L
Encoding: 76 76 47
Width: 611
GlyphClass: 2
Flags: W
AnchorPoint: "Anchor-5" 313 377 basechar 0
AnchorPoint: "Anchor-3" 320 730 basechar 0
AnchorPoint: "Anchor-2" 319 1 basechar 0
LayerCount: 2
Fore
SplineSet
230 729 m 1,0,-1
 230 125 l 1,1,-1
 579 125 l 1,2,-1
 579 0 l 1,3,-1
 80 0 l 1,4,-1
 80 729 l 1,5,-1
 230 729 l 1,0,-1
EndSplineSet
EndChar

StartChar: M
Encoding: 77 77 48
Width: 833
GlyphClass: 2
Flags: W
AnchorPoint: "Anchor-5" 423 377 basechar 0
AnchorPoint: "Anchor-3" 424 730 basechar 0
AnchorPoint: "Anchor-2" 424 1 basechar 0
LayerCount: 2
Fore
SplineSet
216 568 m 1,0,-1
 216 0 l 1,1,-1
 66 0 l 1,2,-1
 66 729 l 1,3,-1
 290 729 l 1,4,-1
 422 149 l 1,5,-1
 550 729 l 1,6,-1
 776 729 l 1,7,-1
 776 0 l 1,8,-1
 626 0 l 1,9,-1
 626 568 l 1,10,-1
 497 0 l 1,11,-1
 347 0 l 1,12,-1
 216 568 l 1,0,-1
EndSplineSet
EndChar

StartChar: N
Encoding: 78 78 49
Width: 722
GlyphClass: 2
Flags: W
AnchorPoint: "Anchor-5" 366 377 basechar 0
AnchorPoint: "Anchor-3" 365 730 basechar 0
AnchorPoint: "Anchor-2" 359 1 basechar 0
LayerCount: 2
Fore
SplineSet
511 0 m 1,0,-1
 218 504 l 1,1,-1
 218 0 l 1,2,-1
 68 0 l 1,3,-1
 68 729 l 1,4,-1
 222 729 l 1,5,-1
 511 233 l 1,6,-1
 511 729 l 1,7,-1
 661 729 l 1,8,-1
 661 0 l 1,9,-1
 511 0 l 1,0,-1
EndSplineSet
EndChar

StartChar: O
Encoding: 79 79 50
Width: 778
GlyphClass: 2
Flags: W
AnchorPoint: "Anchor-5" 388 377 basechar 0
AnchorPoint: "Anchor-4" 463 0 basechar 0
AnchorPoint: "Anchor-3" 391 730 basechar 0
AnchorPoint: "Anchor-2" 394 1 basechar 0
LayerCount: 2
Fore
SplineSet
40 359 m 128,-1,1
 40 527 40 527 136.5 634 c 128,-1,2
 233 741 233 741 390 741 c 0,3,4
 548 741 548 741 645 634.5 c 128,-1,5
 742 528 742 528 742 354 c 0,6,7
 742 192 742 192 646.5 84.5 c 128,-1,8
 551 -23 551 -23 391 -23 c 0,9,10
 232 -23 232 -23 136 84 c 128,-1,0
 40 191 40 191 40 359 c 128,-1,1
391 613 m 0,11,12
 300 613 300 613 245 543.5 c 128,-1,13
 190 474 190 474 190 359 c 128,-1,14
 190 244 190 244 245 174.5 c 128,-1,15
 300 105 300 105 391 105 c 0,16,17
 481 105 481 105 536.5 174 c 128,-1,18
 592 243 592 243 592 355 c 0,19,20
 592 473 592 473 537.5 543 c 128,-1,21
 483 613 483 613 391 613 c 0,11,12
EndSplineSet
EndChar

StartChar: P
Encoding: 80 80 51
Width: 667
GlyphClass: 2
Flags: W
AnchorPoint: "Anchor-5" 340 377 basechar 0
AnchorPoint: "Anchor-3" 343 730 basechar 0
AnchorPoint: "Anchor-2" 322 1 basechar 0
LayerCount: 2
Fore
SplineSet
226 260 m 1,0,-1
 226 0 l 1,1,-1
 76 0 l 1,2,-1
 76 729 l 1,3,-1
 398 729 l 2,4,5
 512 729 512 729 572.5 671 c 128,-1,6
 633 613 633 613 633 503 c 0,7,8
 633 392 633 392 573 326 c 128,-1,9
 513 260 513 260 413 260 c 2,10,-1
 226 260 l 1,0,-1
226 385 m 1,11,-1
 366 385 l 2,12,13
 483 385 483 385 483 494 c 0,14,15
 483 550 483 550 454.5 577 c 128,-1,16
 426 604 426 604 366 604 c 2,17,-1
 226 604 l 1,18,-1
 226 385 l 1,11,-1
EndSplineSet
EndChar

StartChar: Q
Encoding: 81 81 52
Width: 778
GlyphClass: 2
Flags: W
AnchorPoint: "Anchor-5" 389 377 basechar 0
AnchorPoint: "Anchor-3" 390 730 basechar 0
AnchorPoint: "Anchor-2" 395 1 basechar 0
LayerCount: 2
Fore
SplineSet
394 741 m 0,0,1
 553 741 553 741 649 633 c 128,-1,2
 745 525 745 525 745 361 c 0,3,4
 745 287 745 287 723.5 217.5 c 128,-1,5
 702 148 702 148 665 103 c 1,6,-1
 745 27 l 1,7,-1
 669 -54 l 1,8,-1
 583 27 l 1,9,10
 500 -23 500 -23 394 -23 c 0,11,12
 236 -23 236 -23 139.5 84.5 c 128,-1,13
 43 192 43 192 43 359 c 128,-1,14
 43 526 43 526 139.5 633.5 c 128,-1,15
 236 741 236 741 394 741 c 0,0,1
480 278 m 1,16,-1
 562 200 l 1,17,18
 595 266 595 266 595 358 c 0,19,20
 595 474 595 474 540.5 543.5 c 128,-1,21
 486 613 486 613 394 613 c 0,22,23
 303 613 303 613 248 543.5 c 128,-1,24
 193 474 193 474 193 359 c 128,-1,25
 193 244 193 244 248 174.5 c 128,-1,26
 303 105 303 105 393 105 c 0,27,28
 445 105 445 105 481 124 c 1,29,-1
 404 197 l 1,30,-1
 480 278 l 1,16,-1
EndSplineSet
EndChar

StartChar: R
Encoding: 82 82 53
Width: 722
GlyphClass: 2
Flags: W
AnchorPoint: "Anchor-5" 366 377 basechar 0
AnchorPoint: "Anchor-3" 371 730 basechar 0
AnchorPoint: "Anchor-2" 356 1 basechar 0
LayerCount: 2
Fore
SplineSet
493 125 m 0,0,1
 493 155 493 155 494 172 c 128,-1,2
 495 189 495 189 495 202 c 0,3,4
 495 248 495 248 473 268.5 c 128,-1,5
 451 289 451 289 402 289 c 2,6,-1
 230 289 l 1,7,-1
 230 0 l 1,8,-1
 80 0 l 1,9,-1
 80 729 l 1,10,-1
 471 729 l 2,11,12
 527 729 527 729 567.5 710 c 128,-1,13
 608 691 608 691 628.5 660 c 128,-1,14
 649 629 649 629 658 597.5 c 128,-1,15
 667 566 667 566 667 532 c 0,16,17
 667 400 667 400 544 352 c 1,18,19
 571 341 571 341 584 334.5 c 128,-1,20
 597 328 597 328 610.5 313 c 128,-1,21
 624 298 624 298 628.5 286 c 128,-1,22
 633 274 633 274 637.5 242 c 128,-1,23
 642 210 642 210 643 179 c 128,-1,24
 644 148 644 148 645 87 c 0,25,26
 645 45 645 45 677 27 c 1,27,-1
 677 0 l 1,28,-1
 516 0 l 1,29,30
 502 26 502 26 497.5 50 c 128,-1,31
 493 74 493 74 493 125 c 0,0,1
517 511 m 0,32,33
 517 567 517 567 491 585.5 c 128,-1,34
 465 604 465 604 411 604 c 2,35,-1
 230 604 l 1,36,-1
 230 414 l 1,37,-1
 411 414 l 2,38,39
 464 414 464 414 490.5 433 c 128,-1,40
 517 452 517 452 517 511 c 0,32,33
EndSplineSet
EndChar

StartChar: S
Encoding: 83 83 54
Width: 667
GlyphClass: 2
Flags: W
AnchorPoint: "Anchor-5" 328 377 basechar 0
AnchorPoint: "Anchor-3" 320 730 basechar 0
AnchorPoint: "Anchor-2" 338 1 basechar 0
LayerCount: 2
Fore
SplineSet
607 507 m 1,0,-1
 467 507 l 1,1,2
 459 621 459 621 314 621 c 0,3,4
 256 621 256 621 222 596.5 c 128,-1,5
 188 572 188 572 188 531 c 0,6,7
 188 491 188 491 217 471.5 c 128,-1,8
 246 452 246 452 326 436 c 2,9,-1
 440 414 l 2,10,11
 541 394 541 394 587 346.5 c 128,-1,12
 633 299 633 299 633 213 c 0,13,14
 633 102 633 102 554 39.5 c 128,-1,15
 475 -23 475 -23 334 -23 c 0,16,17
 194 -23 194 -23 116.5 39 c 128,-1,18
 39 101 39 101 32 218 c 1,19,-1
 178 218 l 1,20,21
 182 159 182 159 224 128 c 128,-1,22
 266 97 266 97 342 97 c 0,23,24
 410 97 410 97 449.5 123 c 128,-1,25
 489 149 489 149 489 195 c 0,26,27
 489 239 489 239 458 263 c 128,-1,28
 427 287 427 287 352 301 c 2,29,-1
 250 321 l 2,30,31
 139 342 139 342 92 387 c 128,-1,32
 45 432 45 432 45 517 c 0,33,34
 45 624 45 624 117.5 682.5 c 128,-1,35
 190 741 190 741 321 741 c 0,36,37
 359 741 359 741 394.5 736 c 128,-1,38
 430 731 430 731 470 715.5 c 128,-1,39
 510 700 510 700 539 675.5 c 128,-1,40
 568 651 568 651 587.5 607.5 c 128,-1,41
 607 564 607 564 607 507 c 1,0,-1
EndSplineSet
EndChar

StartChar: T
Encoding: 84 84 55
Width: 611
GlyphClass: 2
Flags: W
AnchorPoint: "Anchor-5" 309 377 basechar 0
AnchorPoint: "Anchor-3" 312 730 basechar 0
AnchorPoint: "Anchor-2" 309 1 basechar 0
LayerCount: 2
Fore
SplineSet
385 604 m 1,0,-1
 385 0 l 1,1,-1
 235 0 l 1,2,-1
 235 604 l 1,3,-1
 14 604 l 1,4,-1
 14 729 l 1,5,-1
 598 729 l 1,6,-1
 598 604 l 1,7,-1
 385 604 l 1,0,-1
EndSplineSet
EndChar

StartChar: U
Encoding: 85 85 56
Width: 722
GlyphClass: 2
Flags: W
AnchorPoint: "Anchor-5" 366 377 basechar 0
AnchorPoint: "Anchor-4" 451 0 basechar 0
AnchorPoint: "Anchor-3" 362 730 basechar 0
AnchorPoint: "Anchor-2" 370 1 basechar 0
LayerCount: 2
Fore
SplineSet
365 -23 m 128,-1,1
 325 -23 325 -23 287.5 -16 c 128,-1,2
 250 -9 250 -9 210.5 9 c 128,-1,3
 171 27 171 27 142 55 c 128,-1,4
 113 83 113 83 94.5 129.5 c 128,-1,5
 76 176 76 176 76 235 c 2,6,-1
 76 729 l 1,7,-1
 226 729 l 1,8,-1
 226 235 l 2,9,10
 226 105 226 105 365 105 c 128,-1,11
 504 105 504 105 504 235 c 2,12,-1
 504 729 l 1,13,-1
 654 729 l 1,14,-1
 654 235 l 2,15,16
 654 176 654 176 635.5 129.5 c 128,-1,17
 617 83 617 83 588 55 c 128,-1,18
 559 27 559 27 519.5 9 c 128,-1,19
 480 -9 480 -9 442.5 -16 c 128,-1,0
 405 -23 405 -23 365 -23 c 128,-1,1
EndSplineSet
EndChar

StartChar: V
Encoding: 86 86 57
Width: 667
GlyphClass: 2
Flags: W
AnchorPoint: "Anchor-5" 335 377 basechar 0
AnchorPoint: "Anchor-3" 341 730 basechar 0
AnchorPoint: "Anchor-2" 332 1 basechar 0
LayerCount: 2
Fore
SplineSet
397 0 m 1,0,-1
 270 0 l 1,1,-1
 24 729 l 1,2,-1
 175 729 l 1,3,-1
 337 180 l 1,4,-1
 496 729 l 1,5,-1
 647 729 l 1,6,-1
 397 0 l 1,0,-1
EndSplineSet
EndChar

StartChar: W
Encoding: 87 87 58
Width: 944
GlyphClass: 2
Flags: W
AnchorPoint: "Anchor-5" 470 377 basechar 0
AnchorPoint: "Anchor-3" 468 730 basechar 0
AnchorPoint: "Anchor-2" 472 1 basechar 0
LayerCount: 2
Fore
SplineSet
730 0 m 1,0,-1
 595 0 l 1,1,-1
 473 569 l 1,2,-1
 354 0 l 1,3,-1
 219 0 l 1,4,-1
 13 729 l 1,5,-1
 172 729 l 1,6,-1
 285 183 l 1,7,-1
 398 729 l 1,8,-1
 546 729 l 1,9,-1
 664 182 l 1,10,-1
 773 729 l 1,11,-1
 932 729 l 1,12,-1
 730 0 l 1,0,-1
EndSplineSet
EndChar

StartChar: X
Encoding: 88 88 59
Width: 667
GlyphClass: 2
Flags: W
AnchorPoint: "Anchor-5" 339 377 basechar 0
AnchorPoint: "Anchor-3" 344 730 basechar 0
AnchorPoint: "Anchor-2" 337 1 basechar 0
LayerCount: 2
Fore
SplineSet
419 372 m 1,0,-1
 653 0 l 1,1,-1
 475 0 l 1,2,-1
 335 253 l 1,3,-1
 196 0 l 1,4,-1
 22 0 l 1,5,-1
 252 367 l 1,6,-1
 30 729 l 1,7,-1
 208 729 l 1,8,-1
 336 489 l 1,9,-1
 470 729 l 1,10,-1
 644 729 l 1,11,-1
 419 372 l 1,0,-1
EndSplineSet
EndChar

StartChar: Y
Encoding: 89 89 60
Width: 667
GlyphClass: 2
Flags: W
AnchorPoint: "Anchor-5" 341 377 basechar 0
AnchorPoint: "Anchor-4" 387 0 basechar 0
AnchorPoint: "Anchor-3" 342 730 basechar 0
AnchorPoint: "Anchor-2" 347 1 basechar 0
LayerCount: 2
Fore
SplineSet
419 270 m 1,0,-1
 419 0 l 1,1,-1
 269 0 l 1,2,-1
 269 270 l 1,3,-1
 27 729 l 1,4,-1
 194 729 l 1,5,-1
 343 407 l 1,6,-1
 482 729 l 1,7,-1
 650 729 l 1,8,-1
 419 270 l 1,0,-1
EndSplineSet
EndChar

StartChar: Z
Encoding: 90 90 61
Width: 611
GlyphClass: 2
Flags: W
AnchorPoint: "Anchor-5" 317 377 basechar 0
AnchorPoint: "Anchor-3" 320 730 basechar 0
AnchorPoint: "Anchor-2" 301 1 basechar 0
LayerCount: 2
Fore
SplineSet
578 729 m 1,0,-1
 578 604 l 1,1,-1
 206 125 l 1,2,-1
 578 125 l 1,3,-1
 578 0 l 1,4,-1
 30 0 l 1,5,-1
 30 125 l 1,6,-1
 403 604 l 1,7,-1
 30 604 l 1,8,-1
 30 729 l 1,9,-1
 578 729 l 1,0,-1
EndSplineSet
EndChar

StartChar: bracketleft
Encoding: 91 91 62
Width: 333
GlyphClass: 2
Flags: W
LayerCount: 2
Fore
SplineSet
308 729 m 1,0,-1
 308 627 l 1,1,-1
 196 627 l 1,2,-1
 196 -98 l 1,3,-1
 308 -98 l 1,4,-1
 308 -200 l 1,5,-1
 66 -200 l 1,6,-1
 66 729 l 1,7,-1
 308 729 l 1,0,-1
EndSplineSet
EndChar

StartChar: backslash
Encoding: 92 92 63
Width: 278
GlyphClass: 2
Flags: W
LayerCount: 2
Fore
SplineSet
55 714 m 1,0,-1
 289 -14 l 1,1,-1
 222 -14 l 1,2,-1
 -12 714 l 1,3,-1
 55 714 l 1,0,-1
EndSplineSet
EndChar

StartChar: bracketright
Encoding: 93 93 64
Width: 333
GlyphClass: 2
Flags: W
LayerCount: 2
Fore
SplineSet
18 -200 m 1,0,-1
 18 -98 l 1,1,-1
 130 -98 l 1,2,-1
 130 627 l 1,3,-1
 18 627 l 1,4,-1
 18 729 l 1,5,-1
 260 729 l 1,6,-1
 260 -200 l 1,7,-1
 18 -200 l 1,0,-1
EndSplineSet
EndChar

StartChar: asciicircum
Encoding: 94 94 65
Width: 584
GlyphClass: 2
Flags: W
LayerCount: 2
Fore
SplineSet
522 270 m 1,0,-1
 409 270 l 1,1,-1
 288 570 l 1,2,-1
 173 270 l 1,3,-1
 61 270 l 1,4,-1
 226 695 l 1,5,-1
 351 695 l 1,6,-1
 522 270 l 1,0,-1
EndSplineSet
EndChar

StartChar: underscore
Encoding: 95 95 66
Width: 556
GlyphClass: 2
Flags: W
LayerCount: 2
Fore
SplineSet
578 -126 m 1,0,-1
 578 -195 l 1,1,-1
 -22 -195 l 1,2,-1
 -22 -126 l 1,3,-1
 578 -126 l 1,0,-1
EndSplineSet
EndChar

StartChar: grave
Encoding: 96 96 67
Width: 333
GlyphClass: 2
Flags: W
LayerCount: 2
Fore
SplineSet
17 757 m 1,0,-1
 143 757 l 1,1,-1
 213 607 l 1,2,-1
 143 607 l 1,3,-1
 17 757 l 1,0,-1
EndSplineSet
EndChar

StartChar: a
Encoding: 97 97 68
Width: 556
GlyphClass: 2
Flags: W
AnchorPoint: "Anchor-5" 273 293 basechar 0
AnchorPoint: "Anchor-4" 451 0 basechar 0 {150-150 2} {}
AnchorPoint: "Anchor-3" 274 550 basechar 0
AnchorPoint: "Anchor-2" 254 1 basechar 0
LayerCount: 2
Fore
SplineSet
192 -23 m 0,0,1
 118 -23 118 -23 73 21.5 c 128,-1,2
 28 66 28 66 28 139 c 0,3,4
 28 282 28 282 187 309 c 2,5,-1
 243 319 l 2,6,7
 260 320 260 320 280 324 c 128,-1,8
 300 328 300 328 316.5 333 c 128,-1,9
 333 338 333 338 344 350.5 c 128,-1,10
 355 363 355 363 355 382 c 0,11,12
 355 436 355 436 274 436 c 0,13,14
 222 436 222 436 201 420 c 128,-1,15
 180 404 180 404 175 362 c 1,16,-1
 40 362 l 1,17,18
 53 549 53 549 271 549 c 0,19,20
 492 549 492 549 492 383 c 2,21,-1
 492 83 l 2,22,23
 492 46 492 46 524 17 c 1,24,-1
 524 0 l 1,25,-1
 372 0 l 1,26,27
 356 20 356 20 356 54 c 1,28,29
 282 -23 282 -23 192 -23 c 0,0,1
355 217 m 2,30,-1
 355 255 l 1,31,32
 336 246 336 246 296 238 c 2,33,-1
 248 229 l 2,34,35
 204 220 204 220 186 203 c 128,-1,36
 168 186 168 186 168 155 c 0,37,38
 168 125 168 125 188.5 107.5 c 128,-1,39
 209 90 209 90 244 90 c 0,40,41
 297 90 297 90 326 123 c 128,-1,42
 355 156 355 156 355 217 c 2,30,-1
EndSplineSet
EndChar

StartChar: b
Encoding: 98 98 69
Width: 611
GlyphClass: 2
Flags: W
AnchorPoint: "Anchor-5" 322 293 basechar 0
AnchorPoint: "Anchor-3" 320 730 basechar 0
AnchorPoint: "Anchor-2" 324 1 basechar 0
LayerCount: 2
Fore
SplineSet
348 549 m 0,0,1
 445 549 445 549 510 468.5 c 128,-1,2
 575 388 575 388 575 263 c 0,3,4
 575 141 575 141 510 59 c 128,-1,5
 445 -23 445 -23 348 -23 c 0,6,7
 249 -23 249 -23 199 55 c 1,8,-1
 199 0 l 1,9,-1
 59 0 l 1,10,-1
 59 729 l 1,11,-1
 199 729 l 1,12,-1
 199 470 l 1,13,14
 249 549 249 549 348 549 c 0,0,1
317 432 m 128,-1,16
 265 432 265 432 232 385.5 c 128,-1,17
 199 339 199 339 199 265 c 0,18,19
 199 188 199 188 231.5 141 c 128,-1,20
 264 94 264 94 317 94 c 0,21,22
 369 94 369 94 402 141 c 128,-1,23
 435 188 435 188 435 262 c 0,24,25
 435 337 435 337 402 384.5 c 128,-1,15
 369 432 369 432 317 432 c 128,-1,16
EndSplineSet
EndChar

StartChar: c
Encoding: 99 99 70
Width: 556
GlyphClass: 2
Flags: W
AnchorPoint: "Anchor-5" 286 293 basechar 0
AnchorPoint: "Anchor-3" 289 550 basechar 0
AnchorPoint: "Anchor-2" 289 1 basechar 0
LayerCount: 2
Fore
SplineSet
288 436 m 0,0,1
 174 436 174 436 174 259 c 0,2,3
 174 180 174 180 204.5 135 c 128,-1,4
 235 90 235 90 288 90 c 0,5,6
 329 90 329 90 352 112.5 c 128,-1,7
 375 135 375 135 388 187 c 1,8,-1
 522 187 l 1,9,10
 512 90 512 90 448.5 33.5 c 128,-1,11
 385 -23 385 -23 287 -23 c 0,12,13
 167 -23 167 -23 100.5 51 c 128,-1,14
 34 125 34 125 34 259 c 0,15,16
 34 397 34 397 101 473 c 128,-1,17
 168 549 168 549 289 549 c 0,18,19
 390 549 390 549 452.5 493 c 128,-1,20
 515 437 515 437 522 338 c 1,21,-1
 388 338 l 1,22,23
 376 391 376 391 353.5 413.5 c 128,-1,24
 331 436 331 436 288 436 c 0,0,1
EndSplineSet
EndChar

StartChar: d
Encoding: 100 100 71
Width: 611
GlyphClass: 2
Flags: W
AnchorPoint: "Anchor-5" 283 293 basechar 0
AnchorPoint: "Anchor-3" 288 730 basechar 0
AnchorPoint: "Anchor-2" 271 1 basechar 0
LayerCount: 2
Fore
SplineSet
256 -23 m 0,0,1
 156 -23 156 -23 92.5 59 c 128,-1,2
 29 141 29 141 29 262 c 0,3,4
 29 384 29 384 94 466.5 c 128,-1,5
 159 549 159 549 256 549 c 0,6,7
 354 549 354 549 405 470 c 1,8,-1
 405 729 l 1,9,-1
 545 729 l 1,10,-1
 545 0 l 1,11,-1
 405 0 l 1,12,-1
 405 55 l 1,13,14
 353 -23 353 -23 256 -23 c 0,0,1
287 432 m 0,15,16
 235 432 235 432 202 384.5 c 128,-1,17
 169 337 169 337 169 262 c 0,18,19
 169 188 169 188 202 141 c 128,-1,20
 235 94 235 94 287 94 c 128,-1,21
 339 94 339 94 372 140 c 128,-1,22
 405 186 405 186 405 260 c 0,23,24
 405 337 405 337 372.5 384.5 c 128,-1,25
 340 432 340 432 287 432 c 0,15,16
EndSplineSet
EndChar

StartChar: e
Encoding: 101 101 72
Width: 556
GlyphClass: 2
Flags: W
AnchorPoint: "Anchor-5" 273 293 basechar 0
AnchorPoint: "Anchor-4" 337 0 basechar 0
AnchorPoint: "Anchor-3" 274 550 basechar 0
AnchorPoint: "Anchor-2" 274 1 basechar 0
LayerCount: 2
Fore
SplineSet
272 549 m 0,0,1
 307 549 307 549 340 541 c 128,-1,2
 373 533 373 533 407.5 512 c 128,-1,3
 442 491 442 491 467.5 458.5 c 128,-1,4
 493 426 493 426 509 372.5 c 128,-1,5
 525 319 525 319 525 250 c 0,6,7
 525 238 525 238 524 226 c 1,8,-1
 162 226 l 1,9,10
 163 195 163 195 167.5 172.5 c 128,-1,11
 172 150 172 150 183.5 128.5 c 128,-1,12
 195 107 195 107 217.5 95.5 c 128,-1,13
 240 84 240 84 274 84 c 0,14,15
 354 84 354 84 381 152 c 1,16,-1
 519 152 l 1,17,18
 496 72 496 72 428 24.5 c 128,-1,19
 360 -23 360 -23 269 -23 c 0,20,21
 154 -23 154 -23 88 51.5 c 128,-1,22
 22 126 22 126 22 256 c 0,23,24
 22 392 22 392 89 470.5 c 128,-1,25
 156 549 156 549 272 549 c 0,0,1
379 319 m 1,26,27
 374 378 374 378 346.5 410 c 128,-1,28
 319 442 319 442 270 442 c 0,29,30
 178 442 178 442 164 319 c 1,31,-1
 379 319 l 1,26,27
EndSplineSet
EndChar

StartChar: f
Encoding: 102 102 73
Width: 333
GlyphClass: 2
Flags: W
AnchorPoint: "Anchor-5" 165 293 basechar 0
AnchorPoint: "Anchor-3" 229 730 basechar 0
AnchorPoint: "Anchor-2" 161 1 basechar 0
LayerCount: 2
Fore
SplineSet
313 529 m 1,0,-1
 313 436 l 1,1,-1
 230 436 l 1,2,-1
 230 0 l 1,3,-1
 90 0 l 1,4,-1
 90 436 l 1,5,-1
 14 436 l 1,6,-1
 14 529 l 1,7,-1
 90 529 l 1,8,-1
 90 594 l 2,9,10
 90 729 90 729 228 729 c 0,11,12
 269 729 269 729 308 726 c 1,13,-1
 308 621 l 1,14,15
 290 624 290 624 268 624 c 0,16,17
 230 624 230 624 230 582 c 2,18,-1
 230 529 l 1,19,-1
 313 529 l 1,0,-1
EndSplineSet
EndChar

StartChar: g
Encoding: 103 103 74
Width: 611
GlyphClass: 2
Flags: W
AnchorPoint: "Anchor-5" 286 293 basechar 0
AnchorPoint: "Anchor-3" 279 550 basechar 0
LayerCount: 2
Fore
SplineSet
408 540 m 1,0,-1
 541 540 l 1,1,-1
 541 -18 l 2,2,3
 541 -113 541 -113 473.5 -165.5 c 128,-1,4
 406 -218 406 -218 284 -218 c 0,5,6
 176 -218 176 -218 111 -176.5 c 128,-1,7
 46 -135 46 -135 45 -65 c 1,8,-1
 190 -65 l 1,9,10
 207 -128 207 -128 289 -128 c 0,11,12
 342 -128 342 -128 375 -97.5 c 128,-1,13
 408 -67 408 -67 408 -18 c 2,14,-1
 408 55 l 1,15,16
 369 11 369 11 335.5 -6 c 128,-1,17
 302 -23 302 -23 255 -23 c 0,18,19
 155 -23 155 -23 94.5 54 c 128,-1,20
 34 131 34 131 34 257 c 0,21,22
 34 382 34 382 98 465.5 c 128,-1,23
 162 549 162 549 258 549 c 0,24,25
 348 549 348 549 408 457 c 1,26,-1
 408 540 l 1,0,-1
288 432 m 0,27,28
 237 432 237 432 205.5 384 c 128,-1,29
 174 336 174 336 174 259 c 0,30,31
 174 186 174 186 205 140 c 128,-1,32
 236 94 236 94 286 94 c 0,33,34
 341 94 341 94 375.5 140 c 128,-1,35
 410 186 410 186 410 259 c 0,36,37
 410 334 410 334 375.5 383 c 128,-1,38
 341 432 341 432 288 432 c 0,27,28
EndSplineSet
EndChar

StartChar: h
Encoding: 104 104 75
Width: 611
GlyphClass: 2
Flags: W
AnchorPoint: "Anchor-5" 305 293 basechar 0
AnchorPoint: "Anchor-3" 320 730 basechar 0
AnchorPoint: "Anchor-2" 304 1 basechar 0
LayerCount: 2
Fore
SplineSet
401 330 m 2,0,1
 401 430 401 430 315 430 c 0,2,3
 268 430 268 430 237.5 400 c 128,-1,4
 207 370 207 370 207 324 c 2,5,-1
 207 0 l 1,6,-1
 67 0 l 1,7,-1
 67 729 l 1,8,-1
 207 729 l 1,9,-1
 207 462 l 1,10,11
 265 549 265 549 365 549 c 0,12,13
 397 549 397 549 425.5 540.5 c 128,-1,14
 454 532 454 532 481.5 512.5 c 128,-1,15
 509 493 509 493 525 454 c 128,-1,16
 541 415 541 415 541 362 c 2,17,-1
 541 0 l 1,18,-1
 401 0 l 1,19,-1
 401 330 l 2,0,1
EndSplineSet
EndChar

StartChar: i
Encoding: 105 105 76
Width: 278
GlyphClass: 2
Flags: W
AnchorPoint: "Anchor-5" 137 293 basechar 0
AnchorPoint: "Anchor-4" 164 0 basechar 0
AnchorPoint: "Anchor-3" 138 730 basechar 0
AnchorPoint: "Anchor-2" 134 1 basechar 0
LayerCount: 2
Fore
SplineSet
207 540 m 1,0,-1
 207 0 l 1,1,-1
 67 0 l 1,2,-1
 67 540 l 1,3,-1
 207 540 l 1,0,-1
207 729 m 1,4,-1
 207 604 l 1,5,-1
 67 604 l 1,6,-1
 67 729 l 1,7,-1
 207 729 l 1,4,-1
EndSplineSet
EndChar

StartChar: j
Encoding: 106 106 77
Width: 278
GlyphClass: 2
Flags: W
AnchorPoint: "Anchor-5" 138 293 basechar 0
AnchorPoint: "Anchor-3" 142 730 basechar 0
LayerCount: 2
Fore
SplineSet
210 540 m 1,0,-1
 210 -94 l 2,1,2
 210 -160 210 -160 181 -189 c 128,-1,3
 152 -218 152 -218 87 -218 c 0,4,5
 51 -218 51 -218 4 -213 c 1,6,-1
 4 -101 l 1,7,8
 17 -105 17 -105 29 -105 c 0,9,10
 52 -105 52 -105 61 -95.5 c 128,-1,11
 70 -86 70 -86 70 -63 c 2,12,-1
 70 540 l 1,13,-1
 210 540 l 1,0,-1
210 729 m 1,14,-1
 210 604 l 1,15,-1
 70 604 l 1,16,-1
 70 729 l 1,17,-1
 210 729 l 1,14,-1
EndSplineSet
EndChar

StartChar: k
Encoding: 107 107 78
Width: 556
GlyphClass: 2
Flags: W
AnchorPoint: "Anchor-5" 256 293 basechar 0
AnchorPoint: "Anchor-3" 298 730 basechar 0
AnchorPoint: "Anchor-2" 273 1 basechar 0
LayerCount: 2
Fore
SplineSet
199 330 m 1,0,-1
 376 540 l 1,1,-1
 535 540 l 1,2,-1
 351 336 l 1,3,-1
 548 0 l 1,4,-1
 384 0 l 1,5,-1
 255 238 l 1,6,-1
 199 177 l 1,7,-1
 199 0 l 1,8,-1
 59 0 l 1,9,-1
 59 729 l 1,10,-1
 199 729 l 1,11,-1
 199 330 l 1,0,-1
EndSplineSet
EndChar

StartChar: l
Encoding: 108 108 79
Width: 278
GlyphClass: 2
Flags: W
AnchorPoint: "Anchor-5" 138 293 basechar 0
AnchorPoint: "Anchor-3" 143 730 basechar 0
AnchorPoint: "Anchor-2" 134 1 basechar 0
LayerCount: 2
Fore
SplineSet
207 729 m 1,0,-1
 207 0 l 1,1,-1
 67 0 l 1,2,-1
 67 729 l 1,3,-1
 207 729 l 1,0,-1
EndSplineSet
EndChar

StartChar: m
Encoding: 109 109 80
Width: 889
GlyphClass: 2
Flags: W
AnchorPoint: "Anchor-5" 445 293 basechar 0
AnchorPoint: "Anchor-3" 441 550 basechar 0
AnchorPoint: "Anchor-2" 445 1 basechar 0
LayerCount: 2
Fore
SplineSet
60 540 m 1,0,-1
 199 540 l 1,1,-1
 199 473 l 1,2,3
 234 514 234 514 267.5 531.5 c 128,-1,4
 301 549 301 549 347 549 c 0,5,6
 453 549 453 549 494 469 c 1,7,8
 554 549 554 549 652 549 c 0,9,10
 733 549 733 549 778.5 505 c 128,-1,11
 824 461 824 461 824 382 c 2,12,-1
 824 0 l 1,13,-1
 684 0 l 1,14,-1
 684 360 l 2,15,16
 684 392 684 392 663.5 411 c 128,-1,17
 643 430 643 430 608 430 c 0,18,19
 563 430 563 430 537.5 402 c 128,-1,20
 512 374 512 374 512 324 c 2,21,-1
 512 0 l 1,22,-1
 372 0 l 1,23,-1
 372 360 l 2,24,25
 372 392 372 392 351.5 411 c 128,-1,26
 331 430 331 430 296 430 c 0,27,28
 251 430 251 430 225.5 402 c 128,-1,29
 200 374 200 374 200 324 c 2,30,-1
 200 0 l 1,31,-1
 60 0 l 1,32,-1
 60 540 l 1,0,-1
EndSplineSet
EndChar

StartChar: n
Encoding: 110 110 81
Width: 611
GlyphClass: 2
Flags: W
AnchorPoint: "Anchor-5" 307 293 basechar 0
AnchorPoint: "Anchor-3" 333 550 basechar 0
AnchorPoint: "Anchor-2" 302 1 basechar 0
LayerCount: 2
Fore
SplineSet
63 540 m 1,0,-1
 203 540 l 1,1,-1
 203 462 l 1,2,3
 261 549 261 549 365 549 c 0,4,5
 451 549 451 549 498.5 500 c 128,-1,6
 546 451 546 451 546 362 c 2,7,-1
 546 0 l 1,8,-1
 406 0 l 1,9,-1
 406 333 l 2,10,11
 406 430 406 430 316 430 c 0,12,13
 265 430 265 430 234 401 c 128,-1,14
 203 372 203 372 203 324 c 2,15,-1
 203 0 l 1,16,-1
 63 0 l 1,17,-1
 63 540 l 1,0,-1
EndSplineSet
EndChar

StartChar: o
Encoding: 111 111 82
Width: 611
GlyphClass: 2
Flags: W
AnchorPoint: "Anchor-5" 300 293 basechar 0
AnchorPoint: "Anchor-4" 379 0 basechar 0
AnchorPoint: "Anchor-3" 305 550 basechar 0
AnchorPoint: "Anchor-2" 307 1 basechar 0
LayerCount: 2
Fore
SplineSet
301 549 m 0,0,1
 428 549 428 549 498.5 472.5 c 128,-1,2
 569 396 569 396 569 259 c 0,3,4
 569 129 569 129 497 53 c 128,-1,5
 425 -23 425 -23 302 -23 c 0,6,7
 177 -23 177 -23 106 53.5 c 128,-1,8
 35 130 35 130 35 263 c 128,-1,9
 35 396 35 396 106 472.5 c 128,-1,10
 177 549 177 549 301 549 c 0,0,1
302 436 m 0,11,12
 245 436 245 436 210 388 c 128,-1,13
 175 340 175 340 175 263 c 128,-1,14
 175 186 175 186 210 138 c 128,-1,15
 245 90 245 90 302 90 c 0,16,17
 358 90 358 90 393.5 137.5 c 128,-1,18
 429 185 429 185 429 261 c 0,19,20
 429 341 429 341 394.5 388.5 c 128,-1,21
 360 436 360 436 302 436 c 0,11,12
EndSplineSet
EndChar

StartChar: p
Encoding: 112 112 83
Width: 611
GlyphClass: 2
Flags: W
AnchorPoint: "Anchor-5" 315 293 basechar 0
AnchorPoint: "Anchor-3" 314 550 basechar 0
AnchorPoint: "Anchor-2" 355 1 basechar 0
LayerCount: 2
Fore
SplineSet
348 549 m 0,0,1
 450 549 450 549 512 467 c 128,-1,2
 574 385 574 385 574 262 c 128,-1,3
 574 139 574 139 509.5 57.5 c 128,-1,4
 445 -24 445 -24 348 -24 c 0,5,6
 248 -24 248 -24 198 64 c 1,7,-1
 198 -218 l 1,8,-1
 58 -218 l 1,9,-1
 58 540 l 1,10,-1
 198 540 l 1,11,-1
 198 460 l 1,12,13
 248 549 248 549 348 549 c 0,0,1
316 432 m 128,-1,15
 263 432 263 432 230.5 385 c 128,-1,16
 198 338 198 338 198 262 c 128,-1,17
 198 186 198 186 230.5 139.5 c 128,-1,18
 263 93 263 93 316 93 c 0,19,20
 368 93 368 93 401 140 c 128,-1,21
 434 187 434 187 434 260 c 0,22,23
 434 337 434 337 401.5 384.5 c 128,-1,14
 369 432 369 432 316 432 c 128,-1,15
EndSplineSet
EndChar

StartChar: q
Encoding: 113 113 84
Width: 611
GlyphClass: 2
Flags: W
AnchorPoint: "Anchor-5" 273 293 basechar 0
AnchorPoint: "Anchor-3" 266 550 basechar 0
LayerCount: 2
Fore
SplineSet
253 -24 m 0,0,1
 153 -24 153 -24 90.5 57 c 128,-1,2
 28 138 28 138 28 262 c 128,-1,3
 28 386 28 386 92.5 467.5 c 128,-1,4
 157 549 157 549 254 549 c 0,5,6
 354 549 354 549 404 460 c 1,7,-1
 404 540 l 1,8,-1
 544 540 l 1,9,-1
 544 -218 l 1,10,-1
 404 -218 l 1,11,-1
 404 64 l 1,12,13
 355 -24 355 -24 253 -24 c 0,0,1
286 432 m 128,-1,15
 233 432 233 432 200.5 385 c 128,-1,16
 168 338 168 338 168 262 c 128,-1,17
 168 186 168 186 200.5 139.5 c 128,-1,18
 233 93 233 93 286 93 c 0,19,20
 338 93 338 93 371 139 c 128,-1,21
 404 185 404 185 404 259 c 0,22,23
 404 338 404 338 371.5 385 c 128,-1,14
 339 432 339 432 286 432 c 128,-1,15
EndSplineSet
EndChar

StartChar: r
Encoding: 114 114 85
Width: 389
GlyphClass: 2
Flags: W
AnchorPoint: "Anchor-5" 132 293 basechar 0
AnchorPoint: "Anchor-3" 221 550 basechar 0
AnchorPoint: "Anchor-2" 135 1 basechar 0
LayerCount: 2
Fore
SplineSet
63 540 m 1,0,-1
 203 540 l 1,1,-1
 203 434 l 1,2,3
 225 489 225 489 265 519 c 128,-1,4
 305 549 305 549 353 549 c 0,5,6
 362 549 362 549 370 548 c 1,7,-1
 370 406 l 1,8,9
 345 410 345 410 326 410 c 0,10,11
 203 410 203 410 203 287 c 2,12,-1
 203 0 l 1,13,-1
 63 0 l 1,14,-1
 63 540 l 1,0,-1
EndSplineSet
EndChar

StartChar: s
Encoding: 115 115 86
Width: 556
GlyphClass: 2
Flags: W
AnchorPoint: "Anchor-5" 279 293 basechar 0
AnchorPoint: "Anchor-3" 272 550 basechar 0
AnchorPoint: "Anchor-2" 289 1 basechar 0
LayerCount: 2
Fore
SplineSet
166 157 m 1,0,1
 173 123 173 123 194.5 105 c 128,-1,2
 216 87 216 87 276 87 c 0,3,4
 325 87 325 87 352.5 101 c 128,-1,5
 380 115 380 115 380 140 c 0,6,7
 380 156 380 156 369.5 166 c 128,-1,8
 359 176 359 176 333 184 c 2,9,-1
 166 236 l 1,10,11
 154 237 154 237 134.5 246 c 128,-1,12
 115 255 115 255 95.5 266.5 c 128,-1,13
 76 278 76 278 62 305 c 128,-1,14
 48 332 48 332 48 369 c 0,15,16
 48 452 48 452 107.5 500.5 c 128,-1,17
 167 549 167 549 270 549 c 0,18,19
 379 549 379 549 441 500.5 c 128,-1,20
 503 452 503 452 505 366 c 1,21,-1
 370 366 l 1,22,23
 369 439 369 439 269 439 c 0,24,25
 232 439 232 439 210 425.5 c 128,-1,26
 188 412 188 412 188 389 c 0,27,28
 188 373 188 373 198 364.5 c 128,-1,29
 208 356 208 356 237 347 c 2,30,-1
 414 296 l 2,31,32
 520 265 520 265 520 160 c 0,33,34
 520 129 520 129 509 99.5 c 128,-1,35
 498 70 498 70 473.5 41 c 128,-1,36
 449 12 449 12 400 -5.5 c 128,-1,37
 351 -23 351 -23 284 -23 c 0,38,39
 35 -23 35 -23 29 157 c 1,40,-1
 166 157 l 1,0,1
EndSplineSet
EndChar

StartChar: t
Encoding: 116 116 87
Width: 333
GlyphClass: 2
Flags: W
AnchorPoint: "Anchor-5" 153 293 basechar 0
AnchorPoint: "Anchor-3" 155 674 basechar 0
AnchorPoint: "Anchor-2" 209 1 basechar 0
LayerCount: 2
Fore
SplineSet
301 529 m 1,0,-1
 301 436 l 1,1,-1
 223 436 l 1,2,-1
 223 142 l 2,3,4
 223 106 223 106 232 94.5 c 128,-1,5
 241 83 241 83 269 83 c 0,6,7
 280 83 280 83 301 86 c 1,8,-1
 301 -12 l 1,9,10
 267 -23 267 -23 220 -23 c 0,11,12
 83 -23 83 -23 83 104 c 2,13,-1
 83 436 l 1,14,-1
 14 436 l 1,15,-1
 14 529 l 1,16,-1
 83 529 l 1,17,-1
 83 674 l 1,18,-1
 223 674 l 1,19,-1
 223 529 l 1,20,-1
 301 529 l 1,0,-1
EndSplineSet
EndChar

StartChar: u
Encoding: 117 117 88
Width: 611
GlyphClass: 2
Flags: W
AnchorPoint: "Anchor-5" 293 293 basechar 0
AnchorPoint: "Anchor-4" 481 0 basechar 0 {150-150 2} {}
AnchorPoint: "Anchor-3" 306 550 basechar 0
AnchorPoint: "Anchor-2" 289 1 basechar 0
LayerCount: 2
Fore
SplineSet
541 0 m 1,0,-1
 401 0 l 1,1,-1
 401 64 l 1,2,3
 343 -23 343 -23 239 -23 c 0,4,5
 153 -23 153 -23 105.5 26 c 128,-1,6
 58 75 58 75 58 164 c 2,7,-1
 58 540 l 1,8,-1
 198 540 l 1,9,-1
 198 193 l 2,10,11
 198 96 198 96 288 96 c 0,12,13
 339 96 339 96 370 125 c 128,-1,14
 401 154 401 154 401 202 c 2,15,-1
 401 540 l 1,16,-1
 541 540 l 1,17,-1
 541 0 l 1,0,-1
EndSplineSet
EndChar

StartChar: v
Encoding: 118 118 89
Width: 556
GlyphClass: 2
Flags: W
AnchorPoint: "Anchor-5" 274 293 basechar 0
AnchorPoint: "Anchor-3" 276 539 basechar 0
AnchorPoint: "Anchor-2" 277 1 basechar 0
LayerCount: 2
Fore
SplineSet
350 0 m 1,0,-1
 203 0 l 1,1,-1
 14 540 l 1,2,-1
 162 540 l 1,3,-1
 279 145 l 1,4,-1
 388 540 l 1,5,-1
 536 540 l 1,6,-1
 350 0 l 1,0,-1
EndSplineSet
EndChar

StartChar: w
Encoding: 119 119 90
Width: 778
GlyphClass: 2
Flags: W
AnchorPoint: "Anchor-5" 386 293 basechar 0
AnchorPoint: "Anchor-3" 385 539 basechar 0
AnchorPoint: "Anchor-2" 387 1 basechar 0
LayerCount: 2
Fore
SplineSet
613 0 m 1,0,-1
 468 0 l 1,1,-1
 387 381 l 1,2,-1
 301 0 l 1,3,-1
 157 0 l 1,4,-1
 5 540 l 1,5,-1
 150 540 l 1,6,-1
 236 162 l 1,7,-1
 318 540 l 1,8,-1
 458 540 l 1,9,-1
 539 162 l 1,10,-1
 621 540 l 1,11,-1
 766 540 l 1,12,-1
 613 0 l 1,0,-1
EndSplineSet
EndChar

StartChar: x
Encoding: 120 120 91
Width: 556
GlyphClass: 2
Flags: W
AnchorPoint: "Anchor-5" 273 293 basechar 0
AnchorPoint: "Anchor-3" 283 539 basechar 0
AnchorPoint: "Anchor-2" 278 1 basechar 0
LayerCount: 2
Fore
SplineSet
355 272 m 1,0,-1
 535 0 l 1,1,-1
 367 0 l 1,2,-1
 276 168 l 1,3,-1
 184 0 l 1,4,-1
 16 0 l 1,5,-1
 196 272 l 1,6,-1
 20 540 l 1,7,-1
 188 540 l 1,8,-1
 276 377 l 1,9,-1
 363 540 l 1,10,-1
 531 540 l 1,11,-1
 355 272 l 1,0,-1
EndSplineSet
EndChar

StartChar: y
Encoding: 121 121 92
Width: 556
GlyphClass: 2
Flags: W
AnchorPoint: "Anchor-5" 273 293 basechar 0
AnchorPoint: "Anchor-4" 437 0 basechar 0 {150-150 9} {}
AnchorPoint: "Anchor-3" 278 550 basechar 0
AnchorPoint: "Anchor-2" 455 1 basechar 0
LayerCount: 2
Fore
SplineSet
210 -26 m 2,0,-1
 210 -22 l 1,1,-1
 9 540 l 1,2,-1
 163 540 l 1,3,-1
 282 147 l 1,4,-1
 394 540 l 1,5,-1
 538 540 l 1,6,-1
 316 -99 l 2,7,8
 310 -111 310 -111 307 -126 c 128,-1,9
 304 -141 304 -141 291 -157.5 c 128,-1,10
 278 -174 278 -174 261.5 -187.5 c 128,-1,11
 245 -201 245 -201 212 -210 c 128,-1,12
 179 -219 179 -219 136 -219 c 0,13,14
 114 -219 114 -219 86 -215 c 1,15,-1
 86 -110 l 1,16,17
 108 -116 108 -116 123 -116 c 0,18,19
 160 -116 160 -116 185 -90 c 128,-1,20
 210 -64 210 -64 210 -26 c 2,0,-1
EndSplineSet
EndChar

StartChar: z
Encoding: 122 122 93
Width: 500
GlyphClass: 2
Flags: W
AnchorPoint: "Anchor-5" 251 293 basechar 0
AnchorPoint: "Anchor-3" 250 539 basechar 0
AnchorPoint: "Anchor-2" 243 1 basechar 0
LayerCount: 2
Fore
SplineSet
459 540 m 1,0,-1
 459 427 l 1,1,-1
 194 113 l 1,2,-1
 468 113 l 1,3,-1
 468 0 l 1,4,-1
 21 0 l 1,5,-1
 21 113 l 1,6,-1
 288 427 l 1,7,-1
 39 427 l 1,8,-1
 39 540 l 1,9,-1
 459 540 l 1,0,-1
EndSplineSet
EndChar

StartChar: braceleft
Encoding: 123 123 94
Width: 389
GlyphClass: 2
Flags: W
LayerCount: 2
Fore
SplineSet
118 150 m 2,0,1
 118 194 118 194 102.5 208 c 128,-1,2
 87 222 87 222 41 222 c 1,3,-1
 37 223 l 1,4,-1
 37 315 l 1,5,-1
 53 315 l 2,6,7
 118 316 118 316 118 378 c 2,8,-1
 118 589 l 2,9,10
 118 650 118 650 152.5 689.5 c 128,-1,11
 187 729 187 729 241 729 c 2,12,-1
 317 729 l 1,13,-1
 317 630 l 1,14,-1
 280 630 l 2,15,16
 235 630 235 630 235 573 c 2,17,-1
 235 378 l 2,18,19
 235 323 235 323 214.5 300 c 128,-1,20
 194 277 194 277 138 269 c 1,21,22
 194 260 194 260 214.5 237 c 128,-1,23
 235 214 235 214 235 159 c 2,24,-1
 235 -36 l 2,25,26
 235 -73 235 -73 245 -87 c 128,-1,27
 255 -101 255 -101 280 -101 c 2,28,-1
 317 -101 l 1,29,-1
 317 -200 l 1,30,-1
 241 -200 l 2,31,32
 187 -200 187 -200 152.5 -160.5 c 128,-1,33
 118 -121 118 -121 118 -60 c 2,34,-1
 118 150 l 2,0,1
EndSplineSet
EndChar

StartChar: bar
Encoding: 124 124 95
Width: 280
GlyphClass: 2
Flags: W
LayerCount: 2
Fore
SplineSet
180 729 m 1,0,-1
 180 -200 l 1,1,-1
 100 -200 l 1,2,-1
 100 729 l 1,3,-1
 180 729 l 1,0,-1
EndSplineSet
EndChar

StartChar: braceright
Encoding: 125 125 96
Width: 389
GlyphClass: 2
Flags: W
LayerCount: 2
Fore
SplineSet
271 379 m 2,0,1
 271 335 271 335 286.5 321 c 128,-1,2
 302 307 302 307 348 307 c 1,3,-1
 352 306 l 1,4,-1
 352 214 l 1,5,-1
 336 214 l 2,6,7
 271 213 271 213 271 151 c 2,8,-1
 271 -60 l 2,9,10
 271 -121 271 -121 236.5 -160.5 c 128,-1,11
 202 -200 202 -200 148 -200 c 2,12,-1
 72 -200 l 1,13,-1
 72 -101 l 1,14,-1
 109 -101 l 2,15,16
 154 -101 154 -101 154 -44 c 2,17,-1
 154 151 l 2,18,19
 154 206 154 206 174.5 229 c 128,-1,20
 195 252 195 252 251 260 c 1,21,22
 195 269 195 269 174.5 292 c 128,-1,23
 154 315 154 315 154 370 c 2,24,-1
 154 565 l 2,25,26
 154 602 154 602 144 616 c 128,-1,27
 134 630 134 630 109 630 c 2,28,-1
 72 630 l 1,29,-1
 72 729 l 1,30,-1
 148 729 l 2,31,32
 202 729 202 729 236.5 689.5 c 128,-1,33
 271 650 271 650 271 589 c 2,34,-1
 271 379 l 2,0,1
EndSplineSet
EndChar

StartChar: asciitilde
Encoding: 126 126 97
Width: 584
GlyphClass: 2
Flags: W
LayerCount: 2
Fore
SplineSet
388 222 m 0,0,1
 421 222 421 222 430.5 237.5 c 128,-1,2
 440 253 440 253 441 288 c 1,3,-1
 519 288 l 1,4,5
 510 142 510 142 392 142 c 0,6,7
 347 142 347 142 309 168 c 2,8,-1
 252 210 l 2,9,10
 220 234 220 234 191 234 c 0,11,12
 159 234 159 234 149.5 219 c 128,-1,13
 140 204 140 204 138 169 c 1,14,-1
 60 169 l 1,15,16
 67 314 67 314 187 314 c 0,17,18
 235 314 235 314 270 289 c 2,19,-1
 327 247 l 2,20,21
 361 222 361 222 388 222 c 0,0,1
EndSplineSet
EndChar

StartChar: cent
Encoding: 162 162 100
Width: 556
GlyphClass: 2
Flags: W
LayerCount: 2
Fore
SplineSet
303 435 m 1,0,-1
 303 91 l 1,1,2
 337 96 337 96 357 118.5 c 128,-1,3
 377 141 377 141 388 187 c 1,4,-1
 522 187 l 1,5,6
 514 97 514 97 453 39 c 128,-1,7
 392 -19 392 -19 303 -23 c 1,8,-1
 303 -124 l 1,9,-1
 259 -124 l 1,10,-1
 259 -22 l 1,11,12
 155 -15 155 -15 95.5 59.5 c 128,-1,13
 36 134 36 134 36 259 c 0,14,15
 36 388 36 388 93 462.5 c 128,-1,16
 150 537 150 537 259 548 c 1,17,-1
 259 634 l 1,18,-1
 303 634 l 1,19,-1
 303 549 l 1,20,21
 395 548 395 548 455.5 489.5 c 128,-1,22
 516 431 516 431 522 338 c 1,23,-1
 388 338 l 1,24,25
 378 384 378 384 358 407 c 128,-1,26
 338 430 338 430 303 435 c 1,0,-1
259 94 m 1,27,-1
 259 433 l 1,28,29
 176 411 176 411 176 260 c 0,30,31
 176 119 176 119 259 94 c 1,27,-1
EndSplineSet
EndChar

StartChar: sterling
Encoding: 163 163 101
Width: 556
GlyphClass: 2
Flags: W
LayerCount: 2
Fore
SplineSet
179 513 m 0,0,1
 179 497 179 497 187.5 476 c 128,-1,2
 196 455 196 455 211.5 423.5 c 128,-1,3
 227 392 227 392 236 371 c 1,4,-1
 375 371 l 1,5,-1
 375 316 l 1,6,-1
 253 316 l 1,7,8
 268 284 268 284 268 257 c 0,9,10
 268 213 268 213 242 174.5 c 128,-1,11
 216 136 216 136 152 86 c 1,12,13
 230 123 230 123 264 123 c 0,14,15
 286 123 286 123 326 112.5 c 128,-1,16
 366 102 366 102 391 102 c 0,17,18
 438 102 438 102 496 131 c 1,19,-1
 537 22 l 1,20,21
 461 -23 461 -23 392 -23 c 0,22,23
 357 -23 357 -23 293.5 -7 c 128,-1,24
 230 9 230 9 195 9 c 0,25,26
 146 9 146 9 86 -21 c 1,27,-1
 31 80 l 1,28,29
 94 123 94 123 117.5 155 c 128,-1,30
 141 187 141 187 141 231 c 0,31,32
 141 265 141 265 120 316 c 1,33,-1
 31 316 l 1,34,-1
 31 371 l 1,35,-1
 91 371 l 1,36,37
 57 430 57 430 47.5 456.5 c 128,-1,38
 38 483 38 483 38 516 c 0,39,40
 38 600 38 600 103 657.5 c 128,-1,41
 168 715 168 715 276 715 c 0,42,43
 336 715 336 715 381 699.5 c 128,-1,44
 426 684 426 684 451 662 c 128,-1,45
 476 640 476 640 492 606.5 c 128,-1,46
 508 573 508 573 513.5 546 c 128,-1,47
 519 519 519 519 522 484 c 1,48,-1
 390 484 l 1,49,-1
 389 495 l 2,50,51
 386 516 386 516 381 531.5 c 128,-1,52
 376 547 376 547 365 565.5 c 128,-1,53
 354 584 354 584 331.5 594 c 128,-1,54
 309 604 309 604 277 604 c 0,55,56
 234 604 234 604 206.5 578.5 c 128,-1,57
 179 553 179 553 179 513 c 0,0,1
EndSplineSet
EndChar

StartChar: currency
Encoding: 164 164 102
Width: 556
GlyphClass: 2
Flags: W
LayerCount: 2
Fore
SplineSet
388 528 m 1,0,-1
 461 601 l 1,1,-1
 530 532 l 1,2,-1
 455 457 l 1,3,4
 482 403 482 403 482 354 c 0,5,6
 482 297 482 297 453 246 c 1,7,-1
 530 170 l 1,8,-1
 461 102 l 1,9,-1
 386 177 l 1,10,11
 352 158 352 158 332.5 152.5 c 128,-1,12
 313 147 313 147 286 147 c 0,13,14
 217 147 217 147 175 178 c 1,15,-1
 96 100 l 1,16,-1
 28 169 l 1,17,-1
 106 246 l 1,18,19
 76 301 76 301 76 352 c 0,20,21
 76 411 76 411 105 457 c 1,22,-1
 26 536 l 1,23,-1
 95 604 l 1,24,-1
 172 527 l 1,25,26
 223 558 223 558 281 558 c 0,27,28
 340 558 340 558 388 528 c 1,0,-1
280 460 m 0,29,30
 235 460 235 460 203.5 429 c 128,-1,31
 172 398 172 398 172 352 c 0,32,33
 172 308 172 308 203.5 276.5 c 128,-1,34
 235 245 235 245 279 245 c 128,-1,35
 323 245 323 245 354.5 276.5 c 128,-1,36
 386 308 386 308 386 353 c 0,37,38
 386 397 386 397 354.5 428.5 c 128,-1,39
 323 460 323 460 280 460 c 0,29,30
EndSplineSet
EndChar

StartChar: yen
Encoding: 165 165 103
Width: 556
GlyphClass: 2
Flags: W
LayerCount: 2
Fore
SplineSet
497 351 m 1,0,-1
 497 292 l 1,1,-1
 355 292 l 1,2,-1
 355 239 l 1,3,-1
 497 239 l 1,4,-1
 497 180 l 1,5,-1
 355 180 l 1,6,-1
 355 0 l 1,7,-1
 215 0 l 1,8,-1
 215 180 l 1,9,-1
 70 180 l 1,10,-1
 70 239 l 1,11,-1
 215 239 l 1,12,-1
 215 292 l 1,13,-1
 70 292 l 1,14,-1
 70 351 l 1,15,-1
 208 351 l 1,16,-1
 5 704 l 1,17,-1
 144 704 l 1,18,-1
 283 450 l 1,19,-1
 417 704 l 1,20,-1
 552 704 l 1,21,-1
 360 351 l 1,22,-1
 497 351 l 1,0,-1
EndSplineSet
EndChar

StartChar: brokenbar
Encoding: 166 166 104
Width: 280
GlyphClass: 2
Flags: W
LayerCount: 2
Fore
SplineSet
180 729 m 1,0,-1
 180 340 l 1,1,-1
 100 340 l 1,2,-1
 100 729 l 1,3,-1
 180 729 l 1,0,-1
180 189 m 1,4,-1
 180 -200 l 1,5,-1
 100 -200 l 1,6,-1
 100 189 l 1,7,-1
 180 189 l 1,4,-1
EndSplineSet
EndChar

StartChar: section
Encoding: 167 167 105
Width: 556
GlyphClass: 2
Flags: W
LayerCount: 2
Fore
SplineSet
125 428 m 1,0,1
 118 434 118 434 107.5 446 c 128,-1,2
 97 458 97 458 87 471 c 128,-1,3
 77 484 77 484 70.5 505 c 128,-1,4
 64 526 64 526 64 551 c 0,5,6
 64 626 64 626 123 674.5 c 128,-1,7
 182 723 182 723 273 723 c 0,8,9
 310 723 310 723 341 715.5 c 128,-1,10
 372 708 372 708 402.5 690 c 128,-1,11
 433 672 433 672 452 634.5 c 128,-1,12
 471 597 471 597 473 544 c 1,13,-1
 346 544 l 1,14,15
 336 621 336 621 268 621 c 0,16,17
 239 621 239 621 221.5 607 c 128,-1,18
 204 593 204 593 204 570 c 0,19,20
 204 549 204 549 222.5 531.5 c 128,-1,21
 241 514 241 514 294 485 c 2,22,-1
 421 415 l 2,23,24
 518 361 518 361 518 262 c 0,25,26
 518 212 518 212 496 179.5 c 128,-1,27
 474 147 474 147 424 124 c 1,28,29
 494 75 494 75 494 -10 c 128,-1,30
 494 -95 494 -95 434 -148 c 128,-1,31
 374 -201 374 -201 276 -201 c 0,32,33
 67 -201 67 -201 65 0 c 1,34,-1
 196 0 l 1,35,-1
 196 -10 l 2,36,37
 198 -49 198 -49 216 -69.5 c 128,-1,38
 234 -90 234 -90 277 -90 c 0,39,40
 311 -90 311 -90 332 -73 c 128,-1,41
 353 -56 353 -56 353 -29 c 0,42,43
 353 -13 353 -13 347 -1 c 128,-1,44
 341 11 341 11 331.5 19 c 128,-1,45
 322 27 322 27 309 34.5 c 128,-1,46
 296 42 296 42 283 49 c 2,47,-1
 112 149 l 2,48,49
 33 195 33 195 33 281 c 0,50,51
 33 326 33 326 52.5 356.5 c 128,-1,52
 72 387 72 387 125 428 c 1,0,1
337 306 m 2,53,-1
 194 382 l 1,54,55
 152 357 152 357 152 317 c 0,56,57
 152 294 152 294 163.5 279 c 128,-1,58
 175 264 175 264 205 247 c 2,59,-1
 352 167 l 1,60,61
 398 199 398 199 398 232 c 0,62,63
 398 256 398 256 385 271.5 c 128,-1,64
 372 287 372 287 337 306 c 2,53,-1
EndSplineSet
EndChar

StartChar: copyright
Encoding: 169 169 107
Width: 737
GlyphClass: 2
Flags: W
LayerCount: 2
Fore
SplineSet
552 431 m 1,0,-1
 462 431 l 1,1,2
 446 509 446 509 369 509 c 0,3,4
 316 509 316 509 285.5 469 c 128,-1,5
 255 429 255 429 255 359 c 128,-1,6
 255 289 255 289 284.5 250 c 128,-1,7
 314 211 314 211 366 211 c 0,8,9
 454 211 454 211 462 297 c 1,10,-1
 554 297 l 1,11,12
 550 218 550 218 499 173 c 128,-1,13
 448 128 448 128 364 128 c 0,14,15
 272 128 272 128 217.5 191 c 128,-1,16
 163 254 163 254 163 360 c 0,17,18
 163 467 163 467 218 529.5 c 128,-1,19
 273 592 273 592 367 592 c 0,20,21
 445 592 445 592 495.5 550 c 128,-1,22
 546 508 546 508 552 431 c 1,0,-1
369 743 m 128,-1,24
 527 743 527 743 639 631 c 128,-1,25
 751 519 751 519 751 361 c 0,26,27
 751 201 751 201 638.5 89.5 c 128,-1,28
 526 -22 526 -22 364 -22 c 0,29,30
 209 -22 209 -22 97.5 91 c 128,-1,31
 -14 204 -14 204 -14 361 c 0,32,33
 -14 519 -14 519 98.5 631 c 128,-1,23
 211 743 211 743 369 743 c 128,-1,24
368 671 m 0,34,35
 243 671 243 671 153.5 580 c 128,-1,36
 64 489 64 489 64 361 c 0,37,38
 64 234 64 234 153 142 c 128,-1,39
 242 50 242 50 365 50 c 0,40,41
 494 50 494 50 583.5 140.5 c 128,-1,42
 673 231 673 231 673 361 c 0,43,44
 673 489 673 489 583.5 580 c 128,-1,45
 494 671 494 671 368 671 c 0,34,35
EndSplineSet
EndChar

StartChar: ordfeminine
Encoding: 170 170 108
Width: 370
GlyphClass: 2
Flags: W
LayerCount: 2
Fore
SplineSet
321 340 m 1,0,-1
 321 262 l 1,1,-1
 37 262 l 1,2,-1
 37 340 l 1,3,-1
 321 340 l 1,0,-1
329 410 m 1,4,-1
 329 400 l 1,5,-1
 237 400 l 1,6,7
 228 411 228 411 227 432 c 1,8,9
 184 386 184 386 129 386 c 0,10,11
 85 386 85 386 58 413 c 128,-1,12
 31 440 31 440 31 484 c 0,13,14
 31 571 31 571 126 587 c 2,15,-1
 160 593 l 2,16,17
 175 596 175 596 190 598 c 128,-1,18
 205 600 205 600 216 608 c 128,-1,19
 227 616 227 616 227 630 c 0,20,21
 227 661 227 661 178 661 c 0,22,23
 148 661 148 661 135 651 c 128,-1,24
 122 641 122 641 119 617 c 1,25,-1
 41 617 l 1,26,27
 43 729 43 729 176 729 c 128,-1,28
 309 729 309 729 309 629 c 2,29,-1
 309 450 l 2,30,31
 309 428 309 428 329 410 c 1,4,-1
227 530 m 2,32,-1
 227 553 l 1,33,34
 216 547 216 547 192 543 c 2,35,-1
 163 537 l 2,36,37
 137 532 137 532 126 522 c 128,-1,38
 115 512 115 512 115 493 c 0,39,40
 115 454 115 454 161 454 c 0,41,42
 192 454 192 454 209.5 474 c 128,-1,43
 227 494 227 494 227 530 c 2,32,-1
EndSplineSet
EndChar

StartChar: guillemotleft
Encoding: 171 171 109
Width: 556
GlyphClass: 2
Flags: W
LayerCount: 2
Fore
SplineSet
88 218 m 1,0,-1
 88 332 l 1,1,-1
 255 481 l 1,2,-1
 255 364 l 1,3,-1
 154 275 l 1,4,-1
 255 186 l 1,5,-1
 255 72 l 1,6,-1
 88 218 l 1,0,-1
301 218 m 1,7,-1
 301 332 l 1,8,-1
 468 481 l 1,9,-1
 468 364 l 1,10,-1
 367 275 l 1,11,-1
 468 186 l 1,12,-1
 468 72 l 1,13,-1
 301 218 l 1,7,-1
EndSplineSet
EndChar

StartChar: logicalnot
Encoding: 172 172 110
Width: 584
GlyphClass: 2
Flags: W
LayerCount: 2
Fore
SplineSet
39 376 m 1,0,-1
 543 376 l 1,1,-1
 544 86 l 1,2,-1
 425 86 l 1,3,-1
 425 256 l 1,4,-1
 40 256 l 1,5,-1
 39 376 l 1,0,-1
EndSplineSet
EndChar

StartChar: registered
Encoding: 174 174 112
Width: 737
GlyphClass: 2
Flags: W
LayerCount: 2
Fore
SplineSet
288 313 m 1,0,-1
 288 140 l 1,1,-1
 192 140 l 1,2,-1
 192 583 l 1,3,-1
 430 583 l 2,4,5
 487 583 487 583 519 551 c 128,-1,6
 551 519 551 519 551 462 c 0,7,8
 551 388 551 388 481 354 c 1,9,10
 499 346 499 346 507 339.5 c 128,-1,11
 515 333 515 333 522.5 325 c 128,-1,12
 530 317 530 317 532 298.5 c 128,-1,13
 534 280 534 280 535.5 259.5 c 128,-1,14
 537 239 537 239 538 195 c 0,15,16
 538 171 538 171 557 161 c 1,17,-1
 557 140 l 1,18,-1
 454 140 l 1,19,20
 440 167 440 167 440 221 c 0,21,22
 440 225 440 225 440.5 233.5 c 128,-1,23
 441 242 441 242 441 247 c 2,24,-1
 441 264 l 2,25,26
 441 313 441 313 380 313 c 2,27,-1
 288 313 l 1,0,-1
288 394 m 1,28,-1
 391 394 l 2,29,30
 427 394 427 394 441 405.5 c 128,-1,31
 455 417 455 417 455 448 c 128,-1,32
 455 479 455 479 441 490.5 c 128,-1,33
 427 502 427 502 391 502 c 2,34,-1
 288 502 l 1,35,-1
 288 394 l 1,28,-1
369 743 m 128,-1,37
 527 743 527 743 639 631 c 128,-1,38
 751 519 751 519 751 361 c 0,39,40
 751 201 751 201 638.5 89.5 c 128,-1,41
 526 -22 526 -22 364 -22 c 0,42,43
 209 -22 209 -22 97.5 91 c 128,-1,44
 -14 204 -14 204 -14 361 c 0,45,46
 -14 519 -14 519 98.5 631 c 128,-1,36
 211 743 211 743 369 743 c 128,-1,37
368 671 m 0,47,48
 243 671 243 671 153.5 580 c 128,-1,49
 64 489 64 489 64 361 c 0,50,51
 64 234 64 234 153 142 c 128,-1,52
 242 50 242 50 365 50 c 0,53,54
 494 50 494 50 583.5 140.5 c 128,-1,55
 673 231 673 231 673 361 c 0,56,57
 673 489 673 489 583.5 580 c 128,-1,58
 494 671 494 671 368 671 c 0,47,48
EndSplineSet
EndChar

StartChar: macron
Encoding: 175 175 113
Width: 333
GlyphClass: 2
Flags: W
LayerCount: 2
Fore
SplineSet
315 719 m 1,0,-1
 315 640 l 1,1,-1
 16 640 l 1,2,-1
 16 719 l 1,3,-1
 315 719 l 1,0,-1
EndSplineSet
EndChar

StartChar: degree
Encoding: 176 176 114
Width: 606
GlyphClass: 2
Flags: W
LayerCount: 2
Fore
SplineSet
303 686 m 0,0,1
 365 686 365 686 409.5 641.5 c 128,-1,2
 454 597 454 597 454 535 c 0,3,4
 454 471 454 471 409.5 427 c 128,-1,5
 365 383 365 383 301 383 c 0,6,7
 240 383 240 383 195.5 428 c 128,-1,8
 151 473 151 473 151 535 c 128,-1,9
 151 597 151 597 195.5 641.5 c 128,-1,10
 240 686 240 686 303 686 c 0,0,1
303 623 m 0,11,12
 266 623 266 623 240 597 c 128,-1,13
 214 571 214 571 214 534 c 0,14,15
 214 499 214 499 240 472.5 c 128,-1,16
 266 446 266 446 301 446 c 0,17,18
 339 446 339 446 365 472 c 128,-1,19
 391 498 391 498 391 535 c 0,20,21
 391 571 391 571 365 597 c 128,-1,22
 339 623 339 623 303 623 c 0,11,12
EndSplineSet
EndChar

StartChar: plusminus
Encoding: 177 177 115
Width: 584
GlyphClass: 2
Flags: W
LayerCount: 2
Fore
SplineSet
527 103 m 1,0,-1
 527 -16 l 1,1,-1
 56 -16 l 1,2,-1
 56 103 l 1,3,-1
 527 103 l 1,0,-1
527 432 m 1,4,-1
 527 313 l 1,5,-1
 351 313 l 1,6,-1
 351 137 l 1,7,-1
 232 137 l 1,8,-1
 232 313 l 1,9,-1
 56 313 l 1,10,-1
 56 432 l 1,11,-1
 232 432 l 1,12,-1
 232 608 l 1,13,-1
 351 608 l 1,14,-1
 351 432 l 1,15,-1
 527 432 l 1,4,-1
EndSplineSet
EndChar

StartChar: twosuperior
Encoding: 178 178 116
Width: 351
GlyphClass: 2
Flags: W
LayerCount: 2
Fore
SplineSet
328 584 m 0,0,1
 328 542 328 542 308 511 c 128,-1,2
 288 480 288 480 262 463 c 128,-1,3
 236 446 236 446 199 419 c 128,-1,4
 162 392 162 392 139 365 c 1,5,-1
 326 365 l 1,6,-1
 326 284 l 1,7,-1
 16 284 l 1,8,9
 18 330 18 330 34.5 366 c 128,-1,10
 51 402 51 402 75 421.5 c 128,-1,11
 99 441 99 441 127 460 c 128,-1,12
 155 479 155 479 178.5 493 c 128,-1,13
 202 507 202 507 217.5 529 c 128,-1,14
 233 551 233 551 233 580 c 0,15,16
 233 610 233 610 217 627 c 128,-1,17
 201 644 201 644 172 644 c 128,-1,18
 143 644 143 644 127.5 625.5 c 128,-1,19
 112 607 112 607 112 573 c 0,20,21
 112 571 112 571 114 557 c 1,22,-1
 22 557 l 1,23,24
 21 565 21 565 21 575 c 0,25,26
 21 644 21 644 61.5 681 c 128,-1,27
 102 718 102 718 177 718 c 0,28,29
 250 718 250 718 289 683.5 c 128,-1,30
 328 649 328 649 328 584 c 0,0,1
EndSplineSet
EndChar

StartChar: threesuperior
Encoding: 179 179 117
Width: 351
GlyphClass: 2
Flags: W
LayerCount: 2
Fore
SplineSet
22 571 m 1,0,1
 28 718 28 718 170 718 c 0,2,3
 236 718 236 718 275.5 686 c 128,-1,4
 315 654 315 654 315 601 c 0,5,6
 315 544 315 544 263 512 c 1,7,8
 329 480 329 480 329 409 c 0,9,10
 329 346 329 346 285.5 308.5 c 128,-1,11
 242 271 242 271 170 271 c 0,12,13
 97 271 97 271 56.5 308.5 c 128,-1,14
 16 346 16 346 15 414 c 1,15,-1
 107 414 l 1,16,17
 111 348 111 348 172 348 c 0,18,19
 199 348 199 348 216.5 365 c 128,-1,20
 234 382 234 382 234 408 c 0,21,22
 234 469 234 469 150 471 c 2,23,-1
 134 471 l 1,24,-1
 134 533 l 1,25,-1
 145 533 l 2,26,27
 220 533 220 533 220 591 c 0,28,29
 220 616 220 616 205.5 630.5 c 128,-1,30
 191 645 191 645 167 645 c 0,31,32
 134 645 134 645 122 626 c 128,-1,33
 110 607 110 607 110 571 c 1,34,-1
 22 571 l 1,0,1
EndSplineSet
EndChar

StartChar: acute
Encoding: 180 180 118
Width: 333
GlyphClass: 2
Flags: W
LayerCount: 2
Fore
SplineSet
317 757 m 1,0,-1
 191 607 l 1,1,-1
 121 607 l 1,2,-1
 191 757 l 1,3,-1
 317 757 l 1,0,-1
EndSplineSet
EndChar

StartChar: micro
Encoding: 181 181 119
Width: 611
GlyphClass: 2
Flags: W
LayerCount: 2
Fore
SplineSet
198 206 m 2,0,1
 198 96 198 96 282 96 c 0,2,3
 326 96 326 96 354.5 126 c 128,-1,4
 383 156 383 156 383 202 c 2,5,-1
 383 540 l 1,6,-1
 523 540 l 1,7,-1
 523 150 l 2,8,9
 523 106 523 106 529 91.5 c 128,-1,10
 535 77 535 77 553 77 c 0,11,12
 560 77 560 77 573 81 c 1,13,-1
 573 -6 l 1,14,15
 540 -23 540 -23 503 -23 c 0,16,17
 468 -23 468 -23 447 -11 c 128,-1,18
 426 1 426 1 408 31 c 1,19,20
 379 1 379 1 353 -11 c 128,-1,21
 327 -23 327 -23 292 -23 c 0,22,23
 231 -23 231 -23 192 15 c 1,24,-1
 192 -220 l 1,25,-1
 58 -220 l 1,26,-1
 58 540 l 1,27,-1
 198 540 l 1,28,-1
 198 206 l 2,0,1
EndSplineSet
EndChar

StartChar: paragraph
Encoding: 182 182 120
Width: 556
GlyphClass: 2
Flags: W
LayerCount: 2
Fore
SplineSet
19 495 m 0,0,1
 19 594 19 594 78.5 661.5 c 128,-1,2
 138 729 138 729 226 729 c 2,3,-1
 529 729 l 1,4,-1
 529 657 l 1,5,-1
 486 657 l 1,6,-1
 486 -191 l 1,7,-1
 388 -191 l 1,8,-1
 388 657 l 1,9,-1
 325 657 l 1,10,-1
 325 -191 l 1,11,-1
 227 -191 l 1,12,-1
 227 267 l 1,13,14
 135 271 135 271 77 335 c 128,-1,15
 19 399 19 399 19 495 c 0,0,1
EndSplineSet
EndChar

StartChar: periodcentered
Encoding: 183 183 121
Width: 278
GlyphClass: 2
Flags: W
LayerCount: 2
Fore
SplineSet
64 292 m 1,0,-1
 188 292 l 1,1,-1
 188 169 l 1,2,-1
 64 169 l 1,3,-1
 64 292 l 1,0,-1
EndSplineSet
EndChar

StartChar: cedilla
Encoding: 184 184 122
Width: 333
GlyphClass: 2
Flags: W
LayerCount: 2
Fore
SplineSet
162 0 m 1,0,-1
 205 0 l 1,1,-1
 176 -63 l 1,2,3
 197 -56 197 -56 218 -56 c 0,4,5
 253 -56 253 -56 273.5 -75 c 128,-1,6
 294 -94 294 -94 294 -127 c 0,7,8
 294 -172 294 -172 260.5 -196 c 128,-1,9
 227 -220 227 -220 165 -220 c 0,10,11
 110 -220 110 -220 27 -192 c 1,12,-1
 46 -140 l 1,13,14
 115 -170 115 -170 151 -170 c 0,15,16
 175 -170 175 -170 191.5 -158 c 128,-1,17
 208 -146 208 -146 208 -129 c 0,18,19
 208 -113 208 -113 194 -103.5 c 128,-1,20
 180 -94 180 -94 157 -94 c 0,21,22
 133 -94 133 -94 108 -106 c 1,23,-1
 162 0 l 1,0,-1
EndSplineSet
EndChar

StartChar: onesuperior
Encoding: 185 185 123
Width: 300
GlyphClass: 2
Flags: W
LayerCount: 2
Fore
SplineSet
147 573 m 1,0,-1
 40 573 l 1,1,-1
 40 634 l 1,2,3
 157 634 157 634 178 709 c 1,4,-1
 242 709 l 1,5,-1
 242 284 l 1,6,-1
 147 284 l 1,7,-1
 147 573 l 1,0,-1
EndSplineSet
EndChar

StartChar: ordmasculine
Encoding: 186 186 124
Width: 365
GlyphClass: 2
Flags: W
LayerCount: 2
Fore
SplineSet
334 340 m 1,0,-1
 334 262 l 1,1,-1
 33 262 l 1,2,-1
 33 340 l 1,3,-1
 334 340 l 1,0,-1
183 729 m 0,4,5
 259 729 259 729 301 683 c 128,-1,6
 343 637 343 637 343 555 c 0,7,8
 343 477 343 477 300 431.5 c 128,-1,9
 257 386 257 386 183 386 c 128,-1,10
 109 386 109 386 66 432 c 128,-1,11
 23 478 23 478 23 557 c 0,12,13
 23 637 23 637 66 683 c 128,-1,14
 109 729 109 729 183 729 c 0,4,5
183 661 m 128,-1,16
 149 661 149 661 128 632.5 c 128,-1,17
 107 604 107 604 107 558 c 128,-1,18
 107 512 107 512 128 483 c 128,-1,19
 149 454 149 454 183 454 c 128,-1,20
 217 454 217 454 238 482.5 c 128,-1,21
 259 511 259 511 259 556 c 0,22,23
 259 603 259 603 238 632 c 128,-1,15
 217 661 217 661 183 661 c 128,-1,16
EndSplineSet
EndChar

StartChar: guillemotright
Encoding: 187 187 125
Width: 556
GlyphClass: 2
Flags: W
LayerCount: 2
Fore
SplineSet
255 335 m 1,0,-1
 255 220 l 1,1,-1
 88 72 l 1,2,-1
 88 189 l 1,3,-1
 189 278 l 1,4,-1
 88 367 l 1,5,-1
 88 481 l 1,6,-1
 255 335 l 1,0,-1
462 335 m 1,7,-1
 462 220 l 1,8,-1
 295 72 l 1,9,-1
 295 189 l 1,10,-1
 396 278 l 1,11,-1
 295 367 l 1,12,-1
 295 481 l 1,13,-1
 462 335 l 1,7,-1
EndSplineSet
EndChar

StartChar: onequarter
Encoding: 188 188 126
Width: 869
GlyphClass: 2
Flags: W
LayerCount: 2
Fore
SplineSet
147 573 m 1,0,-1
 40 573 l 1,1,-1
 40 634 l 1,2,3
 157 634 157 634 178 709 c 1,4,-1
 242 709 l 1,5,-1
 242 284 l 1,6,-1
 147 284 l 1,7,-1
 147 573 l 1,0,-1
593 715 m 1,8,-1
 680 715 l 1,9,-1
 257 -20 l 1,10,-1
 170 -20 l 1,11,-1
 593 715 l 1,8,-1
850 168 m 1,12,-1
 850 93 l 1,13,-1
 804 93 l 1,14,-1
 804 0 l 1,15,-1
 709 0 l 1,16,-1
 709 93 l 1,17,-1
 530 93 l 1,18,-1
 530 167 l 1,19,-1
 695 425 l 1,20,-1
 804 425 l 1,21,-1
 804 168 l 1,22,-1
 850 168 l 1,12,-1
709 168 m 1,23,-1
 709 332 l 1,24,-1
 603 168 l 1,25,-1
 709 168 l 1,23,-1
EndSplineSet
EndChar

StartChar: onehalf
Encoding: 189 189 127
Width: 869
GlyphClass: 2
Flags: W
LayerCount: 2
Fore
SplineSet
147 573 m 1,0,-1
 40 573 l 1,1,-1
 40 634 l 1,2,3
 157 634 157 634 178 709 c 1,4,-1
 242 709 l 1,5,-1
 242 284 l 1,6,-1
 147 284 l 1,7,-1
 147 573 l 1,0,-1
587 715 m 1,8,-1
 674 715 l 1,9,-1
 251 -20 l 1,10,-1
 164 -20 l 1,11,-1
 587 715 l 1,8,-1
846 300 m 0,12,13
 846 258 846 258 826 227 c 128,-1,14
 806 196 806 196 780 179 c 128,-1,15
 754 162 754 162 717 135 c 128,-1,16
 680 108 680 108 657 81 c 1,17,-1
 844 81 l 1,18,-1
 844 0 l 1,19,-1
 534 0 l 1,20,21
 536 46 536 46 552.5 82 c 128,-1,22
 569 118 569 118 593 137.5 c 128,-1,23
 617 157 617 157 645 176 c 128,-1,24
 673 195 673 195 696.5 209 c 128,-1,25
 720 223 720 223 735.5 245 c 128,-1,26
 751 267 751 267 751 296 c 0,27,28
 751 326 751 326 735 343 c 128,-1,29
 719 360 719 360 690 360 c 128,-1,30
 661 360 661 360 645.5 341.5 c 128,-1,31
 630 323 630 323 630 289 c 0,32,33
 630 287 630 287 632 273 c 1,34,-1
 540 273 l 1,35,36
 539 281 539 281 539 291 c 0,37,38
 539 360 539 360 579.5 397 c 128,-1,39
 620 434 620 434 695 434 c 0,40,41
 768 434 768 434 807 399.5 c 128,-1,42
 846 365 846 365 846 300 c 0,12,13
EndSplineSet
EndChar

StartChar: threequarters
Encoding: 190 190 128
Width: 869
GlyphClass: 2
Flags: W
LayerCount: 2
Fore
SplineSet
22 571 m 1,0,1
 28 718 28 718 170 718 c 0,2,3
 236 718 236 718 275.5 686 c 128,-1,4
 315 654 315 654 315 601 c 0,5,6
 315 544 315 544 263 512 c 1,7,8
 329 480 329 480 329 409 c 0,9,10
 329 346 329 346 285.5 308.5 c 128,-1,11
 242 271 242 271 170 271 c 0,12,13
 97 271 97 271 56.5 308.5 c 128,-1,14
 16 346 16 346 15 414 c 1,15,-1
 107 414 l 1,16,17
 111 348 111 348 172 348 c 0,18,19
 199 348 199 348 216.5 365 c 128,-1,20
 234 382 234 382 234 408 c 0,21,22
 234 469 234 469 150 471 c 2,23,-1
 134 471 l 1,24,-1
 134 533 l 1,25,-1
 145 533 l 2,26,27
 220 533 220 533 220 591 c 0,28,29
 220 616 220 616 205.5 630.5 c 128,-1,30
 191 645 191 645 167 645 c 0,31,32
 134 645 134 645 122 626 c 128,-1,33
 110 607 110 607 110 571 c 1,34,-1
 22 571 l 1,0,1
625 715 m 1,35,-1
 712 715 l 1,36,-1
 289 -20 l 1,37,-1
 202 -20 l 1,38,-1
 625 715 l 1,35,-1
850 168 m 1,39,-1
 850 93 l 1,40,-1
 804 93 l 1,41,-1
 804 0 l 1,42,-1
 709 0 l 1,43,-1
 709 93 l 1,44,-1
 530 93 l 1,45,-1
 530 167 l 1,46,-1
 695 425 l 1,47,-1
 804 425 l 1,48,-1
 804 168 l 1,49,-1
 850 168 l 1,39,-1
709 168 m 1,50,-1
 709 332 l 1,51,-1
 603 168 l 1,52,-1
 709 168 l 1,50,-1
EndSplineSet
EndChar

StartChar: AE
Encoding: 198 198 136
Width: 1000
GlyphClass: 2
Flags: W
LayerCount: 2
Fore
SplineSet
430 152 m 1,0,-1
 207 152 l 1,1,-1
 154 0 l 1,2,-1
 1 0 l 1,3,-1
 264 729 l 1,4,-1
 946 729 l 1,5,-1
 946 604 l 1,6,-1
 580 604 l 1,7,-1
 580 439 l 1,8,-1
 919 439 l 1,9,-1
 919 314 l 1,10,-1
 580 314 l 1,11,-1
 580 125 l 1,12,-1
 966 125 l 1,13,-1
 966 0 l 1,14,-1
 430 0 l 1,15,-1
 430 152 l 1,0,-1
430 277 m 1,16,-1
 430 604 l 1,17,-1
 363 604 l 1,18,-1
 249 277 l 1,19,-1
 430 277 l 1,16,-1
EndSplineSet
EndChar

StartChar: Ccedilla
Encoding: 199 199 137
Width: 722
GlyphClass: 2
Flags: W
LayerCount: 2
Fore
SplineSet
539 482 m 1,0,1
 511 613 511 613 383 613 c 0,2,3
 294 613 294 613 244 545 c 128,-1,4
 194 477 194 477 194 356 c 0,5,6
 194 237 194 237 242.5 170 c 128,-1,7
 291 103 291 103 378 103 c 0,8,9
 448 103 448 103 490 141 c 128,-1,10
 532 179 532 179 539 249 c 1,11,-1
 685 249 l 1,12,13
 679 125 679 125 597.5 52.5 c 128,-1,14
 516 -20 516 -20 379 -23 c 1,15,-1
 360 -63 l 1,16,17
 380 -56 380 -56 402 -56 c 0,18,19
 437 -56 437 -56 457.5 -75 c 128,-1,20
 478 -94 478 -94 478 -127 c 0,21,22
 478 -172 478 -172 444.5 -196 c 128,-1,23
 411 -220 411 -220 349 -220 c 0,24,25
 294 -220 294 -220 211 -192 c 1,26,-1
 230 -140 l 1,27,28
 299 -170 299 -170 335 -170 c 0,29,30
 359 -170 359 -170 375.5 -158 c 128,-1,31
 392 -146 392 -146 392 -129 c 0,32,33
 392 -113 392 -113 378 -103.5 c 128,-1,34
 364 -94 364 -94 341 -94 c 0,35,36
 317 -94 317 -94 292 -106 c 1,37,-1
 335 -23 l 1,38,39
 266 -11 266 -11 228.5 5.5 c 128,-1,40
 191 22 191 22 155 56 c 0,41,42
 44 162 44 162 44 358 c 0,43,44
 44 535 44 535 134 638 c 128,-1,45
 224 741 224 741 378 741 c 0,46,47
 507 741 507 741 589.5 672 c 128,-1,48
 672 603 672 603 682 482 c 1,49,-1
 539 482 l 1,0,1
EndSplineSet
EndChar

StartChar: Eth
Encoding: 208 208 146
Width: 722
GlyphClass: 2
Flags: W
LayerCount: 2
Fore
SplineSet
77 339 m 1,0,-1
 0 339 l 1,1,-1
 0 419 l 1,2,-1
 77 419 l 1,3,-1
 77 729 l 1,4,-1
 362 729 l 2,5,6
 449 729 449 729 503 709.5 c 128,-1,7
 557 690 557 690 593 645 c 0,8,9
 635 594 635 594 658 520 c 128,-1,10
 681 446 681 446 681 365 c 128,-1,11
 681 284 681 284 657.5 210.5 c 128,-1,12
 634 137 634 137 593 85 c 0,13,14
 557 40 557 40 502.5 20 c 128,-1,15
 448 0 448 0 362 0 c 2,16,-1
 77 0 l 1,17,-1
 77 339 l 1,0,-1
537 364 m 0,18,19
 537 493 537 493 492 548.5 c 128,-1,20
 447 604 447 604 362 604 c 2,21,-1
 227 604 l 1,22,-1
 227 419 l 1,23,-1
 377 419 l 1,24,-1
 377 339 l 1,25,-1
 227 339 l 1,26,-1
 227 125 l 1,27,-1
 362 125 l 2,28,29
 444 125 444 125 490.5 178 c 128,-1,30
 537 231 537 231 537 364 c 0,18,19
EndSplineSet
EndChar

StartChar: multiply
Encoding: 215 215 153
Width: 584
GlyphClass: 2
Flags: W
LayerCount: 2
Fore
SplineSet
421 444 m 1,0,-1
 505 360 l 1,1,-1
 376 231 l 1,2,-1
 504 102 l 1,3,-1
 420 18 l 1,4,-1
 292 147 l 1,5,-1
 164 19 l 1,6,-1
 80 103 l 1,7,-1
 208 231 l 1,8,-1
 79 359 l 1,9,-1
 163 444 l 1,10,-1
 292 315 l 1,11,-1
 421 444 l 1,0,-1
EndSplineSet
EndChar

StartChar: Oslash
Encoding: 216 216 154
Width: 778
GlyphClass: 2
Flags: W
LayerCount: 2
Fore
SplineSet
740 357 m 0,0,1
 740 194 740 194 644 85.5 c 128,-1,2
 548 -23 548 -23 388 -23 c 0,3,4
 252 -23 252 -23 165 52 c 1,5,-1
 82 -39 l 1,6,-1
 31 7 l 1,7,-1
 117 102 l 1,8,9
 35 212 35 212 35 359 c 0,10,11
 35 526 35 526 132 633.5 c 128,-1,12
 229 741 229 741 388 741 c 0,13,14
 525 741 525 741 620 657 c 1,15,-1
 703 749 l 1,16,-1
 755 704 l 1,17,-1
 666 605 l 1,18,19
 740 504 740 504 740 357 c 0,0,1
567 497 m 1,20,-1
 256 153 l 1,21,22
 306 105 306 105 388 105 c 0,23,24
 480 105 480 105 535 175 c 128,-1,25
 590 245 590 245 590 361 c 0,26,27
 590 436 590 436 567 497 c 1,20,-1
214 209 m 1,28,-1
 528 555 l 1,29,30
 473 613 473 613 388 613 c 0,31,32
 295 613 295 613 240 543 c 128,-1,33
 185 473 185 473 185 356 c 0,34,35
 185 273 185 273 214 209 c 1,28,-1
EndSplineSet
EndChar

StartChar: Thorn
Encoding: 222 222 160
Width: 667
GlyphClass: 2
Flags: W
LayerCount: 2
Fore
SplineSet
398 609 m 2,0,1
 633 609 633 609 633 382 c 0,2,3
 633 270 633 270 573.5 205 c 128,-1,4
 514 140 514 140 413 140 c 2,5,-1
 226 140 l 1,6,-1
 226 0 l 1,7,-1
 76 0 l 1,8,-1
 76 729 l 1,9,-1
 226 729 l 1,10,-1
 226 609 l 1,11,-1
 398 609 l 2,0,1
226 265 m 1,12,-1
 366 265 l 2,13,14
 483 265 483 265 483 374 c 0,15,16
 483 430 483 430 454.5 457 c 128,-1,17
 426 484 426 484 366 484 c 2,18,-1
 226 484 l 1,19,-1
 226 265 l 1,12,-1
EndSplineSet
EndChar

StartChar: germandbls
Encoding: 223 223 161
Width: 611
GlyphClass: 2
Flags: W
LayerCount: 2
Fore
SplineSet
445 411 m 1,0,1
 463 407 463 407 480.5 399.5 c 128,-1,2
 498 392 498 392 522 374 c 128,-1,3
 546 356 546 356 560.5 320.5 c 128,-1,4
 575 285 575 285 575 236 c 0,5,6
 575 122 575 122 515 52.5 c 128,-1,7
 455 -17 455 -17 357 -17 c 0,8,9
 334 -17 334 -17 285 -11 c 1,10,-1
 285 101 l 1,11,12
 291 102 291 102 298 102 c 2,13,-1
 318 103 l 2,14,15
 370 104 370 104 402.5 138.5 c 128,-1,16
 435 173 435 173 435 226 c 0,17,18
 435 283 435 283 398.5 316 c 128,-1,19
 362 349 362 349 298 349 c 2,20,-1
 285 349 l 1,21,-1
 285 444 l 1,22,-1
 294 444 l 2,23,24
 339 445 339 445 365.5 469 c 128,-1,25
 392 493 392 493 392 533 c 0,26,27
 392 572 392 572 366 594 c 128,-1,28
 340 616 340 616 294 616 c 0,29,30
 253 616 253 616 230 595 c 128,-1,31
 207 574 207 574 207 537 c 2,32,-1
 207 0 l 1,33,-1
 67 0 l 1,34,-1
 67 518 l 2,35,36
 67 614 67 614 119.5 671.5 c 128,-1,37
 172 729 172 729 303 729 c 0,38,39
 404 729 404 729 468 678 c 128,-1,40
 532 627 532 627 532 547 c 0,41,42
 532 445 532 445 445 411 c 1,0,1
EndSplineSet
EndChar

StartChar: ae
Encoding: 230 230 168
Width: 889
GlyphClass: 2
Flags: W
LayerCount: 2
Fore
SplineSet
495 226 m 1,0,1
 495 84 495 84 609 84 c 0,2,3
 645 84 645 84 674.5 103.5 c 128,-1,4
 704 123 704 123 713 152 c 1,5,-1
 851 152 l 1,6,7
 828 72 828 72 760 24.5 c 128,-1,8
 692 -23 692 -23 601 -23 c 0,9,10
 465 -23 465 -23 401 81 c 1,11,12
 312 -24 312 -24 196 -24 c 0,13,14
 119 -24 119 -24 73.5 20.5 c 128,-1,15
 28 65 28 65 28 141 c 0,16,17
 28 286 28 286 187 312 c 2,18,-1
 243 322 l 2,19,20
 271 327 271 327 295.5 330.5 c 128,-1,21
 320 334 320 334 337.5 347 c 128,-1,22
 355 360 355 360 355 383 c 0,23,24
 355 436 355 436 270 436 c 0,25,26
 223 436 223 436 201.5 419.5 c 128,-1,27
 180 403 180 403 175 362 c 1,28,-1
 44 362 l 1,29,30
 47 549 47 549 272 549 c 0,31,32
 389 549 389 549 447 499 c 1,33,34
 509 549 509 549 602 549 c 0,35,36
 648 549 648 549 690 535 c 128,-1,37
 732 521 732 521 771.5 489.5 c 128,-1,38
 811 458 811 458 834.5 396.5 c 128,-1,39
 858 335 858 335 858 250 c 0,40,41
 858 238 858 238 857 226 c 1,42,-1
 495 226 l 1,0,1
355 216 m 2,43,-1
 355 254 l 1,44,45
 333 241 333 241 296 235 c 2,46,-1
 248 228 l 2,47,48
 168 217 168 217 168 155 c 0,49,50
 168 124 168 124 188.5 106.5 c 128,-1,51
 209 89 209 89 244 89 c 0,52,53
 298 89 298 89 326.5 121.5 c 128,-1,54
 355 154 355 154 355 216 c 2,43,-1
496 319 m 1,55,-1
 712 319 l 1,56,57
 701 442 701 442 603 442 c 128,-1,58
 505 442 505 442 496 319 c 1,55,-1
EndSplineSet
EndChar

StartChar: ccedilla
Encoding: 231 231 169
Width: 556
GlyphClass: 2
Flags: W
LayerCount: 2
Fore
SplineSet
174 260 m 0,0,1
 174 218 174 218 183 182.5 c 128,-1,2
 192 147 192 147 219 118.5 c 128,-1,3
 246 90 246 90 289 90 c 0,4,5
 329 90 329 90 352 112.5 c 128,-1,6
 375 135 375 135 388 187 c 1,7,-1
 522 187 l 1,8,9
 514 94 514 94 450 35.5 c 128,-1,10
 386 -23 386 -23 293 -23 c 2,11,-1
 291 -23 l 1,12,-1
 274 -63 l 1,13,14
 292 -56 292 -56 315 -56 c 0,15,16
 351 -56 351 -56 371.5 -75 c 128,-1,17
 392 -94 392 -94 392 -127 c 0,18,19
 392 -172 392 -172 358.5 -196 c 128,-1,20
 325 -220 325 -220 263 -220 c 0,21,22
 205 -220 205 -220 125 -192 c 1,23,-1
 144 -140 l 1,24,25
 211 -170 211 -170 248 -170 c 0,26,27
 272 -170 272 -170 289 -158 c 128,-1,28
 306 -146 306 -146 306 -129 c 0,29,30
 306 -113 306 -113 292 -103.5 c 128,-1,31
 278 -94 278 -94 255 -94 c 0,32,33
 230 -94 230 -94 205 -106 c 1,34,-1
 248 -21 l 1,35,36
 144 -7 144 -7 89 65 c 128,-1,37
 34 137 34 137 34 259 c 0,38,39
 34 397 34 397 101 473 c 128,-1,40
 168 549 168 549 289 549 c 0,41,42
 390 549 390 549 452.5 493 c 128,-1,43
 515 437 515 437 522 338 c 1,44,-1
 388 338 l 1,45,46
 376 391 376 391 353.5 413.5 c 128,-1,47
 331 436 331 436 288 436 c 0,48,49
 174 436 174 436 174 260 c 0,0,1
EndSplineSet
EndChar

StartChar: eth
Encoding: 240 240 178
Width: 611
GlyphClass: 2
Flags: W
LayerCount: 2
Fore
SplineSet
192 741 m 1,0,1
 229 727 229 727 257.5 711 c 128,-1,2
 286 695 286 695 294 692 c 1,3,-1
 381 744 l 1,4,-1
 432 710 l 1,5,-1
 348 660 l 1,6,7
 461 583 461 583 515 488 c 128,-1,8
 569 393 569 393 569 269 c 0,9,10
 569 131 569 131 498.5 54 c 128,-1,11
 428 -23 428 -23 302 -23 c 0,12,13
 177 -23 177 -23 106 53.5 c 128,-1,14
 35 130 35 130 35 265 c 0,15,16
 35 386 35 386 101 460 c 128,-1,17
 167 534 167 534 274 534 c 0,18,19
 310 534 310 534 359 515 c 1,20,21
 319 579 319 579 264 611 c 1,22,-1
 187 565 l 1,23,-1
 145 602 l 1,24,-1
 215 646 l 1,25,26
 177 669 177 669 125 694 c 1,27,-1
 192 741 l 1,0,1
302 429 m 0,28,29
 245 429 245 429 210.5 382.5 c 128,-1,30
 176 336 176 336 176 260 c 0,31,32
 176 183 176 183 210.5 136.5 c 128,-1,33
 245 90 245 90 302 90 c 128,-1,34
 359 90 359 90 393.5 136 c 128,-1,35
 428 182 428 182 428 257 c 0,36,37
 428 336 428 336 394 382.5 c 128,-1,38
 360 429 360 429 302 429 c 0,28,29
EndSplineSet
EndChar

StartChar: divide
Encoding: 247 247 185
Width: 584
GlyphClass: 2
Flags: W
LayerCount: 2
Fore
SplineSet
534 291 m 1,0,-1
 534 172 l 1,1,-1
 50 172 l 1,2,-1
 50 291 l 1,3,-1
 534 291 l 1,0,-1
230 474 m 1,4,-1
 354 474 l 1,5,-1
 354 351 l 1,6,-1
 230 351 l 1,7,-1
 230 474 l 1,4,-1
230 112 m 1,8,-1
 354 112 l 1,9,-1
 354 -11 l 1,10,-1
 230 -11 l 1,11,-1
 230 112 l 1,8,-1
EndSplineSet
EndChar

StartChar: oslash
Encoding: 248 248 186
Width: 611
GlyphClass: 2
Flags: W
LayerCount: 2
Fore
SplineSet
126 35 m 1,0,-1
 54 -38 l 1,1,-1
 11 2 l 1,2,-1
 86 79 l 1,3,4
 36 151 36 151 36 263 c 0,5,6
 36 396 36 396 108 472.5 c 128,-1,7
 180 549 180 549 305 549 c 0,8,9
 412 549 412 549 487 487 c 1,10,-1
 555 557 l 1,11,-1
 598 516 l 1,12,-1
 526 443 l 1,13,14
 573 370 573 370 573 263 c 0,15,16
 573 130 573 130 501.5 53.5 c 128,-1,17
 430 -23 430 -23 306 -23 c 0,18,19
 190 -23 190 -23 126 35 c 1,0,-1
421 336 m 1,20,-1
 220 132 l 1,21,22
 256 90 256 90 306 90 c 0,23,24
 361 90 361 90 397 138 c 128,-1,25
 433 186 433 186 433 260 c 0,26,27
 433 300 433 300 421 336 c 1,20,-1
190 184 m 1,28,-1
 392 390 l 1,29,30
 353 437 353 437 303 437 c 0,31,32
 247 437 247 437 211.5 389 c 128,-1,33
 176 341 176 341 176 266 c 0,34,35
 176 220 176 220 190 184 c 1,28,-1
EndSplineSet
EndChar

StartChar: thorn
Encoding: 254 254 192
Width: 611
GlyphClass: 2
Flags: W
LayerCount: 2
Fore
SplineSet
198 729 m 1,0,-1
 198 460 l 1,1,2
 248 549 248 549 348 549 c 0,3,4
 445 549 445 549 509.5 467.5 c 128,-1,5
 574 386 574 386 574 262 c 0,6,7
 574 140 574 140 509.5 58.5 c 128,-1,8
 445 -23 445 -23 348 -23 c 0,9,10
 248 -23 248 -23 198 64 c 1,11,-1
 198 -218 l 1,12,-1
 58 -218 l 1,13,-1
 58 729 l 1,14,-1
 198 729 l 1,0,-1
316 432 m 128,-1,16
 263 432 263 432 230.5 385 c 128,-1,17
 198 338 198 338 198 262 c 0,18,19
 198 187 198 187 230.5 140.5 c 128,-1,20
 263 94 263 94 316 94 c 0,21,22
 368 94 368 94 401 140.5 c 128,-1,23
 434 187 434 187 434 260 c 0,24,25
 434 337 434 337 401.5 384.5 c 128,-1,15
 369 432 369 432 316 432 c 128,-1,16
EndSplineSet
EndChar

StartChar: Aogonek
Encoding: 260 260 198
Width: 722
GlyphClass: 2
Flags: W
LayerCount: 2
Fore
SplineSet
501 147 m 1,0,-1
 228 147 l 1,1,-1
 179 0 l 1,2,-1
 26 0 l 1,3,-1
 285 729 l 1,4,-1
 452 729 l 1,5,-1
 703 0 l 1,6,7
 651 -23 651 -23 620.5 -57.5 c 128,-1,8
 590 -92 590 -92 590 -129 c 0,9,10
 590 -182 590 -182 666 -182 c 0,11,12
 693 -182 693 -182 723 -177 c 1,13,-1
 723 -224 l 1,14,15
 687 -233 687 -233 648 -233 c 0,16,17
 578 -233 578 -233 539 -208 c 128,-1,18
 500 -183 500 -183 500 -138 c 0,19,20
 500 -94 500 -94 532.5 -57.5 c 128,-1,21
 565 -21 565 -21 624 0 c 1,22,-1
 549 0 l 1,23,-1
 501 147 l 1,0,-1
461 272 m 1,24,-1
 366 557 l 1,25,-1
 270 272 l 1,26,-1
 461 272 l 1,24,-1
EndSplineSet
EndChar

StartChar: aogonek
Encoding: 261 261 199
Width: 556
GlyphClass: 2
Flags: W
LayerCount: 2
Fore
SplineSet
192 -23 m 0,0,1
 118 -23 118 -23 73 21.5 c 128,-1,2
 28 66 28 66 28 139 c 0,3,4
 28 282 28 282 187 309 c 2,5,-1
 243 319 l 2,6,7
 260 320 260 320 280 324 c 128,-1,8
 300 328 300 328 316.5 333 c 128,-1,9
 333 338 333 338 344 350.5 c 128,-1,10
 355 363 355 363 355 382 c 0,11,12
 355 436 355 436 274 436 c 0,13,14
 222 436 222 436 201 420 c 128,-1,15
 180 404 180 404 175 362 c 1,16,-1
 40 362 l 1,17,18
 53 549 53 549 271 549 c 0,19,20
 492 549 492 549 492 383 c 2,21,-1
 492 83 l 2,22,23
 492 46 492 46 524 17 c 1,24,-1
 524 0 l 1,25,26
 415 -58 415 -58 415 -129 c 0,27,28
 415 -182 415 -182 491 -182 c 0,29,30
 516 -182 516 -182 548 -177 c 1,31,-1
 548 -224 l 1,32,33
 512 -233 512 -233 473 -233 c 0,34,35
 403 -233 403 -233 364 -208 c 128,-1,36
 325 -183 325 -183 325 -139 c 128,-1,37
 325 -95 325 -95 358 -57.5 c 128,-1,38
 391 -20 391 -20 449 0 c 1,39,-1
 372 0 l 1,40,41
 356 20 356 20 356 54 c 1,42,43
 282 -23 282 -23 192 -23 c 0,0,1
355 217 m 2,44,-1
 355 255 l 1,45,46
 336 246 336 246 296 238 c 2,47,-1
 248 229 l 2,48,49
 204 220 204 220 186 203 c 128,-1,50
 168 186 168 186 168 155 c 0,51,52
 168 125 168 125 188.5 107.5 c 128,-1,53
 209 90 209 90 244 90 c 0,54,55
 297 90 297 90 326 123 c 128,-1,56
 355 156 355 156 355 217 c 2,44,-1
EndSplineSet
EndChar

StartChar: dcroat
Encoding: 273 273 211
Width: 611
GlyphClass: 2
Flags: W
LayerCount: 2
Fore
SplineSet
405 596 m 1,0,-1
 272 596 l 1,1,-1
 272 663 l 1,2,-1
 405 663 l 1,3,-1
 405 729 l 1,4,-1
 545 729 l 1,5,-1
 545 663 l 1,6,-1
 605 663 l 1,7,-1
 605 596 l 1,8,-1
 545 596 l 1,9,-1
 545 0 l 1,10,-1
 405 0 l 1,11,-1
 405 55 l 1,12,13
 353 -23 353 -23 256 -23 c 128,-1,14
 159 -23 159 -23 94 59 c 128,-1,15
 29 141 29 141 29 262 c 0,16,17
 29 384 29 384 94 466.5 c 128,-1,18
 159 549 159 549 256 549 c 0,19,20
 354 549 354 549 405 470 c 1,21,-1
 405 596 l 1,0,-1
287 432 m 0,22,23
 235 432 235 432 202 384.5 c 128,-1,24
 169 337 169 337 169 262 c 0,25,26
 169 188 169 188 202 141 c 128,-1,27
 235 94 235 94 287 94 c 128,-1,28
 339 94 339 94 372 140 c 128,-1,29
 405 186 405 186 405 260 c 0,30,31
 405 337 405 337 372.5 384.5 c 128,-1,32
 340 432 340 432 287 432 c 0,22,23
EndSplineSet
EndChar

StartChar: Eogonek
Encoding: 280 280 218
Width: 667
GlyphClass: 2
Flags: W
LayerCount: 2
Fore
SplineSet
229 314 m 1,0,-1
 229 125 l 1,1,-1
 624 125 l 1,2,-1
 624 0 l 1,3,4
 515 -58 515 -58 515 -129 c 0,5,6
 515 -182 515 -182 591 -182 c 0,7,8
 618 -182 618 -182 648 -177 c 1,9,-1
 648 -224 l 1,10,11
 608 -233 608 -233 574 -233 c 0,12,13
 503 -233 503 -233 464 -208 c 128,-1,14
 425 -183 425 -183 425 -138 c 0,15,16
 425 -57 425 -57 550 0 c 1,17,-1
 79 0 l 1,18,-1
 79 729 l 1,19,-1
 606 729 l 1,20,-1
 606 604 l 1,21,-1
 229 604 l 1,22,-1
 229 439 l 1,23,-1
 578 439 l 1,24,-1
 578 314 l 1,25,-1
 229 314 l 1,0,-1
EndSplineSet
EndChar

StartChar: eogonek
Encoding: 281 281 219
Width: 556
GlyphClass: 2
Flags: W
LayerCount: 2
Fore
SplineSet
518 152 m 1,0,1
 506 110 506 110 476 69 c 128,-1,2
 446 28 446 28 418 2 c 128,-1,3
 390 -24 390 -24 367.5 -60 c 128,-1,4
 345 -96 345 -96 345 -131 c 0,5,6
 345 -183 345 -183 421 -183 c 0,7,8
 450 -183 450 -183 478 -177 c 1,9,-1
 478 -224 l 1,10,11
 439 -234 439 -234 399 -234 c 0,12,13
 332 -234 332 -234 293.5 -208 c 128,-1,14
 255 -182 255 -182 255 -137 c 0,15,16
 255 -103 255 -103 276 -75.5 c 128,-1,17
 297 -48 297 -48 350 -11 c 1,18,19
 303 -24 303 -24 268 -24 c 0,20,21
 154 -24 154 -24 87.5 51 c 128,-1,22
 21 126 21 126 21 256 c 0,23,24
 21 392 21 392 88 470.5 c 128,-1,25
 155 549 155 549 271 549 c 0,26,27
 317 549 317 549 358.5 535 c 128,-1,28
 400 521 400 521 439 489.5 c 128,-1,29
 478 458 478 458 501.5 396.5 c 128,-1,30
 525 335 525 335 525 250 c 0,31,32
 525 238 525 238 524 226 c 1,33,-1
 162 226 l 1,34,35
 165 157 165 157 188 120 c 128,-1,36
 211 83 211 83 274 83 c 0,37,38
 353 83 353 83 380 152 c 1,39,-1
 518 152 l 1,0,1
379 319 m 1,40,41
 374 379 374 379 345.5 410.5 c 128,-1,42
 317 442 317 442 270 442 c 0,43,44
 176 442 176 442 163 319 c 1,45,-1
 379 319 l 1,40,41
EndSplineSet
EndChar

StartChar: Hbar
Encoding: 294 294 232
Width: 722
GlyphClass: 2
Flags: W
LayerCount: 2
Fore
SplineSet
657 599 m 1,0,-1
 717 599 l 1,1,-1
 717 532 l 1,2,-1
 657 532 l 1,3,-1
 657 0 l 1,4,-1
 507 0 l 1,5,-1
 507 331 l 1,6,-1
 218 331 l 1,7,-1
 218 0 l 1,8,-1
 68 0 l 1,9,-1
 68 532 l 1,10,-1
 8 532 l 1,11,-1
 8 599 l 1,12,-1
 68 599 l 1,13,-1
 68 729 l 1,14,-1
 218 729 l 1,15,-1
 218 599 l 1,16,-1
 506 599 l 1,17,-1
 506 729 l 1,18,-1
 657 729 l 1,19,-1
 657 599 l 1,0,-1
506 532 m 1,20,-1
 218 532 l 1,21,-1
 218 456 l 1,22,-1
 506 456 l 1,23,-1
 506 532 l 1,20,-1
EndSplineSet
EndChar

StartChar: hbar
Encoding: 295 295 233
Width: 611
GlyphClass: 2
Flags: W
LayerCount: 2
Fore
SplineSet
401 330 m 2,0,1
 401 430 401 430 315 430 c 0,2,3
 268 430 268 430 237.5 400 c 128,-1,4
 207 370 207 370 207 324 c 2,5,-1
 207 0 l 1,6,-1
 67 0 l 1,7,-1
 67 596 l 1,8,-1
 8 596 l 1,9,-1
 8 663 l 1,10,-1
 67 663 l 1,11,-1
 67 729 l 1,12,-1
 207 729 l 1,13,-1
 207 663 l 1,14,-1
 341 663 l 1,15,-1
 341 596 l 1,16,-1
 207 596 l 1,17,-1
 207 462 l 1,18,19
 265 549 265 549 365 549 c 0,20,21
 397 549 397 549 425.5 540.5 c 128,-1,22
 454 532 454 532 481.5 512.5 c 128,-1,23
 509 493 509 493 525 454 c 128,-1,24
 541 415 541 415 541 362 c 2,25,-1
 541 0 l 1,26,-1
 401 0 l 1,27,-1
 401 330 l 2,0,1
EndSplineSet
EndChar

StartChar: Iogonek
Encoding: 302 302 240
Width: 278
GlyphClass: 2
Flags: W
LayerCount: 2
Fore
SplineSet
213 729 m 1,0,-1
 213 0 l 1,1,2
 124 -64 124 -64 124 -131 c 0,3,4
 124 -153 124 -153 141.5 -167.5 c 128,-1,5
 159 -182 159 -182 187 -182 c 0,6,7
 210 -182 210 -182 237 -177 c 1,8,-1
 237 -224 l 1,9,10
 198 -233 198 -233 167 -233 c 0,11,12
 105 -233 105 -233 69.5 -207 c 128,-1,13
 34 -181 34 -181 34 -136 c 0,14,15
 34 -60 34 -60 147 0 c 1,16,-1
 63 0 l 1,17,-1
 63 729 l 1,18,-1
 213 729 l 1,0,-1
EndSplineSet
EndChar

StartChar: iogonek
Encoding: 303 303 241
Width: 278
GlyphClass: 2
Flags: W
LayerCount: 2
Fore
SplineSet
124 -128 m 0,0,1
 124 -158 124 -158 143 -170 c 128,-1,2
 162 -182 162 -182 187 -182 c 0,3,4
 202 -182 202 -182 231 -177 c 1,5,-1
 231 -224 l 1,6,7
 191 -233 191 -233 168 -233 c 0,8,9
 106 -233 106 -233 70 -207 c 128,-1,10
 34 -181 34 -181 34 -136 c 0,11,12
 34 -65 34 -65 144 0 c 1,13,-1
 67 0 l 1,14,-1
 67 540 l 1,15,-1
 207 540 l 1,16,-1
 207 0 l 1,17,18
 124 -58 124 -58 124 -128 c 0,0,1
207 729 m 1,19,-1
 207 604 l 1,20,-1
 67 604 l 1,21,-1
 67 729 l 1,22,-1
 207 729 l 1,19,-1
EndSplineSet
EndChar

StartChar: dotlessi
Encoding: 305 305 243
Width: 278
GlyphClass: 2
Flags: W
LayerCount: 2
Fore
SplineSet
207 540 m 1,0,-1
 207 0 l 1,1,-1
 67 0 l 1,2,-1
 67 540 l 1,3,-1
 207 540 l 1,0,-1
EndSplineSet
EndChar

StartChar: IJ
Encoding: 306 306 244
Width: 593
GlyphClass: 3
Flags: W
LayerCount: 2
Fore
SplineSet
213 729 m 1,0,-1
 213 360 l 1,1,-1
 63 360 l 1,2,-1
 63 729 l 1,3,-1
 213 729 l 1,0,-1
291 -23 m 0,4,5
 250 -23 250 -23 212.5 -13 c 128,-1,6
 175 -3 175 -3 140 20.5 c 128,-1,7
 105 44 105 44 84 89.5 c 128,-1,8
 63 135 63 135 63 198 c 2,9,-1
 63 270 l 1,10,-1
 213 270 l 1,11,-1
 213 200 l 2,12,13
 213 150 213 150 232 127.5 c 128,-1,14
 251 105 251 105 294 105 c 0,15,16
 333 105 333 105 354 127 c 128,-1,17
 375 149 375 149 375 190 c 2,18,-1
 375 729 l 1,19,-1
 525 729 l 1,20,-1
 525 190 l 2,21,22
 525 88 525 88 464 32.5 c 128,-1,23
 403 -23 403 -23 291 -23 c 0,4,5
EndSplineSet
Ligature2: "'liga' Standard Ligatures in Latin lookup 1 subtable" I J
EndChar

StartChar: Lslash
Encoding: 321 321 259
Width: 611
GlyphClass: 2
Flags: W
LayerCount: 2
Fore
SplineSet
230 423 m 1,0,-1
 395 535 l 1,1,-1
 395 447 l 1,2,-1
 230 334 l 1,3,-1
 230 125 l 1,4,-1
 597 125 l 1,5,-1
 597 0 l 1,6,-1
 80 0 l 1,7,-1
 80 257 l 1,8,-1
 0 201 l 1,9,-1
 0 290 l 1,10,-1
 80 346 l 1,11,-1
 80 729 l 1,12,-1
 230 729 l 1,13,-1
 230 423 l 1,0,-1
EndSplineSet
EndChar

StartChar: lslash
Encoding: 322 322 260
Width: 278
GlyphClass: 2
Flags: W
LayerCount: 2
Fore
SplineSet
196 442 m 1,0,-1
 252 482 l 1,1,-1
 252 403 l 1,2,-1
 196 363 l 1,3,-1
 196 0 l 1,4,-1
 56 0 l 1,5,-1
 56 294 l 1,6,-1
 0 254 l 1,7,-1
 0 333 l 1,8,-1
 56 373 l 1,9,-1
 56 729 l 1,10,-1
 196 729 l 1,11,-1
 196 442 l 1,0,-1
EndSplineSet
EndChar

StartChar: Eng
Encoding: 330 330 268
Width: 722
GlyphClass: 2
Flags: W
LayerCount: 2
Fore
SplineSet
661 729 m 1,0,-1
 661 -94 l 2,1,2
 661 -160 661 -160 631.5 -189 c 128,-1,3
 602 -218 602 -218 537 -218 c 0,4,5
 501 -218 501 -218 454 -213 c 1,6,-1
 454 -101 l 1,7,8
 467 -105 467 -105 469 -105 c 0,9,10
 492 -105 492 -105 501.5 -95.5 c 128,-1,11
 511 -86 511 -86 511 -63 c 2,12,-1
 511 0 l 1,13,-1
 218 504 l 1,14,-1
 218 0 l 1,15,-1
 68 0 l 1,16,-1
 68 729 l 1,17,-1
 222 729 l 1,18,-1
 511 233 l 1,19,-1
 511 729 l 1,20,-1
 661 729 l 1,0,-1
EndSplineSet
EndChar

StartChar: eng
Encoding: 331 331 269
Width: 611
GlyphClass: 2
Flags: W
LayerCount: 2
Fore
SplineSet
63 540 m 1,0,-1
 203 540 l 1,1,-1
 203 462 l 1,2,3
 261 549 261 549 365 549 c 0,4,5
 451 549 451 549 498.5 500 c 128,-1,6
 546 451 546 451 546 362 c 2,7,-1
 546 -94 l 2,8,9
 546 -160 546 -160 517 -189 c 128,-1,10
 488 -218 488 -218 423 -218 c 0,11,12
 387 -218 387 -218 340 -213 c 1,13,-1
 340 -101 l 1,14,15
 353 -105 353 -105 365 -105 c 0,16,17
 388 -105 388 -105 397 -95.5 c 128,-1,18
 406 -86 406 -86 406 -63 c 2,19,-1
 406 333 l 2,20,21
 406 430 406 430 316 430 c 0,22,23
 265 430 265 430 234 401 c 128,-1,24
 203 372 203 372 203 324 c 2,25,-1
 203 0 l 1,26,-1
 63 0 l 1,27,-1
 63 540 l 1,0,-1
EndSplineSet
EndChar

StartChar: OE
Encoding: 338 338 276
Width: 1000
GlyphClass: 2
Flags: W
LayerCount: 2
Fore
SplineSet
624 314 m 1,0,-1
 624 125 l 1,1,-1
 970 125 l 1,2,-1
 970 0 l 1,3,-1
 480 0 l 1,4,-1
 480 59 l 1,5,6
 443 13 443 13 409.5 -5 c 128,-1,7
 376 -23 376 -23 325 -23 c 0,8,9
 195 -23 195 -23 111.5 84.5 c 128,-1,10
 28 192 28 192 28 359 c 0,11,12
 28 528 28 528 112 634.5 c 128,-1,13
 196 741 196 741 329 741 c 0,14,15
 377 741 377 741 410.5 726.5 c 128,-1,16
 444 712 444 712 480 677 c 1,17,-1
 480 729 l 1,18,-1
 951 729 l 1,19,-1
 951 604 l 1,20,-1
 624 604 l 1,21,-1
 624 439 l 1,22,-1
 923 439 l 1,23,-1
 923 314 l 1,24,-1
 624 314 l 1,0,-1
474 178 m 1,25,-1
 474 540 l 1,26,27
 432 613 432 613 356 613 c 0,28,29
 276 613 276 613 227 543.5 c 128,-1,30
 178 474 178 474 178 359 c 0,31,32
 178 245 178 245 227 175 c 128,-1,33
 276 105 276 105 355 105 c 0,34,35
 432 105 432 105 474 178 c 1,25,-1
EndSplineSet
EndChar

StartChar: oe
Encoding: 339 339 277
Width: 953
GlyphClass: 2
Flags: W
LayerCount: 2
Fore
SplineSet
569 226 m 1,0,1
 572 84 572 84 683 84 c 0,2,3
 720 84 720 84 749 103 c 128,-1,4
 778 122 778 122 788 152 c 1,5,-1
 926 152 l 1,6,7
 902 72 902 72 834 24.5 c 128,-1,8
 766 -23 766 -23 676 -23 c 0,9,10
 563 -23 563 -23 497 52 c 1,11,12
 420 -23 420 -23 302 -23 c 0,13,14
 177 -23 177 -23 106 53.5 c 128,-1,15
 35 130 35 130 35 263 c 128,-1,16
 35 396 35 396 106 472.5 c 128,-1,17
 177 549 177 549 302 549 c 0,18,19
 424 549 424 549 497 473 c 1,20,21
 562 549 562 549 677 549 c 0,22,23
 713 549 713 549 746.5 541 c 128,-1,24
 780 533 780 533 814.5 512 c 128,-1,25
 849 491 849 491 874.5 458.5 c 128,-1,26
 900 426 900 426 916 372.5 c 128,-1,27
 932 319 932 319 932 250 c 0,28,29
 932 238 932 238 931 226 c 1,30,-1
 569 226 l 1,0,1
302 436 m 0,31,32
 245 436 245 436 210 388 c 128,-1,33
 175 340 175 340 175 263 c 128,-1,34
 175 186 175 186 210 138 c 128,-1,35
 245 90 245 90 302 90 c 0,36,37
 358 90 358 90 393.5 137.5 c 128,-1,38
 429 185 429 185 429 261 c 0,39,40
 429 341 429 341 394.5 388.5 c 128,-1,41
 360 436 360 436 302 436 c 0,31,32
786 319 m 1,42,43
 780 379 780 379 752.5 410.5 c 128,-1,44
 725 442 725 442 678 442 c 0,45,46
 582 442 582 442 571 319 c 1,47,-1
 786 319 l 1,42,43
EndSplineSet
EndChar

StartChar: Scedilla
Encoding: 350 350 288
Width: 667
GlyphClass: 2
Flags: W
LayerCount: 2
Fore
SplineSet
340 -23 m 1,0,-1
 323 -62 l 1,1,2
 346 -56 346 -56 364 -56 c 0,3,4
 400 -56 400 -56 420.5 -75 c 128,-1,5
 441 -94 441 -94 441 -127 c 0,6,7
 441 -172 441 -172 407.5 -196 c 128,-1,8
 374 -220 374 -220 312 -220 c 0,9,10
 255 -220 255 -220 174 -192 c 1,11,-1
 193 -140 l 1,12,13
 261 -170 261 -170 298 -170 c 0,14,15
 322 -170 322 -170 338.5 -158 c 128,-1,16
 355 -146 355 -146 355 -129 c 0,17,18
 355 -113 355 -113 341 -103.5 c 128,-1,19
 327 -94 327 -94 304 -94 c 0,20,21
 280 -94 280 -94 255 -106 c 1,22,-1
 297 -23 l 1,23,24
 169 -10 169 -10 104.5 49 c 128,-1,25
 40 108 40 108 32 218 c 1,26,-1
 178 218 l 1,27,28
 182 159 182 159 224 128 c 128,-1,29
 266 97 266 97 342 97 c 0,30,31
 410 97 410 97 449.5 123 c 128,-1,32
 489 149 489 149 489 195 c 0,33,34
 489 239 489 239 458 263 c 128,-1,35
 427 287 427 287 352 301 c 2,36,-1
 250 321 l 2,37,38
 139 342 139 342 92 387 c 128,-1,39
 45 432 45 432 45 517 c 0,40,41
 45 624 45 624 117.5 682.5 c 128,-1,42
 190 741 190 741 321 741 c 0,43,44
 359 741 359 741 394.5 736 c 128,-1,45
 430 731 430 731 470 715.5 c 128,-1,46
 510 700 510 700 539 675.5 c 128,-1,47
 568 651 568 651 587.5 607.5 c 128,-1,48
 607 564 607 564 607 507 c 1,49,-1
 467 507 l 1,50,51
 459 621 459 621 314 621 c 0,52,53
 256 621 256 621 222 596.5 c 128,-1,54
 188 572 188 572 188 531 c 0,55,56
 188 491 188 491 217 471.5 c 128,-1,57
 246 452 246 452 326 436 c 2,58,-1
 440 414 l 2,59,60
 541 394 541 394 587 346.5 c 128,-1,61
 633 299 633 299 633 214 c 0,62,63
 633 -9 633 -9 340 -23 c 1,0,-1
EndSplineSet
EndChar

StartChar: scedilla
Encoding: 351 351 289
Width: 556
GlyphClass: 2
Flags: W
LayerCount: 2
Fore
SplineSet
166 157 m 1,0,1
 173 123 173 123 194.5 105 c 128,-1,2
 216 87 216 87 276 87 c 0,3,4
 325 87 325 87 352.5 101 c 128,-1,5
 380 115 380 115 380 140 c 0,6,7
 380 156 380 156 369.5 166 c 128,-1,8
 359 176 359 176 333 184 c 2,9,-1
 166 236 l 1,10,11
 154 237 154 237 134.5 246 c 128,-1,12
 115 255 115 255 95.5 266.5 c 128,-1,13
 76 278 76 278 62 305 c 128,-1,14
 48 332 48 332 48 369 c 0,15,16
 48 452 48 452 107.5 500.5 c 128,-1,17
 167 549 167 549 270 549 c 0,18,19
 379 549 379 549 441 500.5 c 128,-1,20
 503 452 503 452 505 366 c 1,21,-1
 370 366 l 1,22,23
 369 439 369 439 269 439 c 0,24,25
 232 439 232 439 210 425.5 c 128,-1,26
 188 412 188 412 188 389 c 0,27,28
 188 373 188 373 198 364.5 c 128,-1,29
 208 356 208 356 237 347 c 2,30,-1
 414 296 l 2,31,32
 520 265 520 265 520 160 c 0,33,34
 520 79 520 79 459 28 c 128,-1,35
 398 -23 398 -23 301 -23 c 2,36,-1
 283 -23 l 1,37,-1
 264 -63 l 1,38,39
 285 -56 285 -56 306 -56 c 0,40,41
 341 -56 341 -56 361.5 -75 c 128,-1,42
 382 -94 382 -94 382 -127 c 0,43,44
 382 -172 382 -172 349 -196 c 128,-1,45
 316 -220 316 -220 254 -220 c 0,46,47
 198 -220 198 -220 115 -192 c 1,48,-1
 134 -140 l 1,49,50
 203 -170 203 -170 239 -170 c 0,51,52
 263 -170 263 -170 279.5 -158 c 128,-1,53
 296 -146 296 -146 296 -129 c 0,54,55
 296 -113 296 -113 282 -103.5 c 128,-1,56
 268 -94 268 -94 245 -94 c 0,57,58
 221 -94 221 -94 196 -106 c 1,59,-1
 239 -22 l 1,60,61
 132 -9 132 -9 82.5 33 c 128,-1,62
 33 75 33 75 29 157 c 1,63,-1
 166 157 l 1,0,1
EndSplineSet
EndChar

StartChar: Tcedilla
Encoding: 354 354 292
Width: 611
GlyphClass: 2
Flags: W
LayerCount: 2
Fore
SplineSet
385 604 m 1,0,-1
 385 0 l 1,1,-1
 355 0 l 1,2,-1
 326 -63 l 1,3,4
 347 -56 347 -56 368 -56 c 0,5,6
 403 -56 403 -56 423.5 -75 c 128,-1,7
 444 -94 444 -94 444 -127 c 0,8,9
 444 -172 444 -172 410.5 -196 c 128,-1,10
 377 -220 377 -220 315 -220 c 0,11,12
 260 -220 260 -220 177 -192 c 1,13,-1
 196 -140 l 1,14,15
 265 -170 265 -170 301 -170 c 0,16,17
 325 -170 325 -170 341.5 -158 c 128,-1,18
 358 -146 358 -146 358 -129 c 0,19,20
 358 -113 358 -113 344 -103.5 c 128,-1,21
 330 -94 330 -94 307 -94 c 0,22,23
 283 -94 283 -94 258 -106 c 1,24,-1
 312 0 l 1,25,-1
 235 0 l 1,26,-1
 235 604 l 1,27,-1
 14 604 l 1,28,-1
 14 729 l 1,29,-1
 598 729 l 1,30,-1
 598 604 l 1,31,-1
 385 604 l 1,0,-1
EndSplineSet
EndChar

StartChar: tcedilla
Encoding: 355 355 293
Width: 333
GlyphClass: 2
Flags: W
LayerCount: 2
Fore
SplineSet
301 529 m 1,0,-1
 301 436 l 1,1,-1
 223 436 l 1,2,-1
 223 142 l 2,3,4
 223 106 223 106 232 94.5 c 128,-1,5
 241 83 241 83 269 83 c 0,6,7
 280 83 280 83 301 86 c 1,8,-1
 301 -12 l 1,9,10
 272 -21 272 -21 236 -23 c 1,11,-1
 208 -84 l 1,12,13
 229 -77 229 -77 250 -77 c 0,14,15
 285 -77 285 -77 305.5 -96 c 128,-1,16
 326 -115 326 -115 326 -148 c 0,17,18
 326 -193 326 -193 292.5 -217 c 128,-1,19
 259 -241 259 -241 197 -241 c 0,20,21
 142 -241 142 -241 59 -213 c 1,22,-1
 78 -161 l 1,23,24
 147 -191 147 -191 183 -191 c 0,25,26
 207 -191 207 -191 223.5 -179 c 128,-1,27
 240 -167 240 -167 240 -150 c 0,28,29
 240 -134 240 -134 226 -124.5 c 128,-1,30
 212 -115 212 -115 189 -115 c 0,31,32
 165 -115 165 -115 140 -127 c 1,33,-1
 194 -22 l 1,34,35
 83 -10 83 -10 83 104 c 2,36,-1
 83 436 l 1,37,-1
 14 436 l 1,38,-1
 14 529 l 1,39,-1
 83 529 l 1,40,-1
 83 674 l 1,41,-1
 223 674 l 1,42,-1
 223 529 l 1,43,-1
 301 529 l 1,0,-1
EndSplineSet
EndChar

StartChar: Tbar
Encoding: 358 358 296
Width: 611
GlyphClass: 2
Flags: W
LayerCount: 2
Fore
SplineSet
385 604 m 1,0,-1
 385 0 l 1,1,-1
 235 0 l 1,2,-1
 235 604 l 1,3,-1
 14 604 l 1,4,-1
 14 729 l 1,5,-1
 598 729 l 1,6,-1
 598 604 l 1,7,-1
 385 604 l 1,0,-1
EndSplineSet
EndChar

StartChar: tbar
Encoding: 359 359 297
Width: 333
GlyphClass: 2
Flags: W
LayerCount: 2
Fore
SplineSet
301 529 m 1,0,-1
 301 436 l 1,1,-1
 223 436 l 1,2,-1
 223 142 l 2,3,4
 223 106 223 106 232 94.5 c 128,-1,5
 241 83 241 83 269 83 c 0,6,7
 280 83 280 83 301 86 c 1,8,-1
 301 -12 l 1,9,10
 267 -23 267 -23 220 -23 c 0,11,12
 83 -23 83 -23 83 104 c 2,13,-1
 83 436 l 1,14,-1
 14 436 l 1,15,-1
 14 529 l 1,16,-1
 83 529 l 1,17,-1
 83 674 l 1,18,-1
 223 674 l 1,19,-1
 223 529 l 1,20,-1
 301 529 l 1,0,-1
EndSplineSet
EndChar

StartChar: Uogonek
Encoding: 370 370 308
Width: 722
GlyphClass: 2
Flags: W
LayerCount: 2
Fore
SplineSet
654 235 m 2,0,1
 654 175 654 175 634 127 c 128,-1,2
 614 79 614 79 586 47.5 c 128,-1,3
 558 16 558 16 530 -11 c 128,-1,4
 502 -38 502 -38 482 -68.5 c 128,-1,5
 462 -99 462 -99 462 -132 c 0,6,7
 462 -183 462 -183 539 -183 c 0,8,9
 568 -183 568 -183 597 -177 c 1,10,-1
 597 -224 l 1,11,12
 558 -234 558 -234 517 -234 c 0,13,14
 483 -234 483 -234 453 -226.5 c 128,-1,15
 423 -219 423 -219 398 -196.5 c 128,-1,16
 373 -174 373 -174 373 -138 c 128,-1,17
 373 -102 373 -102 396.5 -72.5 c 128,-1,18
 420 -43 420 -43 477 -7 c 1,19,20
 418 -23 418 -23 368 -23 c 0,21,22
 315 -23 315 -23 267.5 -11 c 128,-1,23
 220 1 220 1 175 28 c 128,-1,24
 130 55 130 55 103 108.5 c 128,-1,25
 76 162 76 162 76 235 c 2,26,-1
 76 729 l 1,27,-1
 226 729 l 1,28,-1
 226 235 l 2,29,30
 226 105 226 105 365 105 c 128,-1,31
 504 105 504 105 504 235 c 2,32,-1
 504 729 l 1,33,-1
 654 729 l 1,34,-1
 654 235 l 2,0,1
EndSplineSet
EndChar

StartChar: uogonek
Encoding: 371 371 309
Width: 611
GlyphClass: 2
Flags: W
LayerCount: 2
Fore
SplineSet
340 -138 m 0,0,1
 340 -109 340 -109 353.5 -84 c 128,-1,2
 367 -59 367 -59 389.5 -42.5 c 128,-1,3
 412 -26 412 -26 429.5 -16.5 c 128,-1,4
 447 -7 447 -7 465 0 c 1,5,-1
 401 0 l 1,6,-1
 401 64 l 1,7,8
 343 -23 343 -23 239 -23 c 0,9,10
 153 -23 153 -23 105.5 26 c 128,-1,11
 58 75 58 75 58 164 c 2,12,-1
 58 540 l 1,13,-1
 198 540 l 1,14,-1
 198 193 l 2,15,16
 198 96 198 96 288 96 c 0,17,18
 339 96 339 96 370 125 c 128,-1,19
 401 154 401 154 401 202 c 2,20,-1
 401 540 l 1,21,-1
 541 540 l 1,22,-1
 541 0 l 1,23,24
 430 -56 430 -56 430 -129 c 0,25,26
 430 -182 430 -182 506 -182 c 0,27,28
 532 -182 532 -182 564 -177 c 1,29,-1
 564 -224 l 1,30,31
 528 -233 528 -233 489 -233 c 0,32,33
 418 -233 418 -233 379 -208 c 128,-1,34
 340 -183 340 -183 340 -138 c 0,0,1
EndSplineSet
EndChar

StartChar: longs
Encoding: 383 383 321
Width: 333
GlyphClass: 2
Flags: W
LayerCount: 2
Fore
SplineSet
230 0 m 1,0,-1
 90 0 l 1,1,-1
 90 436 l 1,2,-1
 14 436 l 1,3,-1
 14 529 l 1,4,-1
 90 529 l 1,5,-1
 90 594 l 2,6,7
 90 729 90 729 228 729 c 0,8,9
 269 729 269 729 308 726 c 1,10,-1
 308 621 l 1,11,12
 290 624 290 624 268 624 c 0,13,14
 230 624 230 624 230 582 c 2,15,-1
 230 0 l 1,0,-1
EndSplineSet
EndChar

StartChar: uni0180
Encoding: 384 384 322
Width: 611
GlyphClass: 2
Flags: W
LayerCount: 2
Fore
SplineSet
317 432 m 128,-1,1
 265 432 265 432 232 385.5 c 128,-1,2
 199 339 199 339 199 265 c 0,3,4
 199 188 199 188 231.5 141 c 128,-1,5
 264 94 264 94 317 94 c 0,6,7
 369 94 369 94 402 141 c 128,-1,8
 435 188 435 188 435 262 c 0,9,10
 435 337 435 337 402 384.5 c 128,-1,0
 369 432 369 432 317 432 c 128,-1,1
348 549 m 0,11,12
 445 549 445 549 510 468.5 c 128,-1,13
 575 388 575 388 575 263 c 0,14,15
 575 141 575 141 510 59 c 128,-1,16
 445 -23 445 -23 348 -23 c 0,17,18
 249 -23 249 -23 199 55 c 1,19,-1
 199 0 l 1,20,-1
 59 0 l 1,21,-1
 59 596 l 1,22,-1
 -1 596 l 1,23,-1
 -1 663 l 1,24,-1
 59 663 l 1,25,-1
 59 729 l 1,26,-1
 199 729 l 1,27,-1
 199 663 l 1,28,-1
 332 663 l 1,29,-1
 332 596 l 1,30,-1
 199 596 l 1,31,-1
 199 470 l 1,32,33
 249 549 249 549 348 549 c 0,11,12
EndSplineSet
EndChar

StartChar: uni0181
Encoding: 385 385 323
Width: 963
GlyphClass: 2
Flags: W
LayerCount: 2
Fore
SplineSet
473 314 m 1,0,-1
 473 125 l 1,1,-1
 652 125 l 2,2,3
 763 125 763 125 763 219 c 0,4,5
 763 314 763 314 652 314 c 2,6,-1
 473 314 l 1,0,-1
473 604 m 1,7,-1
 473 439 l 1,8,-1
 636 439 l 2,9,10
 742 439 742 439 742 521 c 0,11,12
 742 604 742 604 636 604 c 2,13,-1
 473 604 l 1,7,-1
267 316 m 1,14,15
 200 316 200 316 153 336 c 128,-1,16
 106 356 106 356 84 389 c 128,-1,17
 62 422 62 422 53 453.5 c 128,-1,18
 44 485 44 485 44 520 c 0,19,20
 44 620 44 620 99.5 674.5 c 128,-1,21
 155 729 155 729 257 729 c 2,22,-1
 648 729 l 2,23,24
 716 729 716 729 765.5 709 c 128,-1,25
 815 689 815 689 839.5 657.5 c 128,-1,26
 864 626 864 626 875 596 c 128,-1,27
 886 566 886 566 886 537 c 0,28,29
 886 490 886 490 863 456 c 128,-1,30
 840 422 840 422 786 387 c 1,31,32
 907 316 907 316 907 210 c 0,33,34
 907 174 907 174 895 140 c 128,-1,35
 883 106 883 106 856.5 73 c 128,-1,36
 830 40 830 40 777 20 c 128,-1,37
 724 0 724 0 651 0 c 2,38,-1
 323 0 l 1,39,-1
 323 579 l 1,40,-1
 257 579 l 2,41,42
 172 579 172 579 172 522 c 0,43,44
 172 492 172 492 194.5 479 c 128,-1,45
 217 466 217 466 267 466 c 1,46,-1
 267 316 l 1,14,15
EndSplineSet
EndChar

StartChar: uni0183
Encoding: 387 387 325
Width: 611
GlyphClass: 2
Flags: W
LayerCount: 2
Fore
SplineSet
317 432 m 128,-1,1
 265 432 265 432 232 385.5 c 128,-1,2
 199 339 199 339 199 265 c 0,3,4
 199 188 199 188 231.5 141 c 128,-1,5
 264 94 264 94 317 94 c 0,6,7
 369 94 369 94 402 141 c 128,-1,8
 435 188 435 188 435 262 c 0,9,10
 435 337 435 337 402 384.5 c 128,-1,0
 369 432 369 432 317 432 c 128,-1,1
348 549 m 0,11,12
 445 549 445 549 510 468.5 c 128,-1,13
 575 388 575 388 575 263 c 0,14,15
 575 141 575 141 510 59 c 128,-1,16
 445 -23 445 -23 348 -23 c 0,17,18
 249 -23 249 -23 199 55 c 1,19,-1
 199 0 l 1,20,-1
 59 0 l 1,21,-1
 59 729 l 1,22,-1
 438 729 l 1,23,-1
 438 604 l 1,24,-1
 199 604 l 1,25,-1
 199 470 l 1,26,27
 249 549 249 549 348 549 c 0,11,12
EndSplineSet
EndChar

StartChar: uni0184
Encoding: 388 388 326
Width: 687
GlyphClass: 2
Flags: W
LayerCount: 2
Fore
SplineSet
226 729 m 1,0,-1
 226 469 l 1,1,-1
 413 469 l 2,2,3
 513 469 513 469 573 403 c 128,-1,4
 633 337 633 337 633 226 c 0,5,6
 633 116 633 116 572.5 58 c 128,-1,7
 512 0 512 0 398 0 c 2,8,-1
 76 0 l 1,9,-1
 76 468 l 1,10,-1
 -21 543 l 1,11,-1
 226 729 l 1,0,-1
226 344 m 1,12,-1
 226 125 l 1,13,-1
 366 125 l 2,14,15
 426 125 426 125 454.5 152 c 128,-1,16
 483 179 483 179 483 235 c 0,17,18
 483 344 483 344 366 344 c 2,19,-1
 226 344 l 1,12,-1
EndSplineSet
EndChar

StartChar: uni0185
Encoding: 389 389 327
Width: 611
GlyphClass: 2
Flags: W
LayerCount: 2
Fore
SplineSet
317 432 m 128,-1,1
 265 432 265 432 232 385.5 c 128,-1,2
 199 339 199 339 199 265 c 0,3,4
 199 188 199 188 231.5 141 c 128,-1,5
 264 94 264 94 317 94 c 0,6,7
 369 94 369 94 402 141 c 128,-1,8
 435 188 435 188 435 262 c 0,9,10
 435 337 435 337 402 384.5 c 128,-1,0
 369 432 369 432 317 432 c 128,-1,1
348 549 m 0,11,12
 445 549 445 549 510 468.5 c 128,-1,13
 575 388 575 388 575 263 c 0,14,15
 575 141 575 141 510 59 c 128,-1,16
 445 -23 445 -23 348 -23 c 0,17,18
 249 -23 249 -23 199 55 c 1,19,-1
 199 0 l 1,20,-1
 59 0 l 1,21,-1
 59 493 l 1,22,-1
 -38 574 l 1,23,-1
 199 729 l 1,24,-1
 199 470 l 1,25,26
 249 549 249 549 348 549 c 0,11,12
EndSplineSet
EndChar

StartChar: uni0187
Encoding: 391 391 329
Width: 752
GlyphClass: 2
Flags: W
LayerCount: 2
Fore
SplineSet
539 482 m 1,0,1
 511 613 511 613 383 613 c 0,2,3
 294 613 294 613 244 545 c 128,-1,4
 194 477 194 477 194 356 c 0,5,6
 194 237 194 237 242.5 170 c 128,-1,7
 291 103 291 103 378 103 c 0,8,9
 450 103 450 103 494.5 142 c 128,-1,10
 539 181 539 181 539 249 c 1,11,-1
 685 249 l 1,12,13
 685 125 685 125 598.5 51 c 128,-1,14
 512 -23 512 -23 374 -23 c 0,15,16
 222 -23 222 -23 133 79.5 c 128,-1,17
 44 182 44 182 44 358 c 0,18,19
 44 535 44 535 134 638 c 128,-1,20
 224 741 224 741 378 741 c 0,21,22
 478 741 478 741 552 697 c 1,23,24
 573 748 573 748 656 748 c 0,25,26
 692 748 692 748 739 743 c 1,27,-1
 739 631 l 1,28,29
 726 635 726 635 724 635 c 0,30,31
 701 635 701 635 691.5 625.5 c 128,-1,32
 682 616 682 616 682 593 c 2,33,-1
 682 482 l 1,34,-1
 539 482 l 1,0,1
EndSplineSet
EndChar

StartChar: uni0188
Encoding: 392 392 330
Width: 562
GlyphClass: 2
Flags: W
LayerCount: 2
Fore
SplineSet
288 436 m 0,0,1
 174 436 174 436 174 259 c 0,2,3
 174 180 174 180 204.5 135 c 128,-1,4
 235 90 235 90 288 90 c 0,5,6
 329 90 329 90 352 112.5 c 128,-1,7
 375 135 375 135 388 187 c 1,8,-1
 522 187 l 1,9,10
 512 90 512 90 448.5 33.5 c 128,-1,11
 385 -23 385 -23 287 -23 c 0,12,13
 167 -23 167 -23 100.5 51 c 128,-1,14
 34 125 34 125 34 259 c 0,15,16
 34 397 34 397 101 473 c 128,-1,17
 168 549 168 549 289 549 c 0,18,19
 359 549 359 549 410 522 c 1,20,21
 437 558 437 558 510 558 c 0,22,23
 540 558 540 558 587 553 c 1,24,-1
 587 441 l 1,25,26
 574 445 574 445 562 445 c 0,27,28
 539 445 539 445 530 435.5 c 128,-1,29
 521 426 521 426 521 403 c 2,30,-1
 522 338 l 1,31,-1
 388 338 l 1,32,33
 376 391 376 391 353.5 413.5 c 128,-1,34
 331 436 331 436 288 436 c 0,0,1
EndSplineSet
EndChar

StartChar: uni018A
Encoding: 394 394 332
Width: 968
GlyphClass: 2
Flags: W
LayerCount: 2
Fore
SplineSet
473 125 m 1,0,-1
 608 125 l 2,1,2
 777 125 777 125 777 364 c 0,3,4
 777 604 777 604 608 604 c 2,5,-1
 473 604 l 1,6,-1
 473 125 l 1,0,-1
267 316 m 1,7,8
 200 316 200 316 153 336 c 128,-1,9
 106 356 106 356 84 389 c 128,-1,10
 62 422 62 422 53 453.5 c 128,-1,11
 44 485 44 485 44 520 c 0,12,13
 44 620 44 620 99.5 674.5 c 128,-1,14
 155 729 155 729 257 729 c 2,15,-1
 608 729 l 2,16,17
 692 729 692 729 746.5 709 c 128,-1,18
 801 689 801 689 838 645 c 0,19,20
 927 539 927 539 927 365 c 0,21,22
 927 189 927 189 838 85 c 0,23,24
 767 0 767 0 608 0 c 2,25,-1
 323 0 l 1,26,-1
 323 579 l 1,27,-1
 257 579 l 2,28,29
 172 579 172 579 172 522 c 0,30,31
 172 492 172 492 194.5 479 c 128,-1,32
 217 466 217 466 267 466 c 1,33,-1
 267 316 l 1,7,8
EndSplineSet
EndChar

StartChar: uni018B
Encoding: 395 395 333
Width: 722
GlyphClass: 2
Flags: W
LayerCount: 2
Fore
SplineSet
82 222 m 0,0,1
 82 247 82 247 88.5 275 c 128,-1,2
 95 303 95 303 113.5 337.5 c 128,-1,3
 132 372 132 372 161 399 c 128,-1,4
 190 426 190 426 240 444.5 c 128,-1,5
 290 463 290 463 353 463 c 2,6,-1
 516 463 l 1,7,-1
 516 604 l 1,8,-1
 154 604 l 1,9,-1
 154 729 l 1,10,-1
 666 729 l 1,11,-1
 666 0 l 1,12,-1
 338 0 l 2,13,14
 265 0 265 0 212 20.5 c 128,-1,15
 159 41 159 41 132.5 75.5 c 128,-1,16
 106 110 106 110 94 146 c 128,-1,17
 82 182 82 182 82 222 c 0,0,1
516 338 m 1,18,-1
 337 338 l 2,19,20
 284 338 284 338 255 308.5 c 128,-1,21
 226 279 226 279 226 231 c 0,22,23
 226 184 226 184 255 154.5 c 128,-1,24
 284 125 284 125 337 125 c 2,25,-1
 516 125 l 1,26,-1
 516 338 l 1,18,-1
EndSplineSet
EndChar

StartChar: uni018C
Encoding: 396 396 334
Width: 611
GlyphClass: 2
Flags: W
LayerCount: 2
Fore
SplineSet
317 432 m 128,-1,1
 265 432 265 432 232 384.5 c 128,-1,2
 199 337 199 337 199 262 c 0,3,4
 199 188 199 188 232 141 c 128,-1,5
 265 94 265 94 317 94 c 0,6,7
 370 94 370 94 402.5 141 c 128,-1,8
 435 188 435 188 435 265 c 0,9,10
 435 339 435 339 402 385.5 c 128,-1,0
 369 432 369 432 317 432 c 128,-1,1
286 549 m 0,11,12
 385 549 385 549 435 470 c 1,13,-1
 435 604 l 1,14,-1
 196 604 l 1,15,-1
 196 729 l 1,16,-1
 575 729 l 1,17,-1
 575 0 l 1,18,-1
 435 0 l 1,19,-1
 435 55 l 1,20,21
 385 -23 385 -23 286 -23 c 0,22,23
 189 -23 189 -23 124 59 c 128,-1,24
 59 141 59 141 59 263 c 0,25,26
 59 388 59 388 124 468.5 c 128,-1,27
 189 549 189 549 286 549 c 0,11,12
EndSplineSet
EndChar

StartChar: uni018E
Encoding: 398 398 336
Width: 667
GlyphClass: 2
Flags: W
LayerCount: 2
Fore
SplineSet
474 314 m 1,0,-1
 125 314 l 1,1,-1
 125 439 l 1,2,-1
 474 439 l 1,3,-1
 474 604 l 1,4,-1
 97 604 l 1,5,-1
 97 729 l 1,6,-1
 624 729 l 1,7,-1
 624 0 l 1,8,-1
 79 0 l 1,9,-1
 79 125 l 1,10,-1
 474 125 l 1,11,-1
 474 314 l 1,0,-1
EndSplineSet
EndChar

StartChar: uni018F
Encoding: 399 399 337
Width: 778
GlyphClass: 2
Flags: W
LayerCount: 2
Fore
SplineSet
195 293 m 1,0,1
 210 206 210 206 262 155.5 c 128,-1,2
 314 105 314 105 391 105 c 0,3,4
 467 105 467 105 520 156 c 128,-1,5
 573 207 573 207 587 293 c 1,6,-1
 195 293 l 1,0,1
391 -23 m 0,7,8
 233 -23 233 -23 136.5 84.5 c 128,-1,9
 40 192 40 192 40 359 c 0,10,11
 40 393 40 393 44 418 c 1,12,-1
 194 418 l 1,13,-1
 587 418 l 1,14,15
 573 509 573 509 521.5 561 c 128,-1,16
 470 613 470 613 391 613 c 0,17,18
 274 613 274 613 220 504 c 1,19,-1
 63 504 l 1,20,21
 92 591 92 591 148.5 646.5 c 128,-1,22
 205 702 205 702 264 721.5 c 128,-1,23
 323 741 323 741 390 741 c 0,24,25
 548 741 548 741 645 634.5 c 128,-1,26
 742 528 742 528 742 354 c 0,27,28
 742 193 742 193 646 85 c 128,-1,29
 550 -23 550 -23 391 -23 c 0,7,8
EndSplineSet
EndChar

StartChar: uni0190
Encoding: 400 400 338
Width: 672
GlyphClass: 2
Flags: W
LayerCount: 2
Fore
SplineSet
620 507 m 1,0,-1
 480 507 l 1,1,2
 472 621 472 621 327 621 c 0,3,4
 269 621 269 621 235 596.5 c 128,-1,5
 201 572 201 572 201 531 c 0,6,7
 201 428 201 428 339 428 c 2,8,-1
 415 428 l 1,9,-1
 415 308 l 1,10,-1
 313 308 l 2,11,12
 242 308 242 308 209 276 c 128,-1,13
 176 244 176 244 176 195 c 0,14,15
 176 149 176 149 215.5 123 c 128,-1,16
 255 97 255 97 323 97 c 0,17,18
 399 97 399 97 441 128 c 128,-1,19
 483 159 483 159 487 218 c 1,20,-1
 633 218 l 1,21,22
 626 101 626 101 548.5 39 c 128,-1,23
 471 -23 471 -23 331 -23 c 0,24,25
 190 -23 190 -23 111 39.5 c 128,-1,26
 32 102 32 102 32 213 c 0,27,28
 32 328 32 328 121 377 c 1,29,30
 58 424 58 424 58 517 c 0,31,32
 58 624 58 624 130.5 682.5 c 128,-1,33
 203 741 203 741 334 741 c 0,34,35
 373 741 373 741 408 736 c 128,-1,36
 443 731 443 731 483.5 715.5 c 128,-1,37
 524 700 524 700 553 675.5 c 128,-1,38
 582 651 582 651 601 607.5 c 128,-1,39
 620 564 620 564 620 507 c 1,0,-1
EndSplineSet
EndChar

StartChar: uni0191
Encoding: 401 401 339
Width: 611
GlyphClass: 2
Flags: W
LayerCount: 2
Fore
SplineSet
224 439 m 1,0,-1
 543 439 l 1,1,-1
 543 314 l 1,2,-1
 225 314 l 1,3,-1
 225 -94 l 2,4,5
 225 -160 225 -160 196 -189 c 128,-1,6
 167 -218 167 -218 102 -218 c 0,7,8
 66 -218 66 -218 19 -213 c 1,9,-1
 19 -101 l 1,10,11
 32 -105 32 -105 33 -105 c 0,12,13
 56 -105 56 -105 65 -95.5 c 128,-1,14
 74 -86 74 -86 74 -63 c 2,15,-1
 74 729 l 1,16,-1
 586 729 l 1,17,-1
 586 604 l 1,18,-1
 224 604 l 1,19,-1
 224 439 l 1,0,-1
EndSplineSet
EndChar

StartChar: florin
Encoding: 402 402 340
Width: 333
GlyphClass: 2
Flags: W
LayerCount: 2
Fore
SplineSet
313 529 m 1,0,-1
 313 436 l 1,1,-1
 230 436 l 1,2,-1
 230 -94 l 2,3,4
 230 -160 230 -160 201 -189 c 128,-1,5
 172 -218 172 -218 107 -218 c 0,6,7
 71 -218 71 -218 24 -213 c 1,8,-1
 24 -101 l 1,9,10
 37 -105 37 -105 49 -105 c 0,11,12
 72 -105 72 -105 81 -95.5 c 128,-1,13
 90 -86 90 -86 90 -63 c 2,14,-1
 90 436 l 1,15,-1
 14 436 l 1,16,-1
 14 529 l 1,17,-1
 90 529 l 1,18,-1
 90 594 l 2,19,20
 90 729 90 729 228 729 c 0,21,22
 269 729 269 729 308 726 c 1,23,-1
 308 621 l 1,24,25
 290 624 290 624 268 624 c 0,26,27
 230 624 230 624 230 582 c 2,28,-1
 230 529 l 1,29,-1
 313 529 l 1,0,-1
EndSplineSet
EndChar

StartChar: uni0193
Encoding: 403 403 341
Width: 778
GlyphClass: 2
Flags: W
LayerCount: 2
Fore
SplineSet
570 496 m 1,0,1
 530 613 530 613 396 613 c 0,2,3
 301 613 301 613 246.5 546 c 128,-1,4
 192 479 192 479 192 361 c 0,5,6
 192 249 192 249 250.5 177 c 128,-1,7
 309 105 309 105 400 105 c 0,8,9
 480 105 480 105 532.5 157 c 128,-1,10
 585 209 585 209 585 267 c 1,11,-1
 419 267 l 1,12,-1
 419 392 l 1,13,-1
 711 392 l 1,14,-1
 711 0 l 1,15,-1
 621 0 l 1,16,-1
 603 94 l 1,17,18
 561 33 561 33 509 5 c 128,-1,19
 457 -23 457 -23 383 -23 c 0,20,21
 235 -23 235 -23 138.5 85 c 128,-1,22
 42 193 42 193 42 359 c 0,23,24
 42 529 42 529 140 635 c 128,-1,25
 238 741 238 741 395 741 c 0,26,27
 502 741 502 741 581 696 c 1,28,29
 603 748 603 748 685 748 c 0,30,31
 721 748 721 748 768 743 c 1,32,-1
 768 631 l 1,33,34
 755 635 755 635 753 635 c 0,35,36
 730 635 730 635 720.5 625.5 c 128,-1,37
 711 616 711 616 711 593 c 2,38,-1
 711 496 l 1,39,-1
 570 496 l 1,0,1
EndSplineSet
EndChar

StartChar: uni0194
Encoding: 404 404 342
Width: 667
GlyphClass: 2
Flags: W
LayerCount: 2
Fore
SplineSet
343 136 m 1,0,1
 323 116 323 116 323 100 c 0,2,3
 323 91 323 91 329 85.5 c 128,-1,4
 335 80 335 80 343 80 c 0,5,6
 363 80 363 80 363 100 c 0,7,8
 363 116 363 116 343 136 c 1,0,1
419 270 m 1,9,10
 451 219 451 219 472 166 c 128,-1,11
 493 113 493 113 493 81 c 0,12,13
 493 38 493 38 451 9 c 128,-1,14
 409 -20 409 -20 343 -20 c 0,15,16
 273 -20 273 -20 233 7.5 c 128,-1,17
 193 35 193 35 193 81 c 0,18,19
 193 148 193 148 269 270 c 1,20,-1
 27 729 l 1,21,-1
 194 729 l 1,22,-1
 343 407 l 1,23,-1
 482 729 l 1,24,-1
 650 729 l 1,25,-1
 419 270 l 1,9,10
EndSplineSet
EndChar

StartChar: uni0195
Encoding: 405 405 343
Width: 940
GlyphClass: 2
Flags: W
LayerCount: 2
Fore
SplineSet
401 330 m 2,0,1
 401 430 401 430 315 430 c 0,2,3
 268 430 268 430 237.5 400 c 128,-1,4
 207 370 207 370 207 324 c 2,5,-1
 207 0 l 1,6,-1
 67 0 l 1,7,-1
 67 729 l 1,8,-1
 207 729 l 1,9,-1
 207 462 l 1,10,11
 265 549 265 549 365 549 c 0,12,13
 397 549 397 549 425.5 540.5 c 128,-1,14
 454 532 454 532 481.5 512.5 c 128,-1,15
 509 493 509 493 525 454 c 128,-1,16
 541 415 541 415 541 362 c 2,17,-1
 541 238 l 2,18,19
 541 166 541 166 560 135.5 c 128,-1,20
 579 105 579 105 638 105 c 0,21,22
 693 105 693 105 713 138.5 c 128,-1,23
 733 172 733 172 733 244 c 2,24,-1
 733 540 l 1,25,-1
 871 540 l 1,26,-1
 871 212 l 2,27,28
 871 107 871 107 816.5 45.5 c 128,-1,29
 762 -16 762 -16 640 -16 c 0,30,31
 567 -16 567 -16 518 0.5 c 128,-1,32
 469 17 469 17 444.5 50 c 128,-1,33
 420 83 420 83 410.5 121 c 128,-1,34
 401 159 401 159 401 212 c 2,35,-1
 401 330 l 2,0,1
EndSplineSet
EndChar

StartChar: uni0196
Encoding: 406 406 344
Width: 278
GlyphClass: 2
Flags: W
LayerCount: 2
Fore
SplineSet
174 97 m 2,0,1
 175 80 175 80 177 77 c 1,2,3
 181 75 181 75 195 75 c 0,4,5
 217 75 217 75 228 78 c 2,6,-1
 260 87 l 1,7,-1
 260 -37 l 1,8,-1
 239 -41 l 2,9,10
 198 -48 198 -48 167 -48 c 0,11,12
 107 -48 107 -48 74 -19 c 128,-1,13
 41 10 41 10 41 60 c 2,14,-1
 41 754 l 1,15,-1
 174 754 l 1,16,-1
 174 97 l 2,0,1
EndSplineSet
EndChar

StartChar: uni0197
Encoding: 407 407 345
Width: 395
GlyphClass: 2
Flags: W
LayerCount: 2
Fore
SplineSet
122 293 m 1,0,-1
 0 293 l 1,1,-1
 -1 418 l 1,2,-1
 122 418 l 1,3,-1
 122 729 l 1,4,-1
 272 729 l 1,5,-1
 272 418 l 1,6,-1
 392 418 l 1,7,-1
 392 293 l 1,8,-1
 272 293 l 1,9,-1
 272 0 l 1,10,-1
 122 0 l 1,11,-1
 122 293 l 1,0,-1
EndSplineSet
EndChar

StartChar: uni0198
Encoding: 408 408 346
Width: 778
GlyphClass: 2
Flags: W
LayerCount: 2
Fore
SplineSet
658 559 m 0,0,1
 658 577 658 577 642.5 593 c 128,-1,2
 627 609 627 609 606 609 c 0,3,4
 588 609 588 609 565 594 c 1,5,-1
 395 415 l 1,6,-1
 717 0 l 1,7,-1
 538 0 l 1,8,-1
 299 322 l 1,9,-1
 224 244 l 1,10,-1
 224 0 l 1,11,-1
 74 0 l 1,12,-1
 74 729 l 1,13,-1
 224 729 l 1,14,-1
 224 409 l 1,15,-1
 448 657 l 2,16,17
 531 745 531 745 605 745 c 0,18,19
 667 745 667 745 729 687 c 0,20,21
 761 657 761 657 769.5 632.5 c 128,-1,22
 778 608 778 608 778 563 c 0,23,24
 778 483 778 483 705 405 c 1,25,-1
 617 487 l 1,26,27
 658 531 658 531 658 559 c 0,0,1
EndSplineSet
EndChar

StartChar: uni0199
Encoding: 409 409 347
Width: 556
GlyphClass: 2
Flags: W
LayerCount: 2
Fore
SplineSet
199 330 m 1,0,-1
 376 540 l 1,1,-1
 535 540 l 1,2,-1
 351 336 l 1,3,-1
 548 0 l 1,4,-1
 384 0 l 1,5,-1
 255 238 l 1,6,-1
 199 177 l 1,7,-1
 199 0 l 1,8,-1
 59 0 l 1,9,-1
 59 605 l 2,10,11
 59 671 59 671 88 700 c 128,-1,12
 117 729 117 729 182 729 c 0,13,14
 218 729 218 729 265 724 c 1,15,-1
 265 612 l 1,16,17
 252 616 252 616 240 616 c 0,18,19
 217 616 217 616 208 606.5 c 128,-1,20
 199 597 199 597 199 574 c 2,21,-1
 199 330 l 1,0,-1
EndSplineSet
EndChar

StartChar: uni019a
Encoding: 410 410 348
Width: 333
GlyphClass: 2
Flags: W
LayerCount: 2
Fore
SplineSet
99 314 m 1,0,-1
 -25 314 l 1,1,-1
 -25 431 l 1,2,-1
 99 431 l 1,3,-1
 99 754 l 1,4,-1
 233 754 l 1,5,-1
 233 431 l 1,6,-1
 358 431 l 1,7,-1
 358 314 l 1,8,-1
 233 314 l 1,9,-1
 233 -25 l 1,10,-1
 99 -25 l 1,11,-1
 99 314 l 1,0,-1
EndSplineSet
EndChar

StartChar: uni019B
Encoding: 411 411 349
Width: 620
GlyphClass: 2
Flags: W
LayerCount: 2
Fore
SplineSet
283 334 m 1,0,-1
 161 -2 l 1,1,-1
 17 -2 l 1,2,-1
 195 462 l 1,3,-1
 50 371 l 1,4,-1
 50 460 l 1,5,-1
 203 555 l 1,6,7
 189 589 189 589 174.5 599.5 c 128,-1,8
 160 610 160 610 138 610 c 0,9,10
 122 610 122 610 101.5 605.5 c 128,-1,11
 81 601 81 601 59 599 c 1,12,-1
 74 721 l 1,13,14
 124 739 124 739 150 739 c 0,15,16
 209 739 209 739 245 707.5 c 128,-1,17
 281 676 281 676 307 619 c 1,18,-1
 445 705 l 1,19,-1
 445 617 l 1,20,-1
 335 548 l 1,21,-1
 341 532 l 1,22,-1
 487 143 l 2,23,24
 498 113 498 113 505 113 c 0,25,26
 518 113 518 113 553 134 c 1,27,-1
 586 22 l 1,28,29
 519 -13 519 -13 479 -13 c 0,30,31
 456 -13 456 -13 439.5 -6.5 c 128,-1,32
 423 0 423 0 411.5 14 c 128,-1,33
 400 28 400 28 393.5 41 c 128,-1,34
 387 54 387 54 379 76 c 2,35,-1
 283 334 l 1,0,-1
EndSplineSet
EndChar

StartChar: uni019C
Encoding: 412 412 350
Width: 944
GlyphClass: 2
Flags: W
LayerCount: 2
Fore
SplineSet
876 0 m 1,0,-1
 727 0 l 1,1,-1
 727 72 l 1,2,3
 690 28 690 28 654 9 c 128,-1,4
 618 -10 618 -10 569 -10 c 0,5,6
 455 -10 455 -10 411 76 c 1,7,8
 346 -10 346 -10 242 -10 c 0,9,10
 155 -10 155 -10 106.5 37.5 c 128,-1,11
 58 85 58 85 58 169 c 2,12,-1
 58 729 l 1,13,-1
 208 729 l 1,14,-1
 208 193 l 2,15,16
 208 158 208 158 230 138 c 128,-1,17
 252 118 252 118 289 118 c 0,18,19
 337 118 337 118 364.5 148 c 128,-1,20
 392 178 392 178 392 231 c 2,21,-1
 392 729 l 1,22,-1
 542 729 l 1,23,-1
 542 193 l 2,24,25
 542 158 542 158 564 138 c 128,-1,26
 586 118 586 118 623 118 c 0,27,28
 672 118 672 118 699 148 c 128,-1,29
 726 178 726 178 726 231 c 2,30,-1
 726 729 l 1,31,-1
 876 729 l 1,32,-1
 876 0 l 1,0,-1
EndSplineSet
EndChar

StartChar: uni019D
Encoding: 413 413 351
Width: 722
GlyphClass: 2
Flags: W
LayerCount: 2
Fore
SplineSet
70 729 m 1,0,-1
 222 729 l 1,1,-1
 511 233 l 1,2,-1
 511 729 l 1,3,-1
 661 729 l 1,4,-1
 661 0 l 1,5,-1
 511 0 l 1,6,-1
 219 502 l 1,7,-1
 219 -94 l 2,8,9
 219 -160 219 -160 190 -189 c 128,-1,10
 161 -218 161 -218 96 -218 c 0,11,12
 60 -218 60 -218 13 -213 c 1,13,-1
 13 -101 l 1,14,15
 26 -105 26 -105 29 -105 c 0,16,17
 52 -105 52 -105 61 -95.5 c 128,-1,18
 70 -86 70 -86 70 -63 c 2,19,-1
 70 729 l 1,0,-1
EndSplineSet
EndChar

StartChar: uni019E
Encoding: 414 414 352
Width: 611
GlyphClass: 2
Flags: W
LayerCount: 2
Fore
SplineSet
63 540 m 1,0,-1
 203 540 l 1,1,-1
 203 462 l 1,2,3
 261 549 261 549 365 549 c 0,4,5
 451 549 451 549 498.5 500 c 128,-1,6
 546 451 546 451 546 362 c 2,7,-1
 546 -201 l 1,8,-1
 406 -201 l 1,9,-1
 406 333 l 2,10,11
 406 430 406 430 316 430 c 0,12,13
 265 430 265 430 234 401 c 128,-1,14
 203 372 203 372 203 324 c 2,15,-1
 203 0 l 1,16,-1
 63 0 l 1,17,-1
 63 540 l 1,0,-1
EndSplineSet
EndChar

StartChar: Obar
Encoding: 415 415 353
Width: 778
GlyphClass: 2
Flags: W
LayerCount: 2
Fore
SplineSet
390 741 m 0,0,1
 462 741 462 741 521.5 719 c 128,-1,2
 581 697 581 697 621.5 659.5 c 128,-1,3
 662 622 662 622 689.5 571.5 c 128,-1,4
 717 521 717 521 729.5 466.5 c 128,-1,5
 742 412 742 412 742 354 c 0,6,7
 742 311 742 311 733 265 c 128,-1,8
 724 219 724 219 699 166 c 128,-1,9
 674 113 674 113 636.5 72.5 c 128,-1,10
 599 32 599 32 535 4.5 c 128,-1,11
 471 -23 471 -23 391 -23 c 0,12,13
 302 -23 302 -23 232 11 c 128,-1,14
 162 45 162 45 121.5 101 c 128,-1,15
 81 157 81 157 60.5 223 c 128,-1,16
 40 289 40 289 40 359 c 0,17,18
 40 431 40 431 61.5 497.5 c 128,-1,19
 83 564 83 564 124 619.5 c 128,-1,20
 165 675 165 675 234 708 c 128,-1,21
 303 741 303 741 390 741 c 0,0,1
195 293 m 1,22,23
 210 206 210 206 262 155.5 c 128,-1,24
 314 105 314 105 391 105 c 0,25,26
 467 105 467 105 520 156 c 128,-1,27
 573 207 573 207 587 293 c 1,28,-1
 195 293 l 1,22,23
587 418 m 1,29,30
 573 509 573 509 521.5 561 c 128,-1,31
 470 613 470 613 391 613 c 0,32,33
 313 613 313 613 260.5 560.5 c 128,-1,34
 208 508 208 508 194 418 c 1,35,-1
 587 418 l 1,29,30
EndSplineSet
EndChar

StartChar: Ohorn
Encoding: 416 416 354
Width: 811
GlyphClass: 2
Flags: W
LayerCount: 2
Fore
SplineSet
391 613 m 0,0,1
 300 613 300 613 245 543.5 c 128,-1,2
 190 474 190 474 190 359 c 128,-1,3
 190 244 190 244 245 174.5 c 128,-1,4
 300 105 300 105 391 105 c 0,5,6
 481 105 481 105 536.5 174 c 128,-1,7
 592 243 592 243 592 355 c 0,8,9
 592 473 592 473 537.5 543 c 128,-1,10
 483 613 483 613 391 613 c 0,0,1
40 359 m 128,-1,12
 40 527 40 527 136.5 634 c 128,-1,13
 233 741 233 741 390 741 c 0,14,15
 540 741 540 741 635 645 c 1,16,17
 652 674 652 674 652 719 c 0,18,19
 652 738 652 738 648 763 c 1,20,-1
 790 763 l 1,21,22
 791 755 791 755 791 746 c 0,23,24
 791 698 791 698 760.5 658 c 128,-1,25
 730 618 730 618 675 596 c 1,26,27
 742 496 742 496 742 354 c 0,28,29
 742 192 742 192 646.5 84.5 c 128,-1,30
 551 -23 551 -23 391 -23 c 0,31,32
 232 -23 232 -23 136 84 c 128,-1,11
 40 191 40 191 40 359 c 128,-1,12
EndSplineSet
EndChar

StartChar: ohorn
Encoding: 417 417 355
Width: 673
GlyphClass: 2
Flags: W
LayerCount: 2
Fore
SplineSet
302 436 m 0,0,1
 245 436 245 436 210 388 c 128,-1,2
 175 340 175 340 175 263 c 128,-1,3
 175 186 175 186 210 138 c 128,-1,4
 245 90 245 90 302 90 c 0,5,6
 358 90 358 90 393.5 137.5 c 128,-1,7
 429 185 429 185 429 261 c 0,8,9
 429 341 429 341 394.5 388.5 c 128,-1,10
 360 436 360 436 302 436 c 0,0,1
536 418 m 1,11,12
 569 352 569 352 569 259 c 0,13,14
 569 129 569 129 497 53 c 128,-1,15
 425 -23 425 -23 302 -23 c 0,16,17
 177 -23 177 -23 106 53.5 c 128,-1,18
 35 130 35 130 35 263 c 128,-1,19
 35 396 35 396 106 472.5 c 128,-1,20
 177 549 177 549 301 549 c 0,21,22
 429 549 429 549 500 471 c 1,23,24
 514 499 514 499 514 541 c 0,25,26
 514 560 514 560 510 585 c 1,27,-1
 652 585 l 1,28,29
 653 577 653 577 653 568 c 0,30,31
 653 520 653 520 623 480 c 128,-1,32
 593 440 593 440 538 418 c 1,33,-1
 536 418 l 1,11,12
EndSplineSet
EndChar

StartChar: uni01A2
Encoding: 418 418 356
Width: 1111
GlyphClass: 2
Flags: W
LayerCount: 2
Fore
SplineSet
391 613 m 0,0,1
 300 613 300 613 245 543.5 c 128,-1,2
 190 474 190 474 190 359 c 128,-1,3
 190 244 190 244 245 174.5 c 128,-1,4
 300 105 300 105 391 105 c 0,5,6
 481 105 481 105 536.5 174 c 128,-1,7
 592 243 592 243 592 355 c 0,8,9
 592 473 592 473 537.5 543 c 128,-1,10
 483 613 483 613 391 613 c 0,0,1
40 359 m 0,11,12
 40 527 40 527 136.5 634 c 128,-1,13
 233 741 233 741 390 741 c 0,14,15
 528 741 528 741 615 664 c 1,16,17
 677 752 677 752 808 752 c 0,18,19
 920 752 920 752 981 696.5 c 128,-1,20
 1042 641 1042 641 1042 539 c 2,21,-1
 1042 -200 l 1,22,-1
 892 -200 l 1,23,-1
 892 539 l 2,24,25
 892 580 892 580 871 602 c 128,-1,26
 850 624 850 624 811 624 c 0,27,28
 768 624 768 624 749 601.5 c 128,-1,29
 730 579 730 579 730 529 c 2,30,-1
 730 463 l 1,31,32
 742 412 742 412 742 354 c 0,33,34
 742 193 742 193 646 85 c 128,-1,35
 550 -23 550 -23 391 -23 c 0,36,37
 233 -23 233 -23 136.5 84.5 c 128,-1,38
 40 192 40 192 40 359 c 0,11,12
EndSplineSet
EndChar

StartChar: uni01a3
Encoding: 419 419 357
Width: 722
GlyphClass: 2
Flags: W
AnchorPoint: "Anchor-3" 272 538 basechar 0
AnchorPoint: "Anchor-2" 273 0 basechar 0
LayerCount: 2
Fore
SplineSet
273 437 m 0,0,1
 215 437 215 437 181.5 390 c 128,-1,2
 148 343 148 343 148 258 c 0,3,4
 148 172 148 172 181.5 125.5 c 128,-1,5
 215 79 215 79 273 79 c 0,6,7
 330 79 330 79 364 125.5 c 128,-1,8
 398 172 398 172 398 255 c 0,9,10
 398 301 398 301 388.5 339 c 128,-1,11
 379 377 379 377 349.5 407 c 128,-1,12
 320 437 320 437 273 437 c 0,0,1
697 369 m 2,13,-1
 697 -225 l 1,14,-1
 563 -225 l 1,15,-1
 563 389 l 2,16,17
 563 416 563 416 559 428 c 0,18,19
 555 442 555 442 540 444 c 0,20,21
 537 445 537 445 532 445 c 0,22,23
 510 445 510 445 494 440 c 1,24,25
 535 365 535 365 535 254 c 0,26,27
 535 115 535 115 464.5 33.5 c 128,-1,28
 394 -48 394 -48 273 -48 c 0,29,30
 151 -48 151 -48 81 33.5 c 128,-1,31
 11 115 11 115 11 258 c 128,-1,32
 11 401 11 401 81 482.5 c 128,-1,33
 151 564 151 564 272 564 c 0,34,35
 354 564 354 564 413 528 c 1,36,37
 476 564 476 564 538 564 c 0,38,39
 626 564 626 564 661.5 516 c 128,-1,40
 697 468 697 468 697 369 c 2,13,-1
EndSplineSet
EndChar

StartChar: uni01A4
Encoding: 420 420 358
Width: 914
GlyphClass: 2
Flags: W
LayerCount: 2
Fore
SplineSet
473 385 m 1,0,-1
 613 385 l 2,1,2
 730 385 730 385 730 494 c 0,3,4
 730 550 730 550 701.5 577 c 128,-1,5
 673 604 673 604 613 604 c 2,6,-1
 473 604 l 1,7,-1
 473 385 l 1,0,-1
267 316 m 1,8,9
 200 316 200 316 153 336 c 128,-1,10
 106 356 106 356 84 389 c 128,-1,11
 62 422 62 422 53 453.5 c 128,-1,12
 44 485 44 485 44 520 c 0,13,14
 44 620 44 620 99.5 674.5 c 128,-1,15
 155 729 155 729 257 729 c 2,16,-1
 645 729 l 2,17,18
 759 729 759 729 819.5 671 c 128,-1,19
 880 613 880 613 880 503 c 0,20,21
 880 392 880 392 820 326 c 128,-1,22
 760 260 760 260 660 260 c 2,23,-1
 473 260 l 1,24,-1
 473 0 l 1,25,-1
 323 0 l 1,26,-1
 323 579 l 1,27,-1
 257 579 l 2,28,29
 172 579 172 579 172 522 c 0,30,31
 172 492 172 492 194.5 479 c 128,-1,32
 217 466 217 466 267 466 c 1,33,-1
 267 316 l 1,8,9
EndSplineSet
EndChar

StartChar: uni01A5
Encoding: 421 421 359
Width: 611
GlyphClass: 2
Flags: W
LayerCount: 2
Fore
SplineSet
316 432 m 128,-1,1
 263 432 263 432 230.5 385 c 128,-1,2
 198 338 198 338 198 262 c 128,-1,3
 198 186 198 186 230.5 139.5 c 128,-1,4
 263 93 263 93 316 93 c 0,5,6
 368 93 368 93 401 140 c 128,-1,7
 434 187 434 187 434 260 c 0,8,9
 434 337 434 337 401.5 384.5 c 128,-1,0
 369 432 369 432 316 432 c 128,-1,1
348 549 m 0,10,11
 450 549 450 549 512 467 c 128,-1,12
 574 385 574 385 574 262 c 128,-1,13
 574 139 574 139 509.5 57.5 c 128,-1,14
 445 -24 445 -24 348 -24 c 0,15,16
 248 -24 248 -24 198 64 c 1,17,-1
 198 -218 l 1,18,-1
 58 -218 l 1,19,-1
 58 564 l 2,20,21
 58 629 58 629 88.5 658.5 c 128,-1,22
 119 688 119 688 185 688 c 0,23,24
 215 688 215 688 262 683 c 1,25,-1
 262 571 l 1,26,27
 249 575 249 575 239 575 c 0,28,29
 198 575 198 575 198 540 c 2,30,-1
 198 460 l 1,31,32
 248 549 248 549 348 549 c 0,10,11
EndSplineSet
EndChar

StartChar: uni01A6
Encoding: 422 422 360
Width: 647
GlyphClass: 2
Flags: W
LayerCount: 2
Fore
SplineSet
210 297 m 1,0,-1
 332 297 l 2,1,2
 373 297 373 297 392 311.5 c 128,-1,3
 411 326 411 326 411 360 c 0,4,5
 411 430 411 430 332 430 c 2,6,-1
 210 430 l 1,7,-1
 210 297 l 1,0,-1
210 187 m 1,8,-1
 210 0 l 1,9,-1
 60 0 l 1,10,-1
 60 729 l 1,11,-1
 210 729 l 1,12,-1
 210 540 l 1,13,-1
 361 540 l 2,14,15
 415 540 415 540 454 524 c 128,-1,16
 493 508 493 508 512.5 482 c 128,-1,17
 532 456 532 456 541 429.5 c 128,-1,18
 550 403 550 403 550 375 c 0,19,20
 550 333 550 333 535 296 c 128,-1,21
 520 259 520 259 496 238 c 1,22,23
 573 204 573 204 573 77 c 2,24,-1
 573 -92 l 2,25,26
 573 -116 573 -116 579 -131.5 c 128,-1,27
 585 -147 585 -147 590.5 -151.5 c 128,-1,28
 596 -156 596 -156 607 -163 c 1,29,-1
 607 -190 l 1,30,-1
 446 -190 l 1,31,32
 423 -148 423 -148 423 -85 c 2,33,-1
 423 89 l 2,34,35
 423 130 423 130 388.5 158.5 c 128,-1,36
 354 187 354 187 310 187 c 2,37,-1
 210 187 l 1,8,-1
EndSplineSet
EndChar

StartChar: uni01A7
Encoding: 423 423 361
Width: 667
GlyphClass: 2
Flags: W
LayerCount: 2
Fore
SplineSet
58 507 m 1,0,1
 58 564 58 564 77.5 607.5 c 128,-1,2
 97 651 97 651 126 675.5 c 128,-1,3
 155 700 155 700 195 715.5 c 128,-1,4
 235 731 235 731 270.5 736 c 128,-1,5
 306 741 306 741 344 741 c 0,6,7
 475 741 475 741 547.5 682.5 c 128,-1,8
 620 624 620 624 620 517 c 0,9,10
 620 432 620 432 573 387 c 128,-1,11
 526 342 526 342 415 321 c 2,12,-1
 313 301 l 2,13,14
 238 287 238 287 207 263 c 128,-1,15
 176 239 176 239 176 195 c 0,16,17
 176 149 176 149 215.5 123 c 128,-1,18
 255 97 255 97 323 97 c 0,19,20
 399 97 399 97 441 128 c 128,-1,21
 483 159 483 159 487 218 c 1,22,-1
 633 218 l 1,23,24
 626 101 626 101 548.5 39 c 128,-1,25
 471 -23 471 -23 331 -23 c 0,26,27
 190 -23 190 -23 111 39.5 c 128,-1,28
 32 102 32 102 32 213 c 0,29,30
 32 299 32 299 78 346.5 c 128,-1,31
 124 394 124 394 225 414 c 2,32,-1
 339 436 l 2,33,34
 419 452 419 452 448 471.5 c 128,-1,35
 477 491 477 491 477 531 c 0,36,37
 477 572 477 572 443 596.5 c 128,-1,38
 409 621 409 621 351 621 c 0,39,40
 206 621 206 621 198 507 c 1,41,-1
 58 507 l 1,0,1
EndSplineSet
EndChar

StartChar: uni01A8
Encoding: 424 424 362
Width: 556
GlyphClass: 2
Flags: W
LayerCount: 2
Fore
SplineSet
383 157 m 1,0,-1
 520 157 l 1,1,2
 514 -23 514 -23 265 -23 c 0,3,4
 198 -23 198 -23 149 -5.5 c 128,-1,5
 100 12 100 12 75.5 41 c 128,-1,6
 51 70 51 70 40 99.5 c 128,-1,7
 29 129 29 129 29 160 c 0,8,9
 29 265 29 265 135 296 c 2,10,-1
 312 347 l 2,11,12
 341 356 341 356 351 364.5 c 128,-1,13
 361 373 361 373 361 389 c 0,14,15
 361 412 361 412 339 425.5 c 128,-1,16
 317 439 317 439 280 439 c 0,17,18
 180 439 180 439 179 366 c 1,19,-1
 44 366 l 1,20,21
 46 452 46 452 108 500.5 c 128,-1,22
 170 549 170 549 279 549 c 0,23,24
 382 549 382 549 441.5 500.5 c 128,-1,25
 501 452 501 452 501 369 c 0,26,27
 501 332 501 332 487 305 c 128,-1,28
 473 278 473 278 453.5 266.5 c 128,-1,29
 434 255 434 255 414.5 246 c 128,-1,30
 395 237 395 237 383 236 c 1,31,-1
 216 184 l 2,32,33
 190 176 190 176 179.5 166 c 128,-1,34
 169 156 169 156 169 140 c 0,35,36
 169 115 169 115 196.5 101 c 128,-1,37
 224 87 224 87 273 87 c 0,38,39
 333 87 333 87 354.5 105 c 128,-1,40
 376 123 376 123 383 157 c 1,0,-1
EndSplineSet
EndChar

StartChar: uni01aa
Encoding: 426 426 364
Width: 441
GlyphClass: 2
Flags: W
LayerCount: 2
Fore
SplineSet
184 628 m 0,0,1
 169 628 169 628 158 617.5 c 128,-1,2
 147 607 147 607 147 593 c 128,-1,3
 147 579 147 579 158 568 c 128,-1,4
 169 557 169 557 184 557 c 128,-1,5
 199 557 199 557 210 567.5 c 128,-1,6
 221 578 221 578 221 592 c 0,7,8
 221 608 221 608 210.5 618 c 128,-1,9
 200 628 200 628 184 628 c 0,0,1
184 445 m 0,10,11
 123 445 123 445 79.5 488.5 c 128,-1,12
 36 532 36 532 36 593 c 0,13,14
 36 653 36 653 79.5 696.5 c 128,-1,15
 123 740 123 740 184 740 c 0,16,17
 251 740 251 740 291.5 699.5 c 128,-1,18
 332 659 332 659 332 591 c 2,19,-1
 332 -46 l 2,20,21
 332 -60 332 -60 334 -70 c 0,22,23
 337 -85 337 -85 353 -88 c 0,24,25
 362 -90 362 -90 376 -90 c 0,26,27
 378 -90 378 -90 395 -89 c 2,28,-1
 421 -87 l 1,29,-1
 421 -205 l 1,30,-1
 401 -210 l 2,31,32
 383 -213 383 -213 368 -213 c 0,33,34
 287 -213 287 -213 243 -178 c 128,-1,35
 199 -143 199 -143 199 -79 c 2,36,-1
 199 446 l 1,37,38
 192 445 192 445 184 445 c 0,10,11
EndSplineSet
EndChar

StartChar: uni01AB
Encoding: 427 427 365
Width: 333
GlyphClass: 2
Flags: W
LayerCount: 2
Fore
SplineSet
301 529 m 1,0,-1
 301 436 l 1,1,-1
 223 436 l 1,2,-1
 223 142 l 2,3,4
 223 106 223 106 232 94.5 c 128,-1,5
 241 83 241 83 269 83 c 0,6,7
 280 83 280 83 301 86 c 1,8,-1
 301 -94 l 2,9,10
 301 -160 301 -160 272 -189 c 128,-1,11
 243 -218 243 -218 178 -218 c 0,12,13
 142 -218 142 -218 95 -213 c 1,14,-1
 95 -101 l 1,15,16
 108 -105 108 -105 120 -105 c 0,17,18
 143 -105 143 -105 152 -95.5 c 128,-1,19
 161 -86 161 -86 161 -63 c 2,20,-1
 161 -15 l 1,21,22
 83 8 83 8 83 104 c 2,23,-1
 83 436 l 1,24,-1
 14 436 l 1,25,-1
 14 529 l 1,26,-1
 83 529 l 1,27,-1
 83 674 l 1,28,-1
 223 674 l 1,29,-1
 223 529 l 1,30,-1
 301 529 l 1,0,-1
EndSplineSet
EndChar

StartChar: uni01AC
Encoding: 428 428 366
Width: 742
GlyphClass: 2
Flags: W
LayerCount: 2
Fore
SplineSet
259 604 m 2,0,1
 219 604 219 604 194.5 588 c 128,-1,2
 170 572 170 572 170 549 c 0,3,4
 170 525 170 525 195.5 508 c 128,-1,5
 221 491 221 491 269 491 c 1,6,-1
 269 366 l 1,7,8
 159 366 159 366 104 420 c 0,9,10
 72 452 72 452 58 479.5 c 128,-1,11
 44 507 44 507 44 550 c 0,12,13
 44 624 44 624 102.5 676.5 c 128,-1,14
 161 729 161 729 259 729 c 2,15,-1
 729 729 l 1,16,-1
 729 604 l 1,17,-1
 516 604 l 1,18,-1
 516 0 l 1,19,-1
 366 0 l 1,20,-1
 366 604 l 1,21,-1
 259 604 l 2,0,1
EndSplineSet
EndChar

StartChar: uni01AD
Encoding: 429 429 367
Width: 333
GlyphClass: 2
Flags: W
LayerCount: 2
Fore
SplineSet
301 529 m 1,0,-1
 301 436 l 1,1,-1
 223 436 l 1,2,-1
 223 142 l 2,3,4
 223 106 223 106 232 94.5 c 128,-1,5
 241 83 241 83 269 83 c 0,6,7
 280 83 280 83 301 86 c 1,8,-1
 301 -12 l 1,9,10
 267 -23 267 -23 220 -23 c 0,11,12
 83 -23 83 -23 83 104 c 2,13,-1
 83 436 l 1,14,-1
 14 436 l 1,15,-1
 14 529 l 1,16,-1
 83 529 l 1,17,-1
 83 605 l 2,18,19
 83 671 83 671 112 700 c 128,-1,20
 141 729 141 729 206 729 c 0,21,22
 242 729 242 729 289 724 c 1,23,-1
 289 612 l 1,24,25
 276 616 276 616 264 616 c 0,26,27
 241 616 241 616 232 606.5 c 128,-1,28
 223 597 223 597 223 574 c 2,29,-1
 223 529 l 1,30,-1
 301 529 l 1,0,-1
EndSplineSet
EndChar

StartChar: uni01AE
Encoding: 430 430 368
Width: 611
GlyphClass: 2
Flags: W
LayerCount: 2
Fore
SplineSet
235 -94 m 2,0,-1
 235 604 l 1,1,-1
 14 604 l 1,2,-1
 14 729 l 1,3,-1
 598 729 l 1,4,-1
 598 604 l 1,5,-1
 385 604 l 1,6,-1
 385 -63 l 2,7,8
 385 -105 385 -105 419 -105 c 0,9,10
 425 -105 425 -105 441 -101 c 1,11,-1
 441 -213 l 1,12,13
 394 -218 394 -218 358 -218 c 0,14,15
 293 -218 293 -218 264 -189 c 128,-1,16
 235 -160 235 -160 235 -94 c 2,0,-1
EndSplineSet
EndChar

StartChar: Uhorn
Encoding: 431 431 369
Width: 789
GlyphClass: 2
Flags: W
LayerCount: 2
Fore
SplineSet
365 -23 m 128,-1,1
 325 -23 325 -23 287.5 -16 c 128,-1,2
 250 -9 250 -9 210.5 9 c 128,-1,3
 171 27 171 27 142 55 c 128,-1,4
 113 83 113 83 94.5 129.5 c 128,-1,5
 76 176 76 176 76 235 c 2,6,-1
 76 729 l 1,7,-1
 226 729 l 1,8,-1
 226 235 l 2,9,10
 226 105 226 105 365 105 c 128,-1,11
 504 105 504 105 504 235 c 2,12,-1
 504 729 l 1,13,-1
 507 729 l 2,14,15
 630 729 630 729 630 852 c 0,16,17
 630 871 630 871 626 896 c 1,18,-1
 768 896 l 1,19,20
 769 888 769 888 769 879 c 0,21,22
 769 831 769 831 739 791 c 128,-1,23
 709 751 709 751 654 729 c 1,24,-1
 654 235 l 2,25,26
 654 176 654 176 635.5 129.5 c 128,-1,27
 617 83 617 83 588 55 c 128,-1,28
 559 27 559 27 519.5 9 c 128,-1,29
 480 -9 480 -9 442.5 -16 c 128,-1,0
 405 -23 405 -23 365 -23 c 128,-1,1
EndSplineSet
EndChar

StartChar: uhorn
Encoding: 432 432 370
Width: 676
GlyphClass: 2
Flags: W
LayerCount: 2
Fore
SplineSet
541 0 m 1,0,-1
 401 0 l 1,1,-1
 401 64 l 1,2,3
 343 -23 343 -23 239 -23 c 0,4,5
 153 -23 153 -23 105.5 26 c 128,-1,6
 58 75 58 75 58 164 c 2,7,-1
 58 540 l 1,8,-1
 198 540 l 1,9,-1
 198 193 l 2,10,11
 198 96 198 96 288 96 c 0,12,13
 339 96 339 96 370 125 c 128,-1,14
 401 154 401 154 401 202 c 2,15,-1
 401 540 l 1,16,17
 462 540 462 540 489.5 570.5 c 128,-1,18
 517 601 517 601 517 663 c 0,19,20
 517 682 517 682 513 707 c 1,21,-1
 655 707 l 1,22,23
 656 699 656 699 656 690 c 0,24,25
 656 642 656 642 626 602 c 128,-1,26
 596 562 596 562 541 540 c 1,27,-1
 541 0 l 1,0,-1
EndSplineSet
EndChar

StartChar: uni01b2
Encoding: 434 434 372
Width: 722
GlyphClass: 2
Flags: W
LayerCount: 2
Fore
SplineSet
60 243 m 2,0,-1
 60 731 l 1,1,-1
 203 731 l 1,2,-1
 203 203 l 2,3,4
 203 164 203 164 235.5 142 c 128,-1,5
 268 120 268 120 304 120 c 0,6,7
 335 120 335 120 362.5 124.5 c 128,-1,8
 390 129 390 129 421 143.5 c 128,-1,9
 452 158 452 158 474 180.5 c 128,-1,10
 496 203 496 203 510.5 242.5 c 128,-1,11
 525 282 525 282 525 334 c 2,12,-1
 525 336 l 2,13,14
 525 390 525 390 517.5 433 c 128,-1,15
 510 476 510 476 489.5 521 c 128,-1,16
 469 566 469 566 449.5 598.5 c 128,-1,17
 430 631 430 631 389 692 c 2,18,-1
 364 731 l 1,19,-1
 531 731 l 1,20,-1
 538 721 l 2,21,22
 607 628 607 628 637.5 538.5 c 128,-1,23
 668 449 668 449 668 346 c 0,24,25
 668 162 668 162 581 75 c 128,-1,26
 494 -12 494 -12 334 -12 c 0,27,28
 60 -12 60 -12 60 243 c 2,0,-1
EndSplineSet
EndChar

StartChar: uni01B3
Encoding: 435 435 373
Width: 839
GlyphClass: 2
Flags: W
LayerCount: 2
Fore
SplineSet
671 546 m 128,-1,1
 671 573 671 573 652 584.5 c 128,-1,2
 633 596 633 596 618 596 c 0,3,4
 581 596 581 596 554 540 c 2,5,-1
 419 270 l 1,6,-1
 419 0 l 1,7,-1
 269 0 l 1,8,-1
 269 270 l 1,9,-1
 27 729 l 1,10,-1
 194 729 l 1,11,-1
 343 407 l 1,12,-1
 427 601 l 2,13,14
 487 729 487 729 602 729 c 0,15,16
 642 729 642 729 678.5 718.5 c 128,-1,17
 715 708 715 708 747.5 685.5 c 128,-1,18
 780 663 780 663 799.5 623 c 128,-1,19
 819 583 819 583 819 530 c 0,20,21
 819 484 819 484 787 415 c 1,22,-1
 652 480 l 1,23,0
 671 519 671 519 671 546 c 128,-1,1
EndSplineSet
EndChar

StartChar: uni01B4
Encoding: 436 436 374
Width: 620
GlyphClass: 2
Flags: W
LayerCount: 2
Fore
SplineSet
283 204 m 1,0,-1
 379 462 l 2,1,2
 387 484 387 484 393.5 497 c 128,-1,3
 400 510 400 510 411.5 524 c 128,-1,4
 423 538 423 538 439.5 544.5 c 128,-1,5
 456 551 456 551 479 551 c 0,6,7
 519 551 519 551 586 516 c 1,8,-1
 553 404 l 1,9,10
 518 425 518 425 505 425 c 0,11,12
 498 425 498 425 487 395 c 2,13,-1
 341 6 l 2,14,15
 333 -19 333 -19 322.5 -43.5 c 128,-1,16
 312 -68 312 -68 302 -91 c 128,-1,17
 292 -114 292 -114 277.5 -134 c 128,-1,18
 263 -154 263 -154 245.5 -169 c 128,-1,19
 228 -184 228 -184 203.5 -192.5 c 128,-1,20
 179 -201 179 -201 150 -201 c 0,21,22
 124 -201 124 -201 74 -183 c 1,23,-1
 59 -61 l 1,24,25
 81 -63 81 -63 101.5 -67.5 c 128,-1,26
 122 -72 122 -72 138 -72 c 0,27,28
 164 -72 164 -72 180 -56.5 c 128,-1,29
 196 -41 196 -41 212 11 c 2,30,-1
 216 23 l 1,31,-1
 17 540 l 1,32,-1
 161 540 l 1,33,-1
 283 204 l 1,0,-1
EndSplineSet
EndChar

StartChar: uni01B5
Encoding: 437 437 375
Width: 611
GlyphClass: 2
Flags: W
LayerCount: 2
Fore
SplineSet
578 729 m 1,0,-1
 578 604 l 1,1,-1
 419 399 l 1,2,-1
 526 399 l 1,3,-1
 526 332 l 1,4,-1
 367 332 l 1,5,-1
 206 125 l 1,6,-1
 578 125 l 1,7,-1
 578 0 l 1,8,-1
 30 0 l 1,9,-1
 30 125 l 1,10,-1
 191 332 l 1,11,-1
 88 332 l 1,12,-1
 88 399 l 1,13,-1
 243 399 l 1,14,-1
 403 604 l 1,15,-1
 30 604 l 1,16,-1
 30 729 l 1,17,-1
 578 729 l 1,0,-1
EndSplineSet
EndChar

StartChar: uni01B6
Encoding: 438 438 376
Width: 500
GlyphClass: 2
Flags: W
AnchorPoint: "Anchor-3" 250 550 basechar 0
LayerCount: 2
Fore
SplineSet
459 540 m 1,0,-1
 459 427 l 1,1,-1
 363 313 l 1,2,-1
 414 313 l 1,3,-1
 414 246 l 1,4,-1
 306 246 l 1,5,-1
 194 113 l 1,6,-1
 468 113 l 1,7,-1
 468 0 l 1,8,-1
 21 0 l 1,9,-1
 21 113 l 1,10,-1
 134 246 l 1,11,-1
 81 246 l 1,12,-1
 81 313 l 1,13,-1
 191 313 l 1,14,-1
 288 427 l 1,15,-1
 39 427 l 1,16,-1
 39 540 l 1,17,-1
 459 540 l 1,0,-1
EndSplineSet
EndChar

StartChar: Yogh
Encoding: 439 439 377
Width: 556
GlyphClass: 2
Flags: W
LayerCount: 2
Fore
SplineSet
356 393 m 1,0,1
 438 372 438 372 477 319.5 c 128,-1,2
 516 267 516 267 516 204 c 0,3,4
 516 100 516 100 448.5 38.5 c 128,-1,5
 381 -23 381 -23 268 -23 c 0,6,7
 159 -23 159 -23 94.5 39.5 c 128,-1,8
 30 102 30 102 29 208 c 1,9,-1
 165 208 l 1,10,11
 171 97 171 97 271 97 c 0,12,13
 317 97 317 97 346.5 127 c 128,-1,14
 376 157 376 157 376 204 c 0,15,16
 376 243 376 243 355 271.5 c 128,-1,17
 334 300 334 300 299 310 c 0,18,19
 271 317 271 317 217 317 c 1,20,-1
 217 411 l 1,21,-1
 325 604 l 1,22,-1
 70 604 l 1,23,-1
 70 729 l 1,24,-1
 471 729 l 1,25,-1
 471 604 l 1,26,-1
 356 393 l 1,0,1
EndSplineSet
EndChar

StartChar: uni01B8
Encoding: 440 440 378
Width: 556
GlyphClass: 2
Flags: W
LayerCount: 2
Fore
SplineSet
29 204 m 0,0,1
 29 265 29 265 67.5 318.5 c 128,-1,2
 106 372 106 372 189 393 c 1,3,-1
 74 604 l 1,4,-1
 74 729 l 1,5,-1
 475 729 l 1,6,-1
 475 604 l 1,7,-1
 220 604 l 1,8,-1
 328 411 l 1,9,-1
 328 317 l 1,10,11
 274 317 274 317 246 310 c 0,12,13
 211 300 211 300 190 271.5 c 128,-1,14
 169 243 169 243 169 204 c 0,15,16
 169 157 169 157 198.5 127 c 128,-1,17
 228 97 228 97 274 97 c 0,18,19
 374 97 374 97 380 208 c 1,20,-1
 516 208 l 1,21,22
 515 102 515 102 450.5 39.5 c 128,-1,23
 386 -23 386 -23 277 -23 c 0,24,25
 164 -23 164 -23 96.5 38.5 c 128,-1,26
 29 100 29 100 29 204 c 0,0,1
EndSplineSet
EndChar

StartChar: uni01b9
Encoding: 441 441 379
Width: 645
GlyphClass: 2
Flags: W
LayerCount: 2
Fore
SplineSet
208 293 m 1,0,-1
 78 425 l 1,1,-1
 78 524 l 1,2,-1
 569 524 l 1,3,-1
 569 401 l 1,4,-1
 273 401 l 1,5,-1
 408 289 l 1,6,-1
 408 180 l 1,7,-1
 322 180 l 2,8,9
 244 180 244 180 211 153.5 c 128,-1,10
 178 127 178 127 178 77 c 0,11,12
 178 32 178 32 216 8.5 c 128,-1,13
 254 -15 254 -15 322 -15 c 0,14,15
 391 -15 391 -15 427 8 c 128,-1,16
 463 31 463 31 468 89 c 2,17,-1
 469 136 l 1,18,-1
 611 136 l 1,19,-1
 609 86 l 2,20,21
 600 -31 600 -31 531 -87 c 128,-1,22
 462 -143 462 -143 325 -143 c 256,23,24
 188 -143 188 -143 111.5 -83 c 128,-1,25
 35 -23 35 -23 35 78 c 0,26,27
 35 164 35 164 79 218.5 c 128,-1,28
 123 273 123 273 208 293 c 1,0,-1
EndSplineSet
EndChar

StartChar: uni01ba
Encoding: 442 442 380
Width: 569
GlyphClass: 2
Flags: W
LayerCount: 2
Fore
SplineSet
529 108 m 0,0,1
 529 18 529 18 458.5 -38.5 c 128,-1,2
 388 -95 388 -95 280 -95 c 0,3,4
 264 -95 264 -95 221.5 -84.5 c 128,-1,5
 179 -74 179 -74 169 -74 c 0,6,7
 161 -74 161 -74 161 -78 c 0,8,9
 161 -95 161 -95 189 -113 c 128,-1,10
 217 -131 217 -131 249 -131 c 0,11,12
 331 -131 331 -131 425 -95 c 2,13,-1
 449 -85 l 1,14,-1
 488 -202 l 1,15,-1
 466 -210 l 2,16,17
 428 -224 428 -224 410.5 -230 c 128,-1,18
 393 -236 393 -236 345 -245 c 128,-1,19
 297 -254 297 -254 249 -254 c 0,20,21
 144 -254 144 -254 87 -197 c 128,-1,22
 30 -140 30 -140 30 -60 c 0,23,24
 30 -43 30 -43 34 -27.5 c 128,-1,25
 38 -12 38 -12 49.5 5.5 c 128,-1,26
 61 23 61 23 87 33.5 c 128,-1,27
 113 44 113 44 151 44 c 0,28,29
 182 44 182 44 228 36 c 128,-1,30
 274 28 274 28 280 28 c 0,31,32
 317 28 317 28 358.5 47.5 c 128,-1,33
 400 67 400 67 400 103 c 0,34,35
 400 137 400 137 363.5 158.5 c 128,-1,36
 327 180 327 180 270 180 c 2,37,-1
 197 180 l 1,38,-1
 197 289 l 1,39,-1
 312 426 l 1,40,-1
 48 426 l 1,41,-1
 48 549 l 1,42,-1
 489 549 l 1,43,-1
 489 441 l 1,44,-1
 368 293 l 1,45,46
 448 275 448 275 488.5 227.5 c 128,-1,47
 529 180 529 180 529 108 c 0,0,1
EndSplineSet
EndChar

StartChar: uni01bb
Encoding: 443 443 381
Width: 579
GlyphClass: 2
Flags: W
LayerCount: 2
Fore
SplineSet
297 740 m 0,0,1
 408 740 408 740 478.5 675 c 128,-1,2
 549 610 549 610 549 507 c 0,3,4
 549 391 549 391 446 310 c 1,5,-1
 506 286 l 1,6,-1
 506 155 l 1,7,-1
 315 232 l 1,8,-1
 286 217 l 2,9,10
 257 201 257 201 250 197.5 c 128,-1,11
 243 194 243 194 225 183 c 128,-1,12
 207 172 207 172 202 166.5 c 128,-1,13
 197 161 197 161 189.5 152 c 128,-1,14
 182 143 182 143 178 132 c 1,15,-1
 544 132 l 1,16,-1
 544 1 l 1,17,-1
 21 1 l 1,18,-1
 22 27 l 2,19,20
 26 98 26 98 41.5 144.5 c 128,-1,21
 57 191 57 191 85.5 223.5 c 128,-1,22
 114 256 114 256 167 293 c 1,23,-1
 123 310 l 1,24,-1
 123 441 l 1,25,-1
 297 371 l 1,26,-1
 326 387 l 2,27,28
 409 434 409 434 409 505 c 0,29,30
 409 552 409 552 376.5 582.5 c 128,-1,31
 344 613 344 613 294 613 c 0,32,33
 259 613 259 613 235 600.5 c 128,-1,34
 211 588 211 588 199.5 565 c 128,-1,35
 188 542 188 542 183 520 c 128,-1,36
 178 498 178 498 176 467 c 2,37,-1
 175 444 l 1,38,-1
 37 444 l 1,39,-1
 38 470 l 2,40,41
 39 511 39 511 46 546.5 c 128,-1,42
 53 582 53 582 71 619 c 128,-1,43
 89 656 89 656 117 681.5 c 128,-1,44
 145 707 145 707 191 723.5 c 128,-1,45
 237 740 237 740 297 740 c 0,0,1
EndSplineSet
EndChar

StartChar: uni01bf
Encoding: 447 447 383
Width: 608
GlyphClass: 2
Flags: W
LayerCount: 2
Fore
SplineSet
189 340 m 1,0,-1
 189 72 l 1,1,2
 231 101 231 101 257.5 120 c 128,-1,3
 284 139 284 139 322 171.5 c 128,-1,4
 360 204 360 204 382 232 c 128,-1,5
 404 260 404 260 420.5 296.5 c 128,-1,6
 437 333 437 333 437 370 c 0,7,8
 437 427 437 427 365 427 c 0,9,10
 330 427 330 427 283.5 407.5 c 128,-1,11
 237 388 237 388 189 340 c 1,0,-1
189 -77 m 1,12,-1
 189 -200 l 1,13,-1
 55 -200 l 1,14,-1
 55 539 l 1,15,-1
 189 539 l 1,16,-1
 189 490 l 1,17,18
 236 528 236 528 282 541.5 c 128,-1,19
 328 555 328 555 398 555 c 0,20,21
 474 555 474 555 525 501 c 128,-1,22
 576 447 576 447 576 358 c 0,23,24
 576 311 576 311 560 265 c 128,-1,25
 544 219 544 219 517 182 c 128,-1,26
 490 145 490 145 455 109 c 128,-1,27
 420 73 420 73 383 46.5 c 128,-1,28
 346 20 346 20 309.5 -5.5 c 128,-1,29
 273 -31 273 -31 242 -47 c 128,-1,30
 211 -63 211 -63 189 -77 c 1,12,-1
EndSplineSet
EndChar

StartChar: uni01c2
Encoding: 450 450 386
Width: 584
GlyphClass: 2
Flags: W
LayerCount: 2
Fore
SplineSet
255 731 m 1,0,-1
 325 731 l 1,1,-1
 325 358 l 1,2,-1
 539 358 l 1,3,-1
 539 278 l 1,4,-1
 325 278 l 1,5,-1
 325 186 l 1,6,-1
 539 186 l 1,7,-1
 539 106 l 1,8,-1
 325 106 l 1,9,-1
 325 -200 l 1,10,-1
 255 -200 l 1,11,-1
 255 106 l 1,12,-1
 45 106 l 1,13,-1
 45 186 l 1,14,-1
 255 186 l 1,15,-1
 255 278 l 1,16,-1
 45 278 l 1,17,-1
 45 358 l 1,18,-1
 255 358 l 1,19,-1
 255 731 l 1,0,-1
EndSplineSet
EndChar

StartChar: uni01E4
Encoding: 484 484 420
Width: 778
GlyphClass: 2
Flags: W
LayerCount: 2
Fore
SplineSet
419 149 m 1,0,-1
 419 229 l 1,1,-1
 578 229 l 1,2,3
 583 245 583 245 585 267 c 1,4,-1
 419 267 l 1,5,-1
 419 392 l 1,6,-1
 711 392 l 1,7,-1
 711 229 l 1,8,-1
 796 229 l 1,9,-1
 796 149 l 1,10,-1
 711 149 l 1,11,-1
 711 -2 l 1,12,-1
 621 -2 l 1,13,-1
 603 94 l 1,14,15
 561 33 561 33 509 5 c 128,-1,16
 457 -23 457 -23 383 -23 c 0,17,18
 235 -23 235 -23 138.5 85 c 128,-1,19
 42 193 42 193 42 359 c 0,20,21
 42 529 42 529 140 635 c 128,-1,22
 238 741 238 741 395 741 c 0,23,24
 527 741 527 741 612 675 c 128,-1,25
 697 609 697 609 711 496 c 1,26,-1
 570 496 l 1,27,28
 553 545 553 545 525 569 c 0,29,30
 475 613 475 613 396 613 c 0,31,32
 301 613 301 613 246.5 546 c 128,-1,33
 192 479 192 479 192 361 c 0,34,35
 192 249 192 249 250.5 177 c 128,-1,36
 309 105 309 105 400 105 c 0,37,38
 470 105 470 105 523 149 c 1,39,-1
 419 149 l 1,0,-1
EndSplineSet
EndChar

StartChar: uni01E5
Encoding: 485 485 421
Width: 611
GlyphClass: 2
Flags: W
LayerCount: 2
Fore
SplineSet
288 432 m 0,0,1
 237 432 237 432 205.5 384 c 128,-1,2
 174 336 174 336 174 259 c 0,3,4
 174 186 174 186 205 140 c 128,-1,5
 236 94 236 94 286 94 c 0,6,7
 341 94 341 94 375.5 140 c 128,-1,8
 410 186 410 186 410 259 c 0,9,10
 410 334 410 334 375.5 383 c 128,-1,11
 341 432 341 432 288 432 c 0,0,1
408 540 m 1,12,-1
 541 540 l 1,13,-1
 541 -18 l 2,14,15
 541 -33 541 -33 539 -47 c 1,16,-1
 632 -47 l 1,17,-1
 632 -114 l 1,18,-1
 518 -114 l 1,19,20
 461 -218 461 -218 284 -218 c 0,21,22
 176 -218 176 -218 111 -176.5 c 128,-1,23
 46 -135 46 -135 45 -65 c 1,24,-1
 190 -65 l 1,25,26
 207 -128 207 -128 289 -128 c 0,27,28
 324 -128 324 -128 351 -114 c 1,29,-1
 299 -114 l 1,30,-1
 299 -47 l 1,31,-1
 404 -47 l 1,32,33
 408 -33 408 -33 408 -18 c 2,34,-1
 408 55 l 1,35,36
 369 11 369 11 335.5 -6 c 128,-1,37
 302 -23 302 -23 255 -23 c 0,38,39
 155 -23 155 -23 94.5 54 c 128,-1,40
 34 131 34 131 34 257 c 0,41,42
 34 382 34 382 98 465.5 c 128,-1,43
 162 549 162 549 258 549 c 0,44,45
 348 549 348 549 408 457 c 1,46,-1
 408 540 l 1,12,-1
EndSplineSet
EndChar

StartChar: uni01EA
Encoding: 490 490 426
Width: 778
GlyphClass: 2
Flags: W
LayerCount: 2
Fore
SplineSet
391 613 m 0,0,1
 300 613 300 613 245 543.5 c 128,-1,2
 190 474 190 474 190 359 c 128,-1,3
 190 244 190 244 245 174.5 c 128,-1,4
 300 105 300 105 391 105 c 0,5,6
 481 105 481 105 536.5 174 c 128,-1,7
 592 243 592 243 592 355 c 0,8,9
 592 473 592 473 537.5 543 c 128,-1,10
 483 613 483 613 391 613 c 0,0,1
40 359 m 0,11,12
 40 527 40 527 136.5 634 c 128,-1,13
 233 741 233 741 390 741 c 0,14,15
 548 741 548 741 645 634.5 c 128,-1,16
 742 528 742 528 742 354 c 0,17,18
 742 253 742 253 703.5 170.5 c 128,-1,19
 665 88 665 88 590.5 36 c 128,-1,20
 516 -16 516 -16 417 -22 c 1,21,22
 360 -59 360 -59 339.5 -85 c 128,-1,23
 319 -111 319 -111 319 -148 c 0,24,25
 319 -198 319 -198 395 -198 c 0,26,27
 425 -198 425 -198 452 -192 c 1,28,-1
 452 -239 l 1,29,30
 413 -249 413 -249 373 -249 c 0,31,32
 306 -249 306 -249 267.5 -223.5 c 128,-1,33
 229 -198 229 -198 229 -154 c 0,34,35
 229 -112 229 -112 258.5 -77 c 128,-1,36
 288 -42 288 -42 340 -20 c 1,37,38
 203 -3 203 -3 121.5 101 c 128,-1,39
 40 205 40 205 40 359 c 0,11,12
EndSplineSet
EndChar

StartChar: uni01EB
Encoding: 491 491 427
Width: 611
GlyphClass: 2
Flags: W
LayerCount: 2
Fore
SplineSet
302 436 m 0,0,1
 245 436 245 436 210 388 c 128,-1,2
 175 340 175 340 175 263 c 128,-1,3
 175 186 175 186 210 138 c 128,-1,4
 245 90 245 90 302 90 c 0,5,6
 358 90 358 90 393.5 137.5 c 128,-1,7
 429 185 429 185 429 261 c 0,8,9
 429 341 429 341 394.5 388.5 c 128,-1,10
 360 436 360 436 302 436 c 0,0,1
301 549 m 0,11,12
 428 549 428 549 498.5 472.5 c 128,-1,13
 569 396 569 396 569 259 c 0,14,15
 569 137 569 137 504.5 62 c 128,-1,16
 440 -13 440 -13 329 -22 c 1,17,18
 272 -58 272 -58 251.5 -84.5 c 128,-1,19
 231 -111 231 -111 231 -148 c 0,20,21
 231 -198 231 -198 307 -198 c 0,22,23
 337 -198 337 -198 364 -192 c 1,24,-1
 364 -239 l 1,25,26
 325 -249 325 -249 285 -249 c 0,27,28
 218 -249 218 -249 179.5 -223.5 c 128,-1,29
 141 -198 141 -198 141 -154 c 0,30,31
 141 -112 141 -112 170.5 -76.5 c 128,-1,32
 200 -41 200 -41 253 -20 c 1,33,34
 150 -5 150 -5 92.5 69.5 c 128,-1,35
 35 144 35 144 35 263 c 0,36,37
 35 396 35 396 106 472.5 c 128,-1,38
 177 549 177 549 301 549 c 0,11,12
EndSplineSet
EndChar

StartChar: Wynn
Encoding: 503 503 438
Width: 630
GlyphClass: 2
Flags: W
LayerCount: 2
Fore
SplineSet
211 520 m 1,0,-1
 211 250 l 1,1,2
 260 283 260 283 297 312.5 c 128,-1,3
 334 342 334 342 374.5 382.5 c 128,-1,4
 415 423 415 423 437 468 c 128,-1,5
 459 513 459 513 459 558 c 0,6,7
 459 579 459 579 436 593.5 c 128,-1,8
 413 608 413 608 387 608 c 0,9,10
 352 608 352 608 305.5 588 c 128,-1,11
 259 568 259 568 211 520 c 1,0,-1
211 93 m 1,12,-1
 211 1 l 1,13,-1
 66 1 l 1,14,-1
 66 727 l 1,15,-1
 211 727 l 1,16,-1
 211 678 l 1,17,18
 258 716 258 716 304 729.5 c 128,-1,19
 350 743 350 743 420 743 c 0,20,21
 496 743 496 743 550.5 688.5 c 128,-1,22
 605 634 605 634 605 546 c 0,23,24
 605 499 605 499 587.5 451.5 c 128,-1,25
 570 404 570 404 545.5 367 c 128,-1,26
 521 330 521 330 480.5 290 c 128,-1,27
 440 250 440 250 409 224 c 128,-1,28
 378 198 378 198 332 167.5 c 128,-1,29
 286 137 286 137 265 124.5 c 128,-1,30
 244 112 244 112 211 93 c 1,12,-1
EndSplineSet
EndChar

StartChar: uni021c
Encoding: 540 540 475
Width: 569
GlyphClass: 2
Flags: W
LayerCount: 2
Fore
SplineSet
165 486 m 2,0,-1
 164 462 l 1,1,-1
 26 462 l 1,2,-1
 27 487 l 2,3,4
 29 613 29 613 93.5 677 c 128,-1,5
 158 741 158 741 274 741 c 0,6,7
 387 741 387 741 451 681.5 c 128,-1,8
 515 622 515 622 515 521 c 0,9,10
 515 439 515 439 456 380 c 1,11,12
 536 321 536 321 536 205 c 0,13,14
 536 174 536 174 527 145 c 128,-1,15
 518 116 518 116 504 92.5 c 128,-1,16
 490 69 490 69 465 46.5 c 128,-1,17
 440 24 440 24 418 7 c 128,-1,18
 396 -10 396 -10 359.5 -28 c 128,-1,19
 323 -46 323 -46 296.5 -58 c 128,-1,20
 270 -70 270 -70 227 -85.5 c 128,-1,21
 184 -101 184 -101 158 -109.5 c 128,-1,22
 132 -118 132 -118 88 -132 c 2,23,-1
 62 -140 l 1,24,-1
 25 6 l 1,25,26
 44 4 44 4 60 4 c 1,27,28
 80 12 80 12 118 23.5 c 128,-1,29
 156 35 156 35 204 55.5 c 128,-1,30
 252 76 252 76 295 98 c 128,-1,31
 338 120 338 120 367 148.5 c 128,-1,32
 396 177 396 177 396 204 c 0,33,34
 396 235 396 235 388 253.5 c 128,-1,35
 380 272 380 272 370 279 c 128,-1,36
 360 286 360 286 340 295 c 1,37,38
 280 264 280 264 191 237 c 2,39,-1
 167 230 l 1,40,-1
 134 351 l 1,41,-1
 154 359 l 2,42,43
 172 366 172 366 189 373 c 128,-1,44
 206 380 206 380 222 387 c 128,-1,45
 238 394 238 394 253 401 c 128,-1,46
 268 408 268 408 282 415 c 128,-1,47
 296 422 296 422 308 429.5 c 128,-1,48
 320 437 320 437 330.5 445 c 128,-1,49
 341 453 341 453 349 461.5 c 128,-1,50
 357 470 357 470 363 479 c 128,-1,51
 369 488 369 488 372 498 c 128,-1,52
 375 508 375 508 375 518 c 0,53,54
 375 565 375 565 348.5 589.5 c 128,-1,55
 322 614 322 614 275 614 c 0,56,57
 218 614 218 614 192.5 584.5 c 128,-1,58
 167 555 167 555 165 486 c 2,0,-1
EndSplineSet
EndChar

StartChar: uni021d
Encoding: 541 541 476
Width: 486
GlyphClass: 2
Flags: W
LayerCount: 2
Fore
SplineSet
166 344 m 2,0,-1
 166 319 l 1,1,-1
 30 319 l 1,2,-1
 30 344 l 2,3,4
 30 435 30 435 86.5 493 c 128,-1,5
 143 551 143 551 232 551 c 0,6,7
 318 551 318 551 373.5 500 c 128,-1,8
 429 449 429 449 429 370 c 0,9,10
 429 306 429 306 391 263 c 1,11,12
 444 219 444 219 444 132 c 0,13,14
 444 108 444 108 437 86.5 c 128,-1,15
 430 65 430 65 420 47.5 c 128,-1,16
 410 30 410 30 391 13 c 128,-1,17
 372 -4 372 -4 355.5 -16.5 c 128,-1,18
 339 -29 339 -29 311 -42.5 c 128,-1,19
 283 -56 283 -56 264.5 -64.5 c 128,-1,20
 246 -73 246 -73 212.5 -85 c 128,-1,21
 179 -97 179 -97 161 -103 c 128,-1,22
 143 -109 143 -109 108 -120 c 0,23,24
 99 -122 99 -122 95 -124 c 2,25,-1
 69 -132 l 1,26,-1
 46 -32 l 1,27,-1
 49 8 l 1,28,-1
 64 -2 l 1,29,30
 75 0 75 0 111 11.5 c 128,-1,31
 147 23 147 23 192.5 40.5 c 128,-1,32
 238 58 238 58 272.5 83.5 c 128,-1,33
 307 109 307 109 307 132 c 0,34,35
 307 153 307 153 302.5 163 c 128,-1,36
 298 173 298 173 283 184 c 1,37,38
 241 162 241 162 172 142 c 2,39,-1
 147 135 l 1,40,-1
 119 250 l 1,41,-1
 139 258 l 2,42,43
 152 263 152 263 164 268.5 c 128,-1,44
 176 274 176 274 187.5 278.5 c 128,-1,45
 199 283 199 283 209.5 288 c 128,-1,46
 220 293 220 293 229.5 298 c 128,-1,47
 239 303 239 303 247.5 308 c 128,-1,48
 256 313 256 313 262.5 318 c 128,-1,49
 269 323 269 323 274.5 328.5 c 128,-1,50
 280 334 280 334 283.5 340 c 128,-1,51
 287 346 287 346 289 353 c 128,-1,52
 291 360 291 360 291 367 c 0,53,54
 291 423 291 423 233 423 c 0,55,56
 204 423 204 423 185 402 c 128,-1,57
 166 381 166 381 166 344 c 2,0,-1
EndSplineSet
EndChar

StartChar: uni0224
Encoding: 548 548 479
Width: 645
GlyphClass: 2
Flags: W
LayerCount: 2
Fore
SplineSet
623 729 m 1,0,-1
 623 611 l 1,1,-1
 214 121 l 1,2,-1
 625 121 l 1,3,-1
 625 -81 l 2,4,5
 625 -104 625 -104 618 -125 c 128,-1,6
 611 -146 611 -146 594 -167.5 c 128,-1,7
 577 -189 577 -189 541.5 -202 c 128,-1,8
 506 -215 506 -215 456 -215 c 0,9,10
 441 -215 441 -215 423 -212 c 2,11,-1
 403 -207 l 1,12,-1
 403 -89 l 1,13,-1
 429 -91 l 2,14,15
 446 -92 446 -92 448 -92 c 0,16,17
 475 -92 475 -92 483 -85 c 128,-1,18
 491 -78 491 -78 491 -48 c 2,19,-1
 491 1 l 1,20,-1
 33 1 l 1,21,-1
 33 117 l 1,22,-1
 444 609 l 1,23,-1
 61 609 l 1,24,-1
 61 729 l 1,25,-1
 623 729 l 1,0,-1
EndSplineSet
EndChar

StartChar: uni0225
Encoding: 549 549 480
Width: 500
GlyphClass: 2
Flags: W
LayerCount: 2
Fore
SplineSet
346 0 m 1,0,-1
 21 0 l 1,1,-1
 21 109 l 1,2,-1
 302 429 l 1,3,-1
 42 429 l 1,4,-1
 42 541 l 1,5,-1
 468 541 l 1,6,-1
 468 433 l 1,7,-1
 189 112 l 1,8,-1
 480 112 l 1,9,-1
 480 -82 l 2,10,11
 480 -105 480 -105 473 -126 c 128,-1,12
 466 -147 466 -147 449 -168.5 c 128,-1,13
 432 -190 432 -190 396.5 -203 c 128,-1,14
 361 -216 361 -216 311 -216 c 0,15,16
 296 -216 296 -216 278 -213 c 2,17,-1
 258 -208 l 1,18,-1
 258 -90 l 1,19,-1
 284 -92 l 2,20,21
 301 -93 301 -93 303 -93 c 0,22,23
 329 -93 329 -93 337.5 -86 c 128,-1,24
 346 -79 346 -79 346 -49 c 2,25,-1
 346 0 l 1,0,-1
EndSplineSet
EndChar

StartChar: uni0228
Encoding: 552 552 483
Width: 667
GlyphClass: 2
Flags: W
LayerCount: 2
Fore
SplineSet
229 314 m 1,0,-1
 229 125 l 1,1,-1
 624 125 l 1,2,-1
 624 0 l 1,3,-1
 370 0 l 1,4,-1
 344 -56 l 1,5,6
 365 -49 365 -49 386 -49 c 0,7,8
 421 -49 421 -49 441.5 -68 c 128,-1,9
 462 -87 462 -87 462 -120 c 0,10,11
 462 -165 462 -165 428.5 -189 c 128,-1,12
 395 -213 395 -213 333 -213 c 0,13,14
 278 -213 278 -213 195 -185 c 1,15,-1
 214 -133 l 1,16,17
 283 -163 283 -163 319 -163 c 0,18,19
 343 -163 343 -163 359.5 -151 c 128,-1,20
 376 -139 376 -139 376 -122 c 0,21,22
 376 -106 376 -106 362 -96.5 c 128,-1,23
 348 -87 348 -87 325 -87 c 0,24,25
 301 -87 301 -87 276 -99 c 1,26,-1
 326 0 l 1,27,-1
 79 0 l 1,28,-1
 79 729 l 1,29,-1
 606 729 l 1,30,-1
 606 604 l 1,31,-1
 229 604 l 1,32,-1
 229 439 l 1,33,-1
 578 439 l 1,34,-1
 578 314 l 1,35,-1
 229 314 l 1,0,-1
EndSplineSet
EndChar

StartChar: uni0229
Encoding: 553 553 484
Width: 556
GlyphClass: 2
Flags: W
LayerCount: 2
Fore
SplineSet
379 319 m 1,0,1
 374 378 374 378 346.5 410 c 128,-1,2
 319 442 319 442 270 442 c 0,3,4
 178 442 178 442 164 319 c 1,5,-1
 379 319 l 1,0,1
272 549 m 0,6,7
 307 549 307 549 340 541 c 128,-1,8
 373 533 373 533 407.5 512 c 128,-1,9
 442 491 442 491 467.5 458.5 c 128,-1,10
 493 426 493 426 509 372.5 c 128,-1,11
 525 319 525 319 525 250 c 0,12,13
 525 238 525 238 524 226 c 1,14,-1
 162 226 l 1,15,16
 163 195 163 195 167.5 172.5 c 128,-1,17
 172 150 172 150 183.5 128.5 c 128,-1,18
 195 107 195 107 217.5 95.5 c 128,-1,19
 240 84 240 84 274 84 c 0,20,21
 354 84 354 84 381 152 c 1,22,-1
 519 152 l 1,23,24
 497 77 497 77 434.5 30 c 128,-1,25
 372 -17 372 -17 288 -22 c 1,26,-1
 262 -79 l 1,27,28
 283 -72 283 -72 304 -72 c 0,29,30
 339 -72 339 -72 359.5 -91 c 128,-1,31
 380 -110 380 -110 380 -143 c 0,32,33
 380 -188 380 -188 346.5 -212 c 128,-1,34
 313 -236 313 -236 251 -236 c 0,35,36
 196 -236 196 -236 113 -208 c 1,37,-1
 132 -156 l 1,38,39
 201 -186 201 -186 237 -186 c 0,40,41
 261 -186 261 -186 277.5 -174 c 128,-1,42
 294 -162 294 -162 294 -145 c 0,43,44
 294 -129 294 -129 280 -119.5 c 128,-1,45
 266 -110 266 -110 243 -110 c 0,46,47
 219 -110 219 -110 194 -122 c 1,48,-1
 245 -22 l 1,49,50
 141 -14 141 -14 81.5 59.5 c 128,-1,51
 22 133 22 133 22 256 c 0,52,53
 22 392 22 392 89 470.5 c 128,-1,54
 156 549 156 549 272 549 c 0,6,7
EndSplineSet
EndChar

StartChar: dotlessj
Encoding: 567 567 495
Width: 278
GlyphClass: 2
Flags: W
LayerCount: 2
Fore
SplineSet
210 540 m 1,0,-1
 210 -94 l 2,1,2
 210 -160 210 -160 181 -189 c 128,-1,3
 152 -218 152 -218 87 -218 c 0,4,5
 51 -218 51 -218 4 -213 c 1,6,-1
 4 -101 l 1,7,8
 17 -105 17 -105 29 -105 c 0,9,10
 52 -105 52 -105 61 -95.5 c 128,-1,11
 70 -86 70 -86 70 -63 c 2,12,-1
 70 540 l 1,13,-1
 210 540 l 1,0,-1
EndSplineSet
EndChar

StartChar: uni0251
Encoding: 593 593 497
Width: 677
GlyphClass: 2
Flags: W
LayerCount: 2
Fore
SplineSet
256 -23 m 0,0,1
 156 -23 156 -23 92.5 59 c 128,-1,2
 29 141 29 141 29 262 c 0,3,4
 29 384 29 384 94 466.5 c 128,-1,5
 159 549 159 549 256 549 c 0,6,7
 354 549 354 549 405 470 c 1,8,-1
 405 540 l 1,9,-1
 543 540 l 1,10,-1
 543 142 l 2,11,12
 543 116 543 116 565 116 c 0,13,14
 580 116 580 116 628 141 c 1,15,-1
 676 14 l 1,16,17
 598 -17 598 -17 554 -17 c 0,18,19
 447 -17 447 -17 416 73 c 1,20,21
 364 -23 364 -23 256 -23 c 0,0,1
287 432 m 0,22,23
 235 432 235 432 202 384.5 c 128,-1,24
 169 337 169 337 169 262 c 0,25,26
 169 188 169 188 202 141 c 128,-1,27
 235 94 235 94 287 94 c 128,-1,28
 339 94 339 94 372 140 c 128,-1,29
 405 186 405 186 405 260 c 0,30,31
 405 337 405 337 372.5 384.5 c 128,-1,32
 340 432 340 432 287 432 c 0,22,23
EndSplineSet
EndChar

StartChar: uni0253
Encoding: 595 595 499
Width: 611
GlyphClass: 2
Flags: W
LayerCount: 2
Fore
SplineSet
317 432 m 128,-1,1
 265 432 265 432 232 385.5 c 128,-1,2
 199 339 199 339 199 265 c 0,3,4
 199 188 199 188 231.5 141 c 128,-1,5
 264 94 264 94 317 94 c 0,6,7
 369 94 369 94 402 141 c 128,-1,8
 435 188 435 188 435 262 c 0,9,10
 435 337 435 337 402 384.5 c 128,-1,0
 369 432 369 432 317 432 c 128,-1,1
348 549 m 0,11,12
 445 549 445 549 510 468.5 c 128,-1,13
 575 388 575 388 575 263 c 0,14,15
 575 141 575 141 510 59 c 128,-1,16
 445 -23 445 -23 348 -23 c 0,17,18
 249 -23 249 -23 199 55 c 1,19,-1
 199 0 l 1,20,-1
 59 0 l 1,21,-1
 59 605 l 2,22,23
 59 671 59 671 88 700 c 128,-1,24
 117 729 117 729 182 729 c 0,25,26
 218 729 218 729 265 724 c 1,27,-1
 265 612 l 1,28,29
 252 616 252 616 240 616 c 0,30,31
 217 616 217 616 208 606.5 c 128,-1,32
 199 597 199 597 199 574 c 2,33,-1
 199 470 l 1,34,35
 249 549 249 549 348 549 c 0,11,12
EndSplineSet
EndChar

StartChar: uni0255
Encoding: 597 597 501
Width: 600
GlyphClass: 2
Flags: W
AnchorPoint: "Anchor-3" 301 538 basechar 0
AnchorPoint: "Anchor-2" 329 -9 basechar 0
LayerCount: 2
Fore
SplineSet
310 436 m 0,0,1
 196 436 196 436 196 259 c 0,2,3
 196 213 196 213 207 178 c 1,4,5
 287 231 287 231 339.5 249 c 128,-1,6
 392 267 392 267 444 267 c 0,7,8
 482 267 482 267 512 240.5 c 128,-1,9
 542 214 542 214 542 187 c 0,10,11
 542 134 542 134 524.5 93.5 c 128,-1,12
 507 53 507 53 482.5 32 c 128,-1,13
 458 11 458 11 426 -2.5 c 128,-1,14
 394 -16 394 -16 371.5 -19.5 c 128,-1,15
 349 -23 349 -23 329 -23 c 0,16,17
 280 -23 280 -23 244.5 -17 c 128,-1,18
 209 -11 209 -11 173 10 c 1,19,20
 160 1 160 1 131 -19 c 128,-1,21
 102 -39 102 -39 87 -51 c 1,22,-1
 11 39 l 1,23,-1
 91 97 l 1,24,25
 56 164 56 164 56 259 c 0,26,27
 56 397 56 397 123 473 c 128,-1,28
 190 549 190 549 311 549 c 0,29,30
 412 549 412 549 474.5 493 c 128,-1,31
 537 437 537 437 544 338 c 1,32,-1
 410 338 l 1,33,34
 398 391 398 391 375.5 413.5 c 128,-1,35
 353 436 353 436 310 436 c 0,0,1
414 126 m 1,36,37
 407 149 407 149 388 149 c 0,38,39
 376 149 376 149 338 128 c 128,-1,40
 300 107 300 107 283 94 c 1,41,42
 299 90 299 90 309 90 c 0,43,44
 376 90 376 90 414 126 c 1,36,37
EndSplineSet
EndChar

StartChar: uni0256
Encoding: 598 598 502
Width: 625
GlyphClass: 2
Flags: W
LayerCount: 2
Fore
SplineSet
287 432 m 0,0,1
 235 432 235 432 202 384.5 c 128,-1,2
 169 337 169 337 169 262 c 0,3,4
 169 188 169 188 202 141 c 128,-1,5
 235 94 235 94 287 94 c 128,-1,6
 339 94 339 94 372 140 c 128,-1,7
 405 186 405 186 405 260 c 0,8,9
 405 337 405 337 372.5 384.5 c 128,-1,10
 340 432 340 432 287 432 c 0,0,1
256 -23 m 0,11,12
 156 -23 156 -23 92.5 59 c 128,-1,13
 29 141 29 141 29 262 c 0,14,15
 29 384 29 384 94 466.5 c 128,-1,16
 159 549 159 549 256 549 c 0,17,18
 354 549 354 549 405 470 c 1,19,-1
 405 729 l 1,20,-1
 545 729 l 1,21,-1
 545 -63 l 2,22,23
 545 -86 545 -86 554 -95.5 c 128,-1,24
 563 -105 563 -105 586 -105 c 0,25,26
 598 -105 598 -105 611 -101 c 1,27,-1
 611 -213 l 1,28,29
 564 -218 564 -218 528 -218 c 0,30,31
 463 -218 463 -218 434 -189 c 128,-1,32
 405 -160 405 -160 405 -94 c 2,33,-1
 405 55 l 1,34,35
 353 -23 353 -23 256 -23 c 0,11,12
EndSplineSet
EndChar

StartChar: uni0257
Encoding: 599 599 503
Width: 625
GlyphClass: 2
Flags: W
LayerCount: 2
Fore
SplineSet
287 432 m 0,0,1
 235 432 235 432 202 384.5 c 128,-1,2
 169 337 169 337 169 262 c 0,3,4
 169 188 169 188 202 141 c 128,-1,5
 235 94 235 94 287 94 c 128,-1,6
 339 94 339 94 372 140 c 128,-1,7
 405 186 405 186 405 260 c 0,8,9
 405 337 405 337 372.5 384.5 c 128,-1,10
 340 432 340 432 287 432 c 0,0,1
256 -23 m 0,11,12
 156 -23 156 -23 92.5 59 c 128,-1,13
 29 141 29 141 29 262 c 0,14,15
 29 384 29 384 94 466.5 c 128,-1,16
 159 549 159 549 256 549 c 0,17,18
 354 549 354 549 405 470 c 1,19,-1
 405 605 l 2,20,21
 405 671 405 671 434 700 c 128,-1,22
 463 729 463 729 528 729 c 0,23,24
 564 729 564 729 611 724 c 1,25,-1
 611 612 l 1,26,27
 598 616 598 616 586 616 c 0,28,29
 563 616 563 616 554 606.5 c 128,-1,30
 545 597 545 597 545 574 c 2,31,-1
 545 0 l 1,32,-1
 405 0 l 1,33,-1
 405 55 l 1,34,35
 353 -23 353 -23 256 -23 c 0,11,12
EndSplineSet
EndChar

StartChar: uni0258
Encoding: 600 600 504
Width: 556
GlyphClass: 2
Flags: W
LayerCount: 2
Fore
SplineSet
275 549 m 0,0,1
 391 549 391 549 458 470.5 c 128,-1,2
 525 392 525 392 525 256 c 0,3,4
 525 126 525 126 459 51.5 c 128,-1,5
 393 -23 393 -23 278 -23 c 0,6,7
 187 -23 187 -23 119 24.5 c 128,-1,8
 51 72 51 72 28 152 c 1,9,-1
 166 152 l 1,10,11
 193 84 193 84 273 84 c 0,12,13
 307 84 307 84 329.5 95.5 c 128,-1,14
 352 107 352 107 363.5 128.5 c 128,-1,15
 375 150 375 150 379.5 172.5 c 128,-1,16
 384 195 384 195 385 226 c 1,17,-1
 23 226 l 1,18,19
 22 238 22 238 22 250 c 0,20,21
 22 319 22 319 38 372.5 c 128,-1,22
 54 426 54 426 79.5 458.5 c 128,-1,23
 105 491 105 491 139.5 512 c 128,-1,24
 174 533 174 533 207 541 c 128,-1,25
 240 549 240 549 275 549 c 0,0,1
168 319 m 1,26,-1
 383 319 l 1,27,28
 370 442 370 442 277 442 c 0,29,30
 228 442 228 442 200.5 410 c 128,-1,31
 173 378 173 378 168 319 c 1,26,-1
EndSplineSet
EndChar

StartChar: uni025A
Encoding: 602 602 506
Width: 834
GlyphClass: 2
Flags: W
LayerCount: 2
Fore
SplineSet
168 207 m 1,0,1
 173 148 173 148 200.5 116 c 128,-1,2
 228 84 228 84 277 84 c 0,3,4
 370 84 370 84 383 207 c 1,5,-1
 168 207 l 1,0,1
275 -23 m 0,6,7
 240 -23 240 -23 207 -15 c 128,-1,8
 174 -7 174 -7 139.5 14 c 128,-1,9
 105 35 105 35 79.5 67.5 c 128,-1,10
 54 100 54 100 38 153.5 c 128,-1,11
 22 207 22 207 22 276 c 0,12,13
 22 288 22 288 23 300 c 1,14,-1
 385 300 l 1,15,16
 384 331 384 331 379.5 353.5 c 128,-1,17
 375 376 375 376 363.5 397.5 c 128,-1,18
 352 419 352 419 329.5 430.5 c 128,-1,19
 307 442 307 442 273 442 c 0,20,21
 193 442 193 442 166 374 c 1,22,-1
 28 374 l 1,23,24
 51 454 51 454 119 501.5 c 128,-1,25
 187 549 187 549 278 549 c 128,-1,26
 369 549 369 549 430 501 c 1,27,-1
 502 570 l 1,28,-1
 608 570 l 1,29,30
 630 519 630 519 658.5 435.5 c 128,-1,31
 687 352 687 352 699 337 c 1,32,33
 710 339 710 339 720.5 350 c 128,-1,34
 731 361 731 361 749.5 388.5 c 128,-1,35
 768 416 768 416 800 463 c 1,36,-1
 800 268 l 1,37,38
 767 238 767 238 743.5 226 c 128,-1,39
 720 214 720 214 688 214 c 0,40,41
 675 214 675 214 664 216.5 c 128,-1,42
 653 219 653 219 635 232 c 128,-1,43
 617 245 617 245 601 266.5 c 128,-1,44
 585 288 585 288 565 329.5 c 128,-1,45
 545 371 545 371 527 428 c 1,46,-1
 500 408 l 1,47,48
 525 348 525 348 525 270 c 0,49,50
 525 134 525 134 458 55.5 c 128,-1,51
 391 -23 391 -23 275 -23 c 0,6,7
EndSplineSet
EndChar

StartChar: uni025D
Encoding: 605 605 509
Width: 820
GlyphClass: 2
Flags: W
LayerCount: 2
Fore
SplineSet
166 157 m 1,0,1
 173 123 173 123 194.5 105 c 128,-1,2
 216 87 216 87 276 87 c 0,3,4
 380 87 380 87 380 143 c 0,5,6
 380 155 380 155 378 163.5 c 128,-1,7
 376 172 376 172 369 183.5 c 128,-1,8
 362 195 362 195 344 201.5 c 128,-1,9
 326 208 326 208 298 208 c 2,10,-1
 206 208 l 1,11,-1
 206 318 l 1,12,-1
 300 318 l 2,13,14
 328 318 328 318 343.5 328.5 c 128,-1,15
 359 339 359 339 362 350 c 128,-1,16
 365 361 365 361 365 376 c 0,17,18
 365 385 365 385 362.5 394 c 128,-1,19
 360 403 360 403 352.5 414 c 128,-1,20
 345 425 345 425 327.5 432 c 128,-1,21
 310 439 310 439 284 439 c 0,22,23
 184 439 184 439 183 366 c 1,24,-1
 48 366 l 1,25,26
 50 452 50 452 112 500.5 c 128,-1,27
 174 549 174 549 283 549 c 0,28,29
 373 549 373 549 431 511 c 1,30,-1
 501 570 l 1,31,-1
 606 570 l 1,32,33
 626 523 626 523 656 435.5 c 128,-1,34
 686 348 686 348 699 334 c 1,35,36
 710 336 710 336 718.5 345 c 128,-1,37
 727 354 727 354 745.5 381.5 c 128,-1,38
 764 409 764 409 799 462 c 1,39,-1
 799 265 l 1,40,41
 766 234 766 234 742 221.5 c 128,-1,42
 718 209 718 209 687 209 c 0,43,44
 660 209 660 209 636.5 224 c 128,-1,45
 613 239 613 239 596.5 260 c 128,-1,46
 580 281 580 281 564.5 315.5 c 128,-1,47
 549 350 549 350 540 377 c 128,-1,48
 531 404 531 404 520 442 c 1,49,-1
 498 422 l 1,50,51
 505 397 505 397 505 369 c 0,52,53
 505 305 505 305 461 271 c 1,54,55
 520 234 520 234 520 160 c 0,56,57
 520 129 520 129 509 99.5 c 128,-1,58
 498 70 498 70 473.5 41 c 128,-1,59
 449 12 449 12 400 -5.5 c 128,-1,60
 351 -23 351 -23 284 -23 c 0,61,62
 35 -23 35 -23 29 157 c 1,63,-1
 166 157 l 1,0,1
EndSplineSet
EndChar

StartChar: uni025E
Encoding: 606 606 510
Width: 570
GlyphClass: 2
Flags: W
LayerCount: 2
Fore
SplineSet
295 103 m 0,0,1
 399 103 399 103 399 156 c 0,2,3
 399 191 399 191 374 204 c 128,-1,4
 349 217 349 217 296 217 c 2,5,-1
 225 217 l 1,6,-1
 225 319 l 1,7,-1
 296 319 l 2,8,9
 348 319 348 319 373.5 332 c 128,-1,10
 399 345 399 345 399 380 c 0,11,12
 399 434 399 434 295 434 c 0,13,14
 257 434 257 434 233 429 c 128,-1,15
 209 424 209 424 194 414.5 c 128,-1,16
 179 405 179 405 172 383 c 128,-1,17
 165 361 165 361 163 337 c 128,-1,18
 161 313 161 313 161 269 c 0,19,20
 161 215 161 215 164 188.5 c 128,-1,21
 167 162 167 162 180.5 139.5 c 128,-1,22
 194 117 194 117 220.5 110 c 128,-1,23
 247 103 247 103 295 103 c 0,0,1
288 547 m 0,24,25
 531 547 531 547 531 386 c 0,26,27
 531 308 531 308 466 268 c 1,28,29
 499 248 499 248 515 221.5 c 128,-1,30
 531 195 531 195 531 151 c 0,31,32
 531 -10 531 -10 292 -10 c 0,33,34
 212 -10 212 -10 160 8 c 128,-1,35
 108 26 108 26 81 65 c 128,-1,36
 54 104 54 104 44 151 c 128,-1,37
 34 198 34 198 34 270 c 0,38,39
 34 338 34 338 43.5 384.5 c 128,-1,40
 53 431 53 431 79.5 470 c 128,-1,41
 106 509 106 509 157.5 528 c 128,-1,42
 209 547 209 547 288 547 c 0,24,25
EndSplineSet
EndChar

StartChar: uni025F
Encoding: 607 607 511
Width: 316
GlyphClass: 2
Flags: W
LayerCount: 2
Fore
SplineSet
237 207 m 1,0,-1
 237 -94 l 2,1,2
 237 -160 237 -160 208 -189 c 128,-1,3
 179 -218 179 -218 114 -218 c 0,4,5
 78 -218 78 -218 31 -213 c 1,6,-1
 31 -101 l 1,7,8
 44 -105 44 -105 56 -105 c 0,9,10
 79 -105 79 -105 88 -95.5 c 128,-1,11
 97 -86 97 -86 97 -63 c 2,12,-1
 97 207 l 1,13,-1
 30 207 l 1,14,-1
 30 342 l 1,15,-1
 97 342 l 1,16,-1
 97 540 l 1,17,-1
 237 540 l 1,18,-1
 237 342 l 1,19,-1
 302 342 l 1,20,-1
 302 207 l 1,21,-1
 237 207 l 1,0,-1
EndSplineSet
EndChar

StartChar: uni0260
Encoding: 608 608 512
Width: 619
GlyphClass: 2
Flags: W
LayerCount: 2
Fore
SplineSet
288 432 m 0,0,1
 237 432 237 432 205.5 384 c 128,-1,2
 174 336 174 336 174 259 c 0,3,4
 174 186 174 186 205 140 c 128,-1,5
 236 94 236 94 286 94 c 0,6,7
 340 94 340 94 374.5 135 c 128,-1,8
 409 176 409 176 409 259 c 0,9,10
 409 346 409 346 374.5 389 c 128,-1,11
 340 432 340 432 288 432 c 0,0,1
541 -18 m 2,12,13
 541 -113 541 -113 473.5 -165.5 c 128,-1,14
 406 -218 406 -218 284 -218 c 0,15,16
 174 -218 174 -218 109.5 -176 c 128,-1,17
 45 -134 45 -134 45 -65 c 1,18,-1
 190 -65 l 1,19,20
 207 -128 207 -128 289 -128 c 0,21,22
 342 -128 342 -128 375 -97.5 c 128,-1,23
 408 -67 408 -67 408 -18 c 2,24,-1
 408 55 l 1,25,26
 369 11 369 11 335.5 -6 c 128,-1,27
 302 -23 302 -23 255 -23 c 0,28,29
 155 -23 155 -23 94.5 54 c 128,-1,30
 34 131 34 131 34 257 c 0,31,32
 34 382 34 382 98 465.5 c 128,-1,33
 162 549 162 549 258 549 c 0,34,35
 348 549 348 549 408 457 c 1,36,-1
 408 564 l 2,37,38
 408 630 408 630 437 659 c 128,-1,39
 466 688 466 688 531 688 c 0,40,41
 558 688 558 688 605 683 c 1,42,-1
 605 571 l 1,43,44
 592 575 592 575 582 575 c 0,45,46
 541 575 541 575 541 540 c 2,47,-1
 541 -18 l 2,12,13
EndSplineSet
EndChar

StartChar: uni0261
Encoding: 609 609 513
Width: 611
GlyphClass: 2
Flags: W
LayerCount: 2
Fore
SplineSet
288 432 m 0,0,1
 237 432 237 432 205.5 384 c 128,-1,2
 174 336 174 336 174 259 c 0,3,4
 174 186 174 186 205 140 c 128,-1,5
 236 94 236 94 286 94 c 0,6,7
 341 94 341 94 375.5 140 c 128,-1,8
 410 186 410 186 410 259 c 0,9,10
 410 334 410 334 375.5 383 c 128,-1,11
 341 432 341 432 288 432 c 0,0,1
541 410 m 2,12,-1
 541 -18 l 2,13,14
 541 -113 541 -113 473.5 -165.5 c 128,-1,15
 406 -218 406 -218 284 -218 c 0,16,17
 176 -218 176 -218 110.5 -176.5 c 128,-1,18
 45 -135 45 -135 45 -65 c 1,19,-1
 190 -65 l 1,20,21
 207 -128 207 -128 289 -128 c 0,22,23
 342 -128 342 -128 375 -97.5 c 128,-1,24
 408 -67 408 -67 408 -18 c 2,25,-1
 408 55 l 1,26,27
 369 11 369 11 335.5 -6 c 128,-1,28
 302 -23 302 -23 255 -23 c 0,29,30
 155 -23 155 -23 94.5 54 c 128,-1,31
 34 131 34 131 34 257 c 0,32,33
 34 382 34 382 98 465.5 c 128,-1,34
 162 549 162 549 258 549 c 0,35,36
 348 549 348 549 408 457 c 1,37,38
 438 548 438 548 507 548 c 0,39,40
 542 548 542 548 597 528 c 1,41,-1
 574 414 l 1,42,43
 560 419 560 419 552 419 c 0,44,45
 541 419 541 419 541 410 c 2,12,-1
EndSplineSet
EndChar

StartChar: uni0262
Encoding: 610 610 514
Width: 566
GlyphClass: 2
Flags: W
AnchorPoint: "Anchor-3" 289 541 basechar 0
LayerCount: 2
Fore
SplineSet
288 437 m 0,0,1
 174 437 174 437 174 260 c 0,2,3
 174 181 174 181 204.5 136 c 128,-1,4
 235 91 235 91 288 91 c 0,5,6
 354 91 354 91 379 158 c 1,7,-1
 291 158 l 1,8,-1
 291 263 l 1,9,-1
 523 263 l 1,10,-1
 523 0 l 1,11,-1
 433 0 l 1,12,-1
 428 29 l 1,13,14
 365 -22 365 -22 287 -22 c 0,15,16
 167 -22 167 -22 100.5 52 c 128,-1,17
 34 126 34 126 34 260 c 0,18,19
 34 398 34 398 101 474 c 128,-1,20
 168 550 168 550 289 550 c 0,21,22
 390 550 390 550 452.5 494 c 128,-1,23
 515 438 515 438 522 339 c 1,24,-1
 388 339 l 1,25,26
 376 392 376 392 353.5 414.5 c 128,-1,27
 331 437 331 437 288 437 c 0,0,1
EndSplineSet
EndChar

StartChar: gammalatin
Encoding: 611 611 515
Width: 556
GlyphClass: 2
Flags: W
LayerCount: 2
Fore
SplineSet
279 -88 m 0,0,1
 286 -88 286 -88 292.5 -82.5 c 128,-1,2
 299 -77 299 -77 299 -67 c 0,3,4
 299 -44 299 -44 278 -12 c 1,5,6
 258 -45 258 -45 258 -67 c 0,7,8
 258 -77 258 -77 265.5 -82.5 c 128,-1,9
 273 -88 273 -88 279 -88 c 0,0,1
362 140 m 1,10,11
 405 61 405 61 422 19 c 128,-1,12
 439 -23 439 -23 439 -55 c 0,13,14
 439 -116 439 -116 393.5 -172 c 128,-1,15
 348 -228 348 -228 286 -228 c 0,16,17
 215 -228 215 -228 166 -181.5 c 128,-1,18
 117 -135 117 -135 117 -62 c 0,19,20
 117 -34 117 -34 133 7 c 128,-1,21
 149 48 149 48 194 139 c 1,22,-1
 10 540 l 1,23,-1
 164 540 l 1,24,-1
 278 296 l 1,25,-1
 392 540 l 1,26,-1
 546 540 l 1,27,-1
 362 140 l 1,10,11
EndSplineSet
EndChar

StartChar: uni0264
Encoding: 612 612 516
Width: 656
GlyphClass: 2
Flags: W
LayerCount: 2
Fore
SplineSet
383 195 m 0,0,1
 383 208 383 208 367.5 244 c 128,-1,2
 352 280 352 280 326 322 c 1,3,4
 276 243 276 243 276 192 c 256,5,6
 276 141 276 141 293.5 115 c 128,-1,7
 311 89 311 89 332 89 c 0,8,9
 357 89 357 89 370 119.5 c 128,-1,10
 383 150 383 150 383 195 c 0,0,1
199 550 m 0,11,12
 232 550 232 550 261.5 534 c 128,-1,13
 291 518 291 518 325 489 c 1,14,15
 363 519 363 519 397.5 534.5 c 128,-1,16
 432 550 432 550 453 550 c 0,17,18
 482 550 482 550 514 533 c 128,-1,19
 546 516 546 516 576 485 c 128,-1,20
 606 454 606 454 625.5 400.5 c 128,-1,21
 645 347 645 347 645 283 c 1,22,-1
 518 283 l 1,23,24
 518 319 518 319 505 353 c 128,-1,25
 492 387 492 387 478 404.5 c 128,-1,26
 464 422 464 422 458 422 c 256,27,28
 452 422 452 422 439 410.5 c 128,-1,29
 426 399 426 399 418 390 c 1,30,31
 463 334 463 334 495.5 271 c 128,-1,32
 528 208 528 208 528 171 c 0,33,34
 528 117 528 117 510 77 c 128,-1,35
 492 37 492 37 462.5 16 c 128,-1,36
 433 -5 433 -5 401.5 -14.5 c 128,-1,37
 370 -24 370 -24 336 -24 c 0,38,39
 308 -24 308 -24 281 -18.5 c 128,-1,40
 254 -13 254 -13 226 1.5 c 128,-1,41
 198 16 198 16 177.5 38 c 128,-1,42
 157 60 157 60 143.5 95.5 c 128,-1,43
 130 131 130 131 130 175 c 0,44,45
 130 212 130 212 158.5 276.5 c 128,-1,46
 187 341 187 341 234 402 c 1,47,48
 233 404 233 404 225.5 412 c 128,-1,49
 218 420 218 420 211.5 426 c 128,-1,50
 205 432 205 432 202 432 c 0,51,52
 200 432 200 432 192 425 c 128,-1,53
 184 418 184 418 172.5 404.5 c 128,-1,54
 161 391 161 391 151 364 c 128,-1,55
 141 337 141 337 139 304 c 1,56,-1
 12 304 l 1,57,58
 15 362 15 362 32.5 408 c 128,-1,59
 50 454 50 454 72 480 c 128,-1,60
 94 506 94 506 120.5 522.5 c 128,-1,61
 147 539 147 539 166 544.5 c 128,-1,62
 185 550 185 550 199 550 c 0,11,12
EndSplineSet
EndChar

StartChar: uni0265
Encoding: 613 613 517
Width: 619
GlyphClass: 2
Flags: W
LayerCount: 2
Fore
SplineSet
541 -218 m 1,0,-1
 401 -218 l 1,1,-1
 401 64 l 1,2,3
 343 -23 343 -23 239 -23 c 0,4,5
 153 -23 153 -23 105.5 26 c 128,-1,6
 58 75 58 75 58 164 c 2,7,-1
 58 540 l 1,8,-1
 198 540 l 1,9,-1
 198 193 l 2,10,11
 198 96 198 96 288 96 c 0,12,13
 339 96 339 96 370 125 c 128,-1,14
 401 154 401 154 401 202 c 2,15,-1
 401 540 l 1,16,-1
 541 540 l 1,17,-1
 541 -218 l 1,0,-1
EndSplineSet
EndChar

StartChar: hhook
Encoding: 614 614 518
Width: 611
GlyphClass: 2
Flags: W
LayerCount: 2
Fore
SplineSet
401 330 m 2,0,1
 401 430 401 430 315 430 c 0,2,3
 268 430 268 430 237.5 400 c 128,-1,4
 207 370 207 370 207 324 c 2,5,-1
 207 0 l 1,6,-1
 67 0 l 1,7,-1
 67 605 l 2,8,9
 67 671 67 671 96 700 c 128,-1,10
 125 729 125 729 190 729 c 0,11,12
 226 729 226 729 273 724 c 1,13,-1
 273 612 l 1,14,15
 260 616 260 616 248 616 c 0,16,17
 225 616 225 616 216 606.5 c 128,-1,18
 207 597 207 597 207 574 c 2,19,-1
 207 462 l 1,20,21
 265 549 265 549 365 549 c 0,22,23
 397 549 397 549 425.5 540.5 c 128,-1,24
 454 532 454 532 481.5 512.5 c 128,-1,25
 509 493 509 493 525 454 c 128,-1,26
 541 415 541 415 541 362 c 2,27,-1
 541 0 l 1,28,-1
 401 0 l 1,29,-1
 401 330 l 2,0,1
EndSplineSet
EndChar

StartChar: uni0267
Encoding: 615 615 519
Width: 611
GlyphClass: 2
Flags: W
LayerCount: 2
Fore
SplineSet
401 330 m 2,0,1
 401 430 401 430 315 430 c 0,2,3
 268 430 268 430 237.5 400 c 128,-1,4
 207 370 207 370 207 324 c 2,5,-1
 207 0 l 1,6,-1
 67 0 l 1,7,-1
 67 605 l 2,8,9
 67 671 67 671 96 700 c 128,-1,10
 125 729 125 729 190 729 c 0,11,12
 226 729 226 729 273 724 c 1,13,-1
 273 612 l 1,14,15
 260 616 260 616 248 616 c 0,16,17
 225 616 225 616 216 606.5 c 128,-1,18
 207 597 207 597 207 574 c 2,19,-1
 207 462 l 1,20,21
 265 549 265 549 365 549 c 0,22,23
 397 549 397 549 425.5 540.5 c 128,-1,24
 454 532 454 532 481.5 512.5 c 128,-1,25
 509 493 509 493 525 454 c 128,-1,26
 541 415 541 415 541 362 c 2,27,-1
 541 -94 l 2,28,29
 541 -160 541 -160 512 -189 c 128,-1,30
 483 -218 483 -218 418 -218 c 0,31,32
 382 -218 382 -218 335 -213 c 1,33,-1
 335 -101 l 1,34,35
 348 -105 348 -105 360 -105 c 0,36,37
 383 -105 383 -105 392 -95.5 c 128,-1,38
 401 -86 401 -86 401 -63 c 2,39,-1
 401 330 l 2,0,1
EndSplineSet
EndChar

StartChar: uni0268
Encoding: 616 616 520
Width: 300
GlyphClass: 2
Flags: W
LayerCount: 2
Fore
SplineSet
218 729 m 1,0,-1
 218 604 l 1,1,-1
 78 604 l 1,2,-1
 78 729 l 1,3,-1
 218 729 l 1,0,-1
286 342 m 1,4,-1
 286 207 l 1,5,-1
 218 207 l 1,6,-1
 218 0 l 1,7,-1
 78 0 l 1,8,-1
 78 207 l 1,9,-1
 14 207 l 1,10,-1
 14 342 l 1,11,-1
 78 342 l 1,12,-1
 78 540 l 1,13,-1
 218 540 l 1,14,-1
 218 342 l 1,15,-1
 286 342 l 1,4,-1
EndSplineSet
EndChar

StartChar: uni0269
Encoding: 617 617 521
Width: 344
GlyphClass: 2
Flags: W
LayerCount: 2
Fore
SplineSet
67 540 m 1,0,-1
 207 540 l 1,1,-1
 207 131 l 2,2,3
 207 108 207 108 216 98.5 c 128,-1,4
 225 89 225 89 248 89 c 0,5,6
 260 89 260 89 273 93 c 1,7,-1
 273 -19 l 1,8,9
 236 -23 236 -23 190 -23 c 0,10,11
 125 -23 125 -23 96 5.5 c 128,-1,12
 67 34 67 34 67 100 c 2,13,-1
 67 540 l 1,0,-1
EndSplineSet
EndChar

StartChar: uni026A
Encoding: 618 618 522
Width: 300
GlyphClass: 2
Flags: W
LayerCount: 2
Fore
SplineSet
14 540 m 1,0,-1
 286 540 l 1,1,-1
 286 405 l 1,2,-1
 218 405 l 1,3,-1
 218 135 l 1,4,-1
 286 135 l 1,5,-1
 286 0 l 1,6,-1
 14 0 l 1,7,-1
 14 135 l 1,8,-1
 78 135 l 1,9,-1
 78 405 l 1,10,-1
 14 405 l 1,11,-1
 14 540 l 1,0,-1
EndSplineSet
EndChar

StartChar: uni026B
Encoding: 619 619 523
Width: 473
GlyphClass: 2
Flags: W
LayerCount: 2
Fore
SplineSet
335 346 m 0,0,1
 368 346 368 346 377.5 361.5 c 128,-1,2
 387 377 387 377 388 412 c 1,3,-1
 466 412 l 1,4,5
 457 266 457 266 339 266 c 0,6,7
 322 266 322 266 307 269 c 1,8,-1
 307 0 l 1,9,-1
 167 0 l 1,10,-1
 167 353 l 1,11,12
 153 358 153 358 138 358 c 0,13,14
 106 358 106 358 96.5 343 c 128,-1,15
 87 328 87 328 85 293 c 1,16,-1
 7 293 l 1,17,18
 14 438 14 438 134 438 c 0,19,20
 152 438 152 438 167 435 c 1,21,-1
 167 729 l 1,22,-1
 307 729 l 1,23,-1
 307 351 l 1,24,25
 320 346 320 346 335 346 c 0,0,1
EndSplineSet
EndChar

StartChar: uni026C
Encoding: 620 620 524
Width: 527
GlyphClass: 2
Flags: W
LayerCount: 2
Fore
SplineSet
191 435 m 2,0,1
 149 435 149 435 149 408 c 128,-1,2
 149 381 149 381 191 381 c 2,3,-1
 235 381 l 1,4,-1
 235 435 l 1,5,-1
 191 435 l 2,0,1
235 558 m 1,6,-1
 235 729 l 1,7,-1
 375 729 l 1,8,-1
 375 381 l 1,9,-1
 507 381 l 1,10,-1
 507 254 l 1,11,-1
 375 254 l 1,12,-1
 375 0 l 1,13,-1
 235 0 l 1,14,-1
 235 254 l 1,15,-1
 210 254 l 2,16,17
 182 254 182 254 159.5 256 c 128,-1,18
 137 258 137 258 109.5 266.5 c 128,-1,19
 82 275 82 275 63.5 289 c 128,-1,20
 45 303 45 303 32.5 329.5 c 128,-1,21
 20 356 20 356 20 392 c 0,22,23
 20 416 20 416 29 442 c 128,-1,24
 38 468 38 468 58 494.5 c 128,-1,25
 78 521 78 521 117.5 538.5 c 128,-1,26
 157 556 157 556 209 558 c 2,27,-1
 235 558 l 1,6,-1
EndSplineSet
EndChar

StartChar: uni026D
Encoding: 621 621 525
Width: 298
GlyphClass: 2
Flags: W
LayerCount: 2
Fore
SplineSet
67 -94 m 2,0,-1
 67 729 l 1,1,-1
 207 729 l 1,2,-1
 207 -63 l 2,3,4
 207 -86 207 -86 216 -95.5 c 128,-1,5
 225 -105 225 -105 248 -105 c 0,6,7
 260 -105 260 -105 273 -101 c 1,8,-1
 273 -213 l 1,9,10
 226 -218 226 -218 190 -218 c 0,11,12
 125 -218 125 -218 96 -189 c 128,-1,13
 67 -160 67 -160 67 -94 c 2,0,-1
EndSplineSet
EndChar

StartChar: uni026E
Encoding: 622 622 526
Width: 778
GlyphClass: 2
Flags: W
LayerCount: 2
Fore
SplineSet
560 272 m 1,0,1
 622 254 622 254 664 208 c 128,-1,2
 706 162 706 162 706 84 c 0,3,4
 706 -20 706 -20 638.5 -81.5 c 128,-1,5
 571 -143 571 -143 458 -143 c 0,6,7
 349 -143 349 -143 284.5 -80.5 c 128,-1,8
 220 -18 220 -18 219 88 c 1,9,-1
 355 88 l 1,10,11
 361 -23 361 -23 461 -23 c 0,12,13
 507 -23 507 -23 536.5 7 c 128,-1,14
 566 37 566 37 566 84 c 0,15,16
 566 123 566 123 545 151.5 c 128,-1,17
 524 180 524 180 489 190 c 0,18,19
 461 197 461 197 407 197 c 1,20,-1
 407 291 l 1,21,-1
 522 427 l 1,22,-1
 207 427 l 1,23,-1
 207 0 l 1,24,-1
 67 0 l 1,25,-1
 67 729 l 1,26,-1
 207 729 l 1,27,-1
 207 540 l 1,28,-1
 693 540 l 1,29,-1
 693 427 l 1,30,-1
 560 272 l 1,0,1
EndSplineSet
EndChar

StartChar: uni0270
Encoding: 624 624 528
Width: 889
GlyphClass: 2
Flags: W
LayerCount: 2
Fore
SplineSet
825 -218 m 1,0,-1
 685 -218 l 1,1,-1
 685 67 l 1,2,3
 650 26 650 26 616.5 8.5 c 128,-1,4
 583 -9 583 -9 537 -9 c 0,5,6
 431 -9 431 -9 390 71 c 1,7,8
 330 -9 330 -9 232 -9 c 0,9,10
 151 -9 151 -9 105.5 35 c 128,-1,11
 60 79 60 79 60 158 c 2,12,-1
 60 540 l 1,13,-1
 200 540 l 1,14,-1
 200 180 l 2,15,16
 200 148 200 148 220.5 129 c 128,-1,17
 241 110 241 110 276 110 c 0,18,19
 321 110 321 110 346.5 138 c 128,-1,20
 372 166 372 166 372 216 c 2,21,-1
 372 540 l 1,22,-1
 512 540 l 1,23,-1
 512 180 l 2,24,25
 512 148 512 148 532.5 129 c 128,-1,26
 553 110 553 110 588 110 c 0,27,28
 633 110 633 110 658.5 138 c 128,-1,29
 684 166 684 166 684 216 c 2,30,-1
 684 540 l 1,31,-1
 825 540 l 1,32,-1
 825 -218 l 1,0,-1
EndSplineSet
EndChar

StartChar: uni0271
Encoding: 625 625 529
Width: 889
GlyphClass: 2
Flags: W
LayerCount: 2
Fore
SplineSet
60 540 m 1,0,-1
 199 540 l 1,1,-1
 199 473 l 1,2,3
 234 514 234 514 267.5 531.5 c 128,-1,4
 301 549 301 549 347 549 c 0,5,6
 453 549 453 549 494 469 c 1,7,8
 554 549 554 549 652 549 c 0,9,10
 733 549 733 549 778.5 505 c 128,-1,11
 824 461 824 461 824 382 c 2,12,-1
 824 -94 l 2,13,14
 824 -160 824 -160 795 -189 c 128,-1,15
 766 -218 766 -218 701 -218 c 0,16,17
 665 -218 665 -218 618 -213 c 1,18,-1
 618 -101 l 1,19,20
 631 -105 631 -105 643 -105 c 0,21,22
 666 -105 666 -105 675 -95.5 c 128,-1,23
 684 -86 684 -86 684 -63 c 2,24,-1
 684 360 l 2,25,26
 684 392 684 392 663.5 411 c 128,-1,27
 643 430 643 430 608 430 c 0,28,29
 563 430 563 430 537.5 402 c 128,-1,30
 512 374 512 374 512 324 c 2,31,-1
 512 0 l 1,32,-1
 372 0 l 1,33,-1
 372 360 l 2,34,35
 372 392 372 392 351.5 411 c 128,-1,36
 331 430 331 430 296 430 c 0,37,38
 251 430 251 430 225.5 402 c 128,-1,39
 200 374 200 374 200 324 c 2,40,-1
 200 0 l 1,41,-1
 60 0 l 1,42,-1
 60 540 l 1,0,-1
EndSplineSet
EndChar

